<?xml version="1.0" encoding="UTF-8" standalone="no"?>
<svg
   xmlns:dc="http://purl.org/dc/elements/1.1/"
   xmlns:cc="http://creativecommons.org/ns#"
   xmlns:rdf="http://www.w3.org/1999/02/22-rdf-syntax-ns#"
   xmlns:svg="http://www.w3.org/2000/svg"
   xmlns="http://www.w3.org/2000/svg"
   xml:space="preserve"
   style="enable-background:new 0 0 41.2 54;"
   viewBox="0 0 41.2 54"
   y="0px"
   x="0px"
   id="Слой_1"
   version="1.1"><metadata
     id="metadata10"><rdf:RDF><cc:Work
         rdf:about=""><dc:format>image/svg+xml</dc:format><dc:type
           rdf:resource="http://purl.org/dc/dcmitype/StillImage" /><dc:title></dc:title></cc:Work></rdf:RDF></metadata><defs
     id="defs8" /><style
     id="style2"
     type="text/css">
	.st0{fill:#FFFFFF;}
</style><path
     style="fill:#000000"
     d="M21.7,17.2c0-0.7,0.5-1.2,1.2-1.2h0.3c0.7,0,1.2,0.5,1.2,1.2c0,0.7-0.5,1.2-1.2,1.2h-0.3  C22.3,18.4,21.7,17.8,21.7,17.2z M41.1,53.1c0,0.1-0.1,0.3-0.2,0.4c-0.1,0.1-0.2,0.3-0.4,0.3c-0.1,0.1-0.3,0.1-0.5,0.1  c0,0-34.5,0-34.5,0C2.5,54,0,51.5,0,48.4V5.3C0,2.4,2.4,0,5.3,0h30.7c1.4,0,2.7,0.5,3.7,1.5c1,1,1.5,2.3,1.5,3.7v38.8  c0,0,0,0.1,0,0.1c0,0.2-0.1,0.3-0.1,0.5c-0.1,0.1-0.2,0.3-0.3,0.4c0,0-0.1,0-0.1,0.1c-1,0.7-1.7,1.9-1.7,3.3c0,1.4,0.6,2.6,1.7,3.3  c0,0,0.1,0,0.1,0.1h0c0,0,0,0,0,0c0.1,0.1,0.3,0.2,0.3,0.4c0.1,0.1,0.1,0.3,0.1,0.5C41.2,52.8,41.2,52.9,41.1,53.1z M5,48.4  c0-0.7,0.5-1.2,1.2-1.2h30.4c0.1-0.7,0.4-1.3,0.7-1.9H5.5c-1.7,0-3.1,1.4-3.1,3.1s1.4,3.1,3.1,3.1h31.7c-0.3-0.6-0.5-1.2-0.7-1.9  H6.2C5.6,49.6,5,49.1,5,48.4z M38.8,5.3c0-0.8-0.3-1.5-0.8-2s-1.2-0.8-2-0.8l-2.4,0l-28.2,0c-1.6,0-2.8,1.3-2.8,2.8v38.6  c0.9-0.6,2-1,3.1-1h33.2L38.8,5.3L38.8,5.3z M29.9,27.1c-0.6-0.2-1.3,0.1-1.5,0.8c-0.2,0.6,0.1,1.3,0.8,1.5c0.7,0.2,1.1,0.8,1.1,1.5  c0,0.9-0.7,1.6-1.6,1.6h-11c-0.9,0-1.6-0.7-1.6-1.6c0-0.7,0.4-1.3,1.1-1.5c0.6-0.2,1-0.9,0.8-1.5s-0.9-1-1.5-0.8  c-1.6,0.6-2.7,2.1-2.7,3.8c0,2.2,1.8,4,4,4h11c2.2,0,4-1.8,4-4C32.6,29.2,31.5,27.6,29.9,27.1z M5.8,4.1c-0.7,0-1.2,0.5-1.2,1.2V40  c0,0.7,0.5,1.2,1.2,1.2S7,40.7,7,40V5.3C7,4.6,6.5,4.1,5.8,4.1z M19.8,26.1c-2.2-4.2-3.5-7.2-3.5-9c0-3.8,3.1-6.8,6.8-6.8  s6.8,3.1,6.8,6.8c0,1.7-1.3,4.7-3.5,9c0,0-0.8,1.5-0.8,1.6c-0.3,0.7-0.9,1.9-2.5,1.9c-1.6,0-2.2-1.2-2.5-1.9  C20.5,27.7,19.8,26.1,19.8,26.1z M18.7,17.2c0,1.5,2.3,6,3.2,7.9c0,0,0.8,1.6,0.8,1.7c0.1,0.2,0.2,0.4,0.3,0.5c0,0,0.1,0,0.1,0  c0.1-0.1,0.2-0.3,0.3-0.5c0-0.1,0.8-1.7,0.8-1.7c1-1.9,3.2-6.3,3.2-7.9c0-2.4-2-4.4-4.4-4.4C20.7,12.8,18.7,14.8,18.7,17.2z"
     class="st0"
     id="XMLID_213_" /></svg>