<?xml version="1.0" encoding="utf-8"?>
<!-- Generator: Adobe Illustrator 19.1.1, SVG Export Plug-In . SVG Version: 6.00 Build 0)  -->
<svg version="1.1" id="AngularJS_1_" xmlns="http://www.w3.org/2000/svg" xmlns:xlink="http://www.w3.org/1999/xlink" x="0px"
	 y="0px" viewBox="113 -14.3 209.3 42.3" style="enable-background:new 113 -14.3 209.3 42.3;" xml:space="preserve">
<style type="text/css">
	.st0{fill:#DD0031;}
	.st1{fill:#C3002F;}
	.st2{fill:#FFFFFF;}
</style>
<g id="AngularJS">
	<polygon class="st0" points="133.3,-14.3 133.3,-14.3 133.3,-14.3 113.6,-7.3 116.6,18.8 133.3,28 133.3,28 133.3,28 150,18.8 
		153,-7.3 	"/>
	<polygon class="st1" points="133.3,-14.3 133.3,-9.6 133.3,-9.6 133.3,11.8 133.3,11.8 133.3,28 133.3,28 150,18.8 153,-7.3 	"/>
	<path class="st2" d="M133.3-9.6L121,18l0,0h4.6l0,0l2.5-6.2h10.4L141,18l0,0h4.6l0,0L133.3-9.6L133.3-9.6L133.3-9.6L133.3-9.6
		L133.3-9.6z M136.9,8h-7.2l3.6-8.6L136.9,8z"/>
	<g>
		<path d="M166,17.5l7.5-23.3h4.3l7.5,23.3l-3.6,1.1l-2-6.3h-8l-2,6.3L166,17.5z M172.8,8.8h5.7l-2.4-7.6l-0.4-2.3h-0.1l-0.4,2.3
			L172.8,8.8z"/>
		<path d="M187.1,0.2l3.1-0.8l0.6,2.6l1.9-2.2h7L203,3v15h-3.9V4.3l-1-1h-4.3L192,5.4V18h-3.8V4.5L187.1,0.2z"/>
		<path d="M206.7,22.3l0.9-3l3.6,1.1h6.5l0.5-0.5v-0.9l-0.5-0.5h-8.5l-2.4-2.5v-3.3l1.5-1.6l-1.5-1.5V3l3.2-3.2h7.1l4.3-1l0.8,3.1
			l-2.6,0.6l2.2,1.9v5.9l-3.2,3.2h-7.8l-0.5,0.5v0.9l0.5,0.5h8.4l2.4,2.5v3.3l-2.4,2.4h-8.5L206.7,22.3z M210.7,8.4l1.7,1.7h4.5l1-1
			V5.2l-2.1-1.8h-4.1l-1,1V8.4z"/>
		<path d="M225.2,14.8v-15h3.8v13.6l1,1h4.3l1.8-2.1V-0.2h3.9v13.5l1,4.3l-3.1,0.8l-0.6-2.6l-1.9,2.2h-7L225.2,14.8z"/>
		<path d="M244.1-4.9l3.6-1.2l1.4,4.2v20h-3.8V-1.5L244.1-4.9z"/>
		<path d="M252.4,14.8v-4.5l3.2-3.2h7.8V4.3l-1-1h-4.9l-3.7,1.2l-1-3.4l4.3-1.3h7.1l3.2,3.2v10.3l1,4.3l-3.1,0.8l-0.6-2.6l-1.9,2.2
			h-7L252.4,14.8z M256.3,13.4l1,1h4.3l1.8-2.1v-1.7h-6.1l-1,1V13.4z"/>
		<path d="M271.3,0.2l3.1-0.8l0.6,2.6l1.9-2.2h5.6l4,3.8L284,6.2l-3-2.9H278l-1.8,2.1V18h-3.8V4.5L271.3,0.2z"/>
		<path class="st0" d="M286.5,13.4l2.6-2.6l3.7,3.6h4.3l1.8-1.8v-15h-4.6v-3.5h8.5v19.9l-3.9,3.9h-7.7L286.5,13.4z"/>
		<path class="st0" d="M306,16.6l1.1-3.4l3.7,1.3h5.8l1.7-1.7v-2.3l-0.3-0.5l-11-5.5L306,2.3V-2l3.8-3.8h8.3l4.1,1.4l-1,3.3
			l-3.7-1.2h-5.9l-1.7,1.7v1.8l0.2,0.5L321,7.1l1.2,2.3v4.6l-3.8,3.9h-8.1L306,16.6z"/>
	</g>
</g>
</svg>
