<?xml version="1.0" encoding="utf-8"?>
<!-- Generator: Adobe Illustrator 19.1.1, SVG Export Plug-In . SVG Version: 6.00 Build 0)  -->
<svg version="1.1" id="babel_1_" xmlns="http://www.w3.org/2000/svg" xmlns:xlink="http://www.w3.org/1999/xlink" x="0px" y="0px"
	 viewBox="88 -6 114.5 46.3" style="enable-background:new 88 -6 114.5 46.3;" xml:space="preserve">
<style type="text/css">
	.st0{fill:#F9DC3E;}
</style>
<g id="babel">
	<path d="M166.1-0.9l0-0.2l-0.4,0l0,0.2L166.1-0.9z M168.7,5.4l0,0.1l0.3,0c0-0.1,0-0.2,0.1-0.4l0-0.2C168.9,4.9,168.8,5,168.7,5.4
		L168.7,5.4z M158.5,13.3c0-0.2-0.7-1.1-2.1-2.6c0-0.3,0.4-0.7,1.4-1.3l2.8-2.4c0.6-0.8,1-2.1,1.1-3.8l0-0.4c-0.1-1.2-1-2.2-2.7-3
		c-1-0.7-2.8-1-5.4-1.1c-2.1,0.2-4.9,0.9-8.4,2.3c-0.9,0.7-2,1.4-3.2,2l0,0.2c0.1,0,0.2,0,0.3-0.1c0.1,0,0.2,0,0.2,0.2l0.2-0.1
		l0.1,0l0,0.1c0,0.1-0.7,0.7-2.2,1.7l0.1,0.2l-0.1,0l-0.2-0.1c0,0.1-0.1,0.1-0.3,0.1l0,0.1l0.2,0.3c-0.1,0-0.2,0-0.3-0.1
		c-0.3,0-0.7,0.2-1,0.6l0.1-0.6c0.5-2.2,0.9-4.1,1-5.8l0-0.1c-0.3-0.2-0.7-0.5-1-0.9c0-0.3,0-0.4,0-0.4l0-0.1l-0.1,0
		c-1.1,1.6-3.2,4.4-6.3,8.4c-2.4,2.8-3.6,4.4-3.7,4.7c-1,1-1.4,1.6-1.4,1.8c-0.3,0.2-0.4,0.3-0.3,0.5c-0.1,0-0.1,0-0.1-0.1
		c-0.4,0.7-1,1.1-1.8,1.3l-0.9,0.2c-0.1,0-0.2,0.1-0.2,0.2l0,0.1l0.3-0.1l0,0.1l-0.7,0.3l-1.3,0.3l-0.7,0c-0.1,0.1,0.5,0,0.3,0
		l-0.8,0.2c-0.5,0.1-0.8,0.1-0.8-0.1l-0.1,0c0,0.1,0,0.2,0,0.2l0-0.2l-0.7,0.2c0-0.3-1-1.5-2.7-3.4c0-0.4,0.6-0.9,1.9-1.7l3.6-3.2
		c0.8-1,1.3-2.7,1.4-5l0-0.5c-0.1-1.6-1.3-2.9-3.5-3.9c-1.3-0.9-3.7-1.4-7-1.4c-2.8,0.2-6.5,1.2-11,3c-1.2,0.9-2.7,1.8-4.2,2.7
		l0,0.3c0.1,0,0.2-0.1,0.4-0.2c0.2,0,0.3,0.1,0.3,0.2L99.2,3l0.1,0l0,0.1c0,0.1-1,0.9-3,2.3l0.2,0.2l-0.1,0l-0.3-0.1
		c0,0.1-0.1,0.1-0.4,0.2l0,0.1L96,6.2c-0.1,0-0.3,0-0.4-0.1c-0.6,0.1-1.3,0.5-1.9,1.4l0.2,0.2C94.4,7.3,94.7,7,94.8,7l0,0.4
		c-0.1,0-0.2,0.1-0.4,0.2l0.3,0.5c0.6-0.7,1.4-1.3,2.2-1.8c0.4,0.1,0.6,0.2,0.6,0.4l0.3,0c2.1-1.6,4.2-2.7,6.3-3.4l0,0.3
		c-0.4,0.6-0.7,0.9-0.8,0.9c0,0.2,0.1,0.4,0.2,0.5c0,0.4-0.9,2.8-2.8,7.2c-4.4,10.3-8,17.9-11,22.9c0,0.1,0.1,0.2,0.2,0.4
		c0.7-0.2,1.2-0.4,1.4-0.5l0.2,0l0,0.3l0.3,0l0.3-0.2c0,0.1,0.1,0.1,0.3,0.1l0,0.3c0,0.3-0.1,0.7-0.5,1.3c-0.3,0.3-0.6,1-1,2.1
		l0,0.1l0.3,0c1.2-1.3,2.1-2.6,2.7-3.9c3.5-1,6.1-2,8-3c1.8-0.2,3.2-0.6,4.2-1.4l0-0.1l-0.7,0.2l-0.2,0l0-0.1
		c1.4-0.2,2.3-0.5,2.8-0.9c2.6-2,4.6-3.5,6-4.3c2.8-2,4.6-4,5.4-5.9c0.2,0,0.3-0.1,0.5-0.1c0.4,0,0.6,0,0.7,0c0-0.1,0-0.1,0.1-0.1
		c0.6-0.1,0.3,0,0.7,0l1-0.2c-0.1,0-0.1,0-0.1,0.1l0.2-0.1c0,0-0.1,0-0.1,0l0.2,0l-0.1,0c0.1,0,0.2,0,0.4,0l0.1,0.3l-4.7,7.5
		l-1.1,1.3l-0.5,1.7l0.1,0l0.5-0.2l-0.2,0.7l0,0.2l0.1,0.2c-0.1,0-0.1,0.1-0.1,0.1l0,0.1l0.2,0c0.3-0.3,0.4-0.5,0.4-0.7
		c0.3,0.1,0.6,0.1,0.7,0l0,0.1c-0.2,0-0.3,0.2-0.3,0.5l0,0.1l0.1,0c1.7-1.9,5.9-8.3,9.3-12.7c-0.1-0.5,1.7-1.1,5.3-2l0.1,0
		c0.1,0.6-0.1,2-0.8,4.1c-0.4,1.3-0.7,2.1-0.6,2.2c-0.6,1.8-0.9,2.7-0.8,2.9l-1.3,4.2c-0.8,2.2-1.5,4.4-1.9,6.8c0.1,0,0.2,0,0.4,0
		l0.2-0.2c0,0.1,0.1,0.1,0.1,0.1l-0.1-0.3l0.6,0c0.2,0,0.3-0.2,0.4-0.6c0-0.6,0.1-0.9,0.3-0.9c0.3-1.4,0.6-2,0.6-2.1
		c0.3-1.3,0.6-2.1,0.7-2.3c0.5-1.8,0.8-2.7,1.1-2.7l0,0.2l-0.4,0.9c-0.6,2.8-1.2,4.9-1.9,6.5l0.2,0.8l0.1,0
		c1.5-3.3,3.8-9.9,6.6-19.6c0.1-0.9,0.5-1.5,1.2-2l-0.2-0.2l0-0.1c0.3-0.1,0.6-0.2,0.7-0.4c0-0.1-0.3-0.2-0.9-0.3l1.4-6.2
		c0.3-0.3,0.5-0.4,0.6-0.4l0,0.3c-0.1,0-0.2,0-0.3,0.1l0.3,0.4c0.5-0.5,1-1,1.6-1.4c0.3,0.1,0.4,0.2,0.5,0.3l0.2,0
		c1.6-1.2,3.2-2.1,4.8-2.6l0,0.2c-0.3,0.4-0.5,0.7-0.6,0.7c0,0.1,0.1,0.3,0.1,0.4c0,0.3-0.7,2.1-2.1,5.5c-3.3,7.8-6.1,13.6-8.4,17.3
		c0,0.1,0.1,0.2,0.1,0.3c0.6-0.1,0.9-0.3,1-0.4l0.1,0l0,0.2l0.2,0l0.2-0.1c0,0.1,0.1,0.1,0.2,0.1l0,0.2c0,0.2-0.1,0.5-0.4,0.9
		c-0.2,0.3-0.5,0.8-0.8,1.6l0,0.1l0.2,0c0.9-1,1.6-2,2.1-3c2.6-0.8,4.6-1.5,6-2.3c1.4-0.1,2.5-0.5,3.2-1.1l0-0.1l-0.5,0.2l-0.1,0
		l0-0.1c1-0.1,1.7-0.4,2.1-0.7c2-1.5,3.5-2.6,4.5-3.3C157.2,17.6,158.7,15.4,158.5,13.3L158.5,13.3z M158,13.4l0.1,0.8
		c-0.1,0.2-0.2,0.3-0.3,0.3l-0.1-1.4C157.9,13.2,158,13.3,158,13.4L158,13.4z M95.4,6.7l-0.1,0l0-0.3l0.6,0l0,0.1
		C95.7,6.5,95.6,6.6,95.4,6.7L95.4,6.7z M92.6,34.5c-0.3-0.1-0.6-0.2-0.9-0.2l0-0.4c0-0.2,0.1-0.3,0.3-0.3c0.2,0,0.3,0.1,0.3,0.4
		c0.5-0.6,0.7-0.9,0.8-0.9l0.3,0.1C93.2,34.1,93,34.5,92.6,34.5z M122.4,3.4c-0.1,0-0.4-0.4-0.8-1.3l0-0.3c0.3,0,0.5,0.4,0.8,1.3
		L122.4,3.4z M122,0.3l-0.1,0.3l-4-1.7C120.5-1,121.9-0.5,122,0.3z M104.9,15l-0.6,0l0-0.3l0.6,0L104.9,15z M104.4,6.2l0.1,0l0,0.4
		c-0.1,0-0.3,0.2-0.5,0.6l0-0.3C104.3,6.6,104.4,6.3,104.4,6.2L104.4,6.2z M103.2,9l0,0.5l-0.1,0l0-0.5L103.2,9z M102.6,10l0.3,0
		c0,0.4-0.1,0.7-0.4,0.7l-0.1,0C102.5,10.4,102.6,10.2,102.6,10z M102.1,11.4l0.2,0l0,0.1L102,12l-0.3,0l0-0.1
		C102,11.8,102.1,11.7,102.1,11.4L102.1,11.4z M101.7,12.7l-0.1,0.7l-0.1,0l-0.1-0.7L101.7,12.7z M97,25.9c-0.2,0.9-0.4,1.4-0.6,1.4
		l0-0.1C96.4,26.7,96.6,26.3,97,25.9L97,25.9z M96.2,27.7l0,0.1c0,0.2-0.1,0.3-0.2,0.3l0-0.1C95.9,27.9,96,27.8,96.2,27.7z
		 M95.9,31.5l0.4,0l0,0.1c-0.1,0-0.2,0.1-0.4,0.2l-0.3,0C95.7,31.7,95.7,31.6,95.9,31.5L95.9,31.5L95.9,31.5z M108.2,27.8
		c-2.4,1.2-3.8,2-4.3,2.4c-2.6,0.9-3.9,1.5-3.9,1.7c-2.3,0.9-3.9,1.6-4.6,2c-0.2,0-0.4,0-0.8-0.2c0-0.5,0.2-0.9,0.6-1.2
		c0.4,0,0.8,0,1.2,0.2c0.4-0.2,1.2-0.5,2.2-0.7l0-0.3l-0.9,0.1c0.1-0.1,0.9-0.5,2.5-1.2l0.4,0l0,0.1c-0.7,0.1-1.1,0.3-1.2,0.7
		c0,0.2,0.1,0.2,0.3,0.2c0.6-0.3,0.8-0.6,0.8-0.6c1.1-0.2,4-1.7,8.7-4.6l0,0.3C109.4,26.8,109,27.2,108.2,27.8L108.2,27.8z
		 M100.9,30.2c0.7-0.1,1.3-0.3,1.8-0.8c0.2,0,0.3,0.1,0.3,0.2c-0.3,0-1,0.3-1.9,0.9l-0.1,0L100.9,30.2L100.9,30.2z M112.6,21.1
		L109,24c-2.7,1.8-4.2,2.7-4.4,2.7c-4.3,2.4-7,3.6-8,3.7l-0.2,0c0.1-0.5,2.1-4.4,5.8-11.8c1.6-0.1,4.2-0.9,7.7-2.3l0.9-0.1
		c1.8-0.2,3.1,0.2,4,1l0,0.5C114.1,19.7,113.4,20.8,112.6,21.1L112.6,21.1z M105.5,17.1l0.6,0l0,0.1l-0.6,0L105.5,17.1z M113.7,15.7
		l0.4,0c0.4,0.2,0.6,0.4,0.6,0.5l0,0.1C114.4,16.3,114.1,16.1,113.7,15.7z M114.9,9.1c-0.4,0.5-1.4,1.2-3.1,2.3
		c-0.6,0-2.7,0.9-6.3,2.4c-0.2-0.1-0.4-0.1-0.6-0.1l0-0.3c0-0.5,0.2-1.2,0.7-2c0.3-1.5,0.6-2.3,0.9-2.5l3-6.8c0-0.4,0.6-0.7,1.9-1
		l0.4,0l0,0.4c1.3-0.2,2.1-0.3,2.4-0.3c2.4-0.2,3.6,0.3,3.7,1.4l0.3,0L118.3,2l0.3,0c0.7,0.4,1.1,0.9,1.1,1.4c0,0.4-0.2,0.9-0.6,1.4
		c-0.2,0-0.3-0.1-0.3-0.4l-0.3,0l-0.1,0.8c-1.2,1.8-2.1,2.8-2.6,2.8C115.3,8.7,115,9.1,114.9,9.1z M116.8,13.8
		c-0.2-0.2-0.4-0.2-0.6-0.2l0-0.4l0.3,0l0.6,0.4C117,13.7,117,13.8,116.8,13.8L116.8,13.8z M118.7,16.1c0.3,0.1,0.4,0.2,0.5,0.3
		l-0.1,0l0,0c0,0-0.1,0-0.1,0l-0.2,0.2L118.7,16.1z M118.9,17.2l0-0.1l0.3-0.1l0,0.1L118.9,17.2z M119.7,18.2
		c0.4-0.1,0.5-0.1,1.2-0.2l0,0.1l-1.3,0.3C119.7,18.3,119.7,18.2,119.7,18.2z M120.9,18.7c-0.5,0-0.4,0-1.3,0.2l0-0.1l1.1-0.3
		l0.5-0.1l0,0.2C121,18.6,121.2,18.6,120.9,18.7z M122,18.4c-0.1,0-0.2,0-0.3-0.2l0.3-0.1c0.1,0,0.2,0,0.3,0.2L122,18.4L122,18.4z
		 M125.1,15.2l0-0.1l0.5-0.1l0,0.2L125.1,15.2z M128.3,35c0-0.1,0-0.3,0-0.3l0.1,0c0.1,0,0.2,0,0.3,0.1l0,0.1L128.3,35L128.3,35z
		 M130.6,16l-0.2,0c-0.4,0.1-0.7,0.3-0.9,0.3l-0.2,0c-0.1,0-0.2,0-0.3-0.1l1.5-0.3l0.5-0.2l0.2,0.2C130.8,15.9,130.7,15.9,130.6,16
		L130.6,16z M131.7,15.7l0-0.1c0.1,0,0.2-0.1,0.3-0.2l1.1-0.2l0,0.1C132.5,15.4,132.1,15.5,131.7,15.7L131.7,15.7z M131.9,13.5
		c-0.1,0-0.2,0.1-0.3,0.2c0-0.1-0.2-0.1-0.4,0c0-0.2,0.7-0.5,2.4-0.9l0.2,0l0,0.2C132.7,13.3,132,13.5,131.9,13.5L131.9,13.5z
		 M134.8,10.4c-0.1,1.3-0.6,2.1-1.4,2.2l0-0.1l-0.7,0.3l-0.3,0.1c-0.2,0-0.3,0-0.4,0l-0.1-0.3c0-0.1,1-1.6,3.2-4.4l0.2,0
		C135.3,8.6,135.2,9.3,134.8,10.4L134.8,10.4z M139.9,6L139.9,6l-0.1-0.2l0.4,0l0,0.1C140.2,5.9,140.1,5.9,139.9,6L139.9,6z
		 M137.8,27.1c-0.2-0.1-0.5-0.2-0.7-0.1l0-0.3c0-0.1,0.1-0.2,0.2-0.2c0.1,0,0.2,0.1,0.2,0.3c0.4-0.5,0.6-0.7,0.6-0.7l0.2,0.1
		C138.3,26.8,138.1,27.1,137.8,27.1L137.8,27.1z M160.4,3.5c-0.1,0-0.3-0.3-0.6-1l0-0.2c0.2,0,0.4,0.3,0.6,1L160.4,3.5L160.4,3.5z
		 M160.1,1.1L160,1.4L157,0.1C159,0.1,160.1,0.5,160.1,1.1z M147.1,12.3l-0.4,0l0-0.2l0.4,0L147.1,12.3L147.1,12.3z M146.8,5.6
		l0.1,0l0,0.3c-0.1,0-0.2,0.2-0.4,0.4l0-0.2C146.7,5.9,146.8,5.7,146.8,5.6L146.8,5.6z M145.9,7.7l0,0.4l-0.1,0l0-0.4L145.9,7.7z
		 M145.4,8.5l0.2,0c0,0.3-0.1,0.5-0.3,0.5l-0.1,0C145.3,8.8,145.4,8.6,145.4,8.5L145.4,8.5z M145,9.6L145,9.6l0.1,0.1L145,10l-0.2,0
		l0-0.1C145,9.9,145.1,9.8,145,9.6L145,9.6z M144.7,10.5l-0.1,0.5l-0.1,0l0-0.5L144.7,10.5L144.7,10.5z M141.2,20.6
		c-0.1,0.7-0.3,1.1-0.4,1.1l0-0.1C140.7,21.2,140.8,20.8,141.2,20.6z M140.5,21.9L140.5,21.9c0,0.2,0,0.3-0.2,0.3l0-0.1
		C140.3,22.1,140.4,22,140.5,21.9L140.5,21.9z M140.3,24.9l0.3,0l0,0.1c-0.1,0-0.2,0-0.3,0.1l-0.2,0C140.1,25,140.2,24.9,140.3,24.9
		L140.3,24.9z M149.6,22c-1.8,0.9-2.9,1.5-3.2,1.8c-2,0.7-3,1.1-3,1.3c-1.8,0.7-2.9,1.2-3.5,1.5c-0.1,0-0.3,0-0.6-0.2
		c0-0.4,0.1-0.6,0.5-0.9c0.3,0,0.6,0,0.9,0.1c0.3-0.2,0.9-0.3,1.7-0.6l0-0.2l-0.7,0c0.1-0.1,0.7-0.4,1.9-0.9l0.3,0l0,0.1
		c-0.6,0-0.9,0.2-0.9,0.5c0,0.1,0.1,0.2,0.2,0.2c0.4-0.3,0.6-0.4,0.6-0.5c0.8-0.1,3-1.3,6.6-3.5l0,0.2
		C150.5,21.3,150.2,21.5,149.6,22L149.6,22z M144.1,23.8c0.5,0,1-0.3,1.4-0.6c0.1,0,0.2,0,0.2,0.2c-0.2,0-0.7,0.2-1.5,0.6l-0.1,0
		L144.1,23.8L144.1,23.8z M153,16.9l-2.8,2.2c-2.1,1.3-3.2,2-3.3,2c-3.3,1.8-5.3,2.7-6.1,2.8l-0.1,0c0.1-0.4,1.6-3.4,4.4-9
		c1.2-0.1,3.2-0.7,5.9-1.8l0.7-0.1c1.3-0.1,2.4,0.1,3,0.8l0,0.4C154.2,15.8,153.6,16.7,153,16.9L153,16.9z M147.6,13.9l0.4,0l0,0.1
		l-0.4,0L147.6,13.9z M153.9,12.8l0.3,0c0.3,0.1,0.5,0.3,0.5,0.4l0,0.1C154.4,13.3,154.1,13.2,153.9,12.8z M154.7,7.8
		c-0.3,0.3-1.1,0.9-2.4,1.8c-0.4,0-2,0.7-4.8,1.8c-0.1,0-0.3-0.1-0.4-0.1l0-0.2c0-0.4,0.1-0.9,0.5-1.5c0.2-1.1,0.5-1.8,0.7-1.9
		l2.3-5.2c0-0.3,0.5-0.6,1.5-0.7l0.3,0l0,0.3c1-0.2,1.6-0.2,1.8-0.3c1.8-0.2,2.8,0.2,2.8,1.1l0.2,0l0-0.5l0.2,0
		c0.5,0.3,0.8,0.6,0.8,1c0,0.3-0.1,0.7-0.4,1.1c-0.1,0-0.2-0.1-0.2-0.3l-0.2,0l-0.1,0.6c-0.9,1.4-1.6,2.1-2,2.1
		C155.1,7.5,154.9,7.8,154.7,7.8L154.7,7.8z M155.7,11.2l0-0.3l0.2,0l0.5,0.3c0,0.1-0.1,0.2-0.2,0.2C156,11.3,155.8,11.2,155.7,11.2
		L155.7,11.2z M117.2,31.3l-0.2,0l-0.2,0.2c0,0.1,0.1,0.2,0.3,0.1c0.1,0,0.2-0.1,0.2-0.2L117.2,31.3z M116.4,29.7l0,0.1
		c0.1,0,0.2-0.1,0.2-0.2l0-0.1C116.4,29.5,116.4,29.6,116.4,29.7L116.4,29.7z M122.2,15.8l0.2-0.1l0-0.2l-0.2,0.1L122.2,15.8
		L122.2,15.8z M197.3,22.1c-2.5,0.6-2.8,0.5-3.4,0.5l0,0.2l0.2,0l0.1,0l0,0l0.3-0.1C197,22.4,197.3,22.5,197.3,22.1L197.3,22.1z
		 M183.7,23.9l0,0.2h0L183.7,23.9L183.7,23.9L183.7,23.9z M182.2,18.5l-0.2-0.1c-0.2,0.5-0.3,0.8-0.3,0.9l0,0.1
		C181.9,19.4,182,19.1,182.2,18.5z M197.8,22.1l0,0.2l0.4,0.1l0-0.2L197.8,22.1L197.8,22.1z M180.7,24.2l-0.6-0.1l-0.1,0.2l0,0.1
		l3.3-0.3l0-0.2L180.7,24.2L180.7,24.2z M179.1,16.9l0-0.1l-0.1,0l-0.2,0.1l0.1,0.2C179.1,17.1,179.2,17,179.1,16.9L179.1,16.9z
		 M199.3,20.6l0.2,0c0.1,0,0.1-0.1,0.1-0.2l-0.1-0.2c-0.6,0-0.8,0.1-1.3,0.3l0-0.1l-0.7,0.1c0-0.2-0.1-0.3-0.2-0.3l-0.4,0
		c-0.4,0-0.6,0-0.8,0.2c0-0.1,0-0.1-0.1-0.1l-0.4,0l-0.2,0.1c0-0.1,0-0.1-0.1-0.1l-0.1,0.1l0-0.1l-0.6,0l-0.1,0l0,0.2l0.3,0.1l0.3,0
		c0.1,0.1,0.2,0.1,0.3,0.1l0.2-0.1l0,0.1c-1.3,0.3-1.3,0.3-2.2,0.4c-0.1-0.1-0.2-0.1-0.2-0.1l0,0c-0.1,0-0.2-0.1-0.2-0.2l0.5-0.1
		c0,0,0.1,0,0.3,0.1c0.4-0.2,0.4-0.3,0.6-0.3l0-0.2c-1.3,0.2-0.8,0.1-2.4,0.2l-0.1,0l0-0.2c2.1-0.2,1.4-0.1,2.1-0.3
		c0,0.1,0,0.1,0.1,0.1c0.1-0.1,0.2-0.1,0.3-0.1l0.1,0c0.7-0.1,1,0.1,2.4-0.3l0,0.1l0.2-0.1l0.2,0c0-0.2,0.3-0.2,0.4-0.2l0-0.2
		c-2.5,0.5-3.2,0.4-3.8,0.6l0-0.1c-0.7,0.1-0.7,0.1-0.8,0.1c0,0-0.1,0-0.2,0.1c0-0.1,0-0.1-0.1-0.1c0,0,0,0,0,0l-2.1,0.3
		c0-0.1,0-0.1-0.1-0.1c-1.1,0.2-0.8,0.3-2.3,0.4c-0.1,0-0.2,0-0.3,0.1c0-0.1,0-0.1-0.1-0.1l-0.9,0.1l-0.6,0.1c0-0.1,0-0.1-0.1-0.1
		c-0.3,0.1-0.6,0.1-0.9,0.2h0c-0.1,0,0.1,0,0-0.1l-0.2,0.1c-0.3,0-0.1,0-1,0c-1.6,0.2-1.4,0.2-1.6,0.2l-0.6,0c0,0.1,0,0.1-0.1,0.1
		c-0.7-0.1-1-0.2-1-0.3c0.1-0.6,0.2-1,0.5-1l0.1,0l-0.1,0.2l0.1,0c0.2-0.1,0.3-0.2,0.3-0.3l0-0.2l-0.2,0l0-0.2c0-0.2,0-0.3,0.1-0.4
		L182,18l0,0.2l0.2,0l0-0.2l-0.1-0.2c0.2-0.1,0.3-0.2,0.4-0.2l0-0.1l-0.3,0l0-0.3c0.6-1.3,0.9-2.1,0.9-2.3l0.2,0.1
		c0.1,0,0.2-0.1,0.2-0.2l-0.2,0l0-0.1c0-0.2,0-0.3,0.1-0.4c0.3-0.4,0.5-0.7,0.5-1.1c0.1,0,0.1,0,0.1,0.1c0.3-0.2,0.5-0.6,0.7-1.3
		c0.5-0.9,1.2-2.8,2.2-5.5c1.8-4.9,1.7-5.4,2-6.6l-0.2,0c0,0.1,0,0.3-0.1,0.4c-0.1-0.1-0.3-0.1-0.3-0.1l0-0.1c0-0.4,0.1-0.9,0.5-1.5
		l0.1,0l0.2,0.7l0.2,0c0,0,0-0.3,0.2-0.9c0-0.1-0.1-0.2-0.3-0.2l-0.2,0.1c0-0.1,0-0.5,0-1.2l-0.1,0c-0.2-0.2-0.3-0.3-0.3-0.5
		l-1.2,0.1c0-0.1,0-0.2-0.1-0.4c0-0.1,0.3-0.2,0.8-0.3l0.2,0.1l0.2-0.1c0,0.1,0,0.1,0.1,0.1l0.2-0.1c0,0.1,0,0.1,0.1,0.1l0.1,0
		l0-0.2c-0.2,0-0.6,0-1.3,0L187.6-4l0-0.1c-5.5,0.5-8.7,0.7-9.5,0.8c-0.1,0-0.5,0-1.2,0c0,0.1-0.1,0.1-0.2,0.2l-0.2-0.1l-0.8,0.2
		c-0.2,0-0.5,0-1,0C174.6-3,174.4-3,174.2-3c-0.1,0,1.2-0.1,2.4-0.1C176.5-3,176.3-3,176-2.9c-0.2,0-0.3,0-0.5-0.1
		c-0.2,0.1-0.8,0.2-1.8,0.4l-0.2-0.1l-3.9,0.6c-0.1-0.1-0.3-0.1-0.5-0.1c-0.2,0-0.6,0.1-1,0.2l-1.9,0.8l0.1,0.2
		c0.1,0,0.2-0.1,0.4-0.1l0.7,0.1l-0.1,0.6c-0.6,0.3-1,0.7-1.1,1.2c-0.9,0.4-1.4,0.7-1.4,0.9l0,0.1l0.1,0l0.2-0.1l0.3,0.3l0,0.5
		c0,0.1-1.5,3.4-4.6,9.7c-2.7,6.1-4.1,9.5-4.2,10.1c-0.9,0.3-1.4,0.6-1.6,1.1c0,0.2,0.3,0.3,0.8,0.3l0,0.2l-0.2,0.4l0,0.5
		c0,0.2,0.7,0.4,2,0.6c0-0.1,0-0.1,0.1-0.1c0,0.3-0.1,0.9-0.2,1.7l0.1,0c0.5-0.7,0.8-1.3,0.8-1.5l0.1,0c0.1,0,0.3,0.1,0.4,0.5
		c-0.2,0.1-0.7,1.4-1.7,4l0.1,0.2l0.1,0c1.2-3.1,2-4.8,2.3-5.1c1.6-0.1,4.4-0.4,8.3-0.8l0.2-0.1c0,0.1,0.1,0.1,0.1,0.1l0.3,0
		l0.2-0.1c0,0.1,0.1,0.1,0.1,0.1l3-0.3c0.8-0.1,1.2-0.3,1.1-0.7c0-0.1,0.5-0.2,1.4-0.4c0.1,0,0.2,0,0.4,0.1c0-0.1,0.5-0.1,1.4-0.2
		c0-0.5,0.2-0.8,0.5-0.8l0-0.2c-0.3,0-0.6,0.1-0.9,0.2c-0.6,0-1-0.1-1.2-0.1c-0.2,0.1-0.3,0.1-0.4,0.1l-2.1,0.1l-0.2,0.1
		c0-0.1-0.1-0.1-0.1-0.1l-0.1,0l-0.3,0.1c0-0.1-0.2-0.1-0.7-0.2l-0.3,0.2l-0.5,0l0-0.1c2.7-0.3,4-0.7,3.9-1.1c0.2,0,0.3,0.1,0.3,0.2
		l0.8-0.2l0-0.2l-6.4,0.2c0,0.1,0,0.1-0.1,0.1l-0.8-0.1c-0.2,0-0.4,0.1-0.5,0.2l-0.3-0.1c-0.8,0.1-1.4,0.2-1.8,0.3
		c-0.5,0-1.1,0-1.8,0l-1.4,0.1l-0.7-0.1c0-0.4,0.8-2.5,2.5-6.2c0.5-1.3,0.9-2,1.4-2.3c0.1,0,0.2,0,0.4,0.1l1-0.3l0.5,0.1
		c0.9-0.1,1.9-0.3,3.1-0.8c0.3,0,0.5,0,0.7,0.1l0.8-0.2l2.3-0.2c1-0.1,2.1-0.3,3.2-0.7l0-0.2c-0.4,0-0.7,0-0.7-0.2
		c0-0.3-0.3-0.5-0.9-0.4l0-0.2l0.6-0.2l1.7-0.1l0-0.2c-0.1,0-0.4,0-1,0l0-0.3l0.6-0.1c0.2,0,0.2-0.1,0.2-0.3c-0.9,0-1.3,0-1.3-0.1
		c-6.1,0.3-9.1,0.4-9.1,0.2c-0.1,0-0.2,0.1-0.4,0.2l-0.2-0.2c1.6-3.4,2.5-5.1,2.8-5.2c0,0.1-0.1,0.3-0.2,0.6l0,0.1l0.3,0
		c0.6-1.5,1.2-2.3,1.6-2.3c1.9-0.2-0.3-0.3,3.8-0.9c0.2,0.1,0.3,0.1,0.4,0.1c1.6-0.3,3.8-0.7,6.7-1l0-0.2l-1.5,0.1l0-0.2
		c0.2,0,0.3-0.1,0.5-0.2l0,0.1c0.1,0,0.2-0.1,0.3-0.2c0.3,0,0.5,0,0.6,0.1c0.5-0.1,1-0.2,1.3-0.3l1-0.1c0.2-0.1,0.3-0.3,0.3-0.4
		l0-0.1c-0.2,0-0.5,0-0.8,0c0-0.1,0.1-0.2,0.2-0.3l1.8-0.2l0.8-0.2c0,0.1,0,0.1,0.1,0.1c0.1,0,0.2-0.1,0.3-0.2c0,0,0.1,0,0.1,0
		c-0.1,0.2-0.2,0.5-0.4,1l-0.2,0c0-0.2-0.1-0.3-0.1-0.4l-0.1,0c-2.1,6-3.1,8.8-5.1,13.4c-0.4,1.2-0.7,1.8-0.9,2
		c0,0.1,0.1,0.2,0.2,0.2c0,0.6-0.1,1.1-0.4,1.7c-0.9,2.6-1.5,4.1-1.8,4.4l0.2,1.2c0,0.1-0.1,0.2-0.2,0.2l-0.2,0
		c0-0.3-0.2-0.5-0.4-0.5l-0.1,0c-0.3,0.4-0.5,0.9-0.6,1.5l0.2,0c0.3-0.2,0.4-0.4,0.4-0.7l0.4,0l0.2,0.1c-0.2,0.3-0.3,0.6-0.3,0.8
		l0.1,0.2l-0.3,0.7l0,0.1c0.2,0,0.5,0.1,0.8,0.2c0.2,0,0.4-0.1,0.7-0.3c0.2,0,1.2,0,2.8,0l0.8-0.3c1,0,1.1,0,2-0.1l0.3,0l0.2-0.1
		l0,0.1c0.9-0.1,0.9,0,1.6,0.1l0,0.1l-0.5,0l0,0.2c0.1,0,0.3-0.1,0.4-0.1c0.1,0,0.2,0.1,0.2,0.2c-0.2,0-0.4,0.1-0.7,0.1l-0.2-0.1
		c-0.3,0.1-0.3,0.1-0.5,0.1l-0.3-0.1c0,0.1,0,0.1-0.1,0.1c0,0.1,0.1,0.2,0.2,0.2l0.3,0l1.8-0.2l0.7-0.1c0,0.1,0,0.1,0.1,0.1l0.3-0.1
		l0.6,0c0.5,0,0.5-0.1,1.5-0.2c0-0.1,0-0.1,0.1-0.1l0,0.1c1.7-0.3,1.8-0.3,2.1-0.4l0,0c0.4-0.1,0.2-0.1,0.3-0.2c0,0.1,0,0.1,0.1,0.1
		l0.3,0l0-0.2l-0.6,0l0,0c0,0,0,0-0.1,0H193v0c-0.4,0.1-0.4,0-0.7,0l-1.5,0.1l0-0.1l0.8-0.1l0.3,0l0.2-0.1l0,0.1
		c1.2-0.1,1.6,0.2,7.1-1c0.3,0,0.3-0.3,0.5-0.8c-0.1,0-0.2,0-0.3-0.1c-0.5,0.2-0.7,0.1-1.6,0.2c-0.1,0-0.1-0.1-0.2-0.2l0-0.1l0.8,0
		c0.2,0,0.5,0,0.9-0.3C199.4,20.5,199.3,20.6,199.3,20.6L199.3,20.6z M158.6,21.2l-0.4,0c0-0.2,0.2-0.8,0.6-1.8l0.3,0
		C159.1,19.7,159,20.3,158.6,21.2z M159.1,19.3l0-0.1c0-0.1,0.1-0.2,0.3-0.3l0,0.1C159.4,19.2,159.3,19.3,159.1,19.3z M164.3,23.3
		l0,0.1l-0.6,0.1l0-0.1L164.3,23.3L164.3,23.3z M163.5,23.3c0,0.1-0.2,0.3-0.6,0.4l-0.8-0.1l-0.3,0l0-0.2L163.5,23.3L163.5,23.3z
		 M168.7-0.8l-0.4,0l0-0.1c0-0.1,0.1-0.2,0.2-0.3l0.1,0L169-1C169-0.9,168.9-0.8,168.7-0.8z M174.6-1.9l0.1,0l0,0.2l-0.4,0
		C174.4-1.8,174.5-1.9,174.6-1.9z M173.1-1.4l-0.6-0.1l0-0.1c0.8-0.1,1-0.1,1.5-0.3c0,0.1,0.1,0.1,0.2,0.1l0,0.2l-0.2,0
		c-0.2,0-0.3,0-0.5-0.1C173.5-1.5,173.3-1.4,173.1-1.4L173.1-1.4z M173.9,0.7l0-0.1l1-0.1l0,0.1L173.9,0.7z M174.9-0.1l0-0.1l0.5,0
		l0,0.1L174.9-0.1z M175-1.7l-0.1,0L175-2l1.1-0.1l0,0.1C175.8-1.9,175.4-1.8,175-1.7z M175.5,0.6l0-0.2l0.5,0
		c0.2,0,0.2,0.1,0.2,0.2L175.5,0.6L175.5,0.6z M178.3-3.3l-0.6,0.2l-0.1,0c-0.3,0-0.6,0-1.1,0C177.3-3.2,178.1-3.2,178.3-3.3
		L178.3-3.3z M177.7-0.6l0,0.1l-0.8,0.1l0-0.1L177.7-0.6z M179.1,0c0-0.1-0.2-0.2-0.5-0.2l-0.8,0.2l-0.6,0c-0.1-0.1-0.2-0.2-0.2-0.2
		l0.7,0l1.6-0.3l0.8,0l0,0.1C179.7-0.2,179.3-0.1,179.1,0z M187.5-2.2c0.1,0,0.2,0,0.2,0c0.3-0.3,0.6-0.5,1-0.7
		c-0.3,1.3-0.8,2.3-1.4,2.9l-0.5-0.3C187.2-1.2,187.4-1.8,187.5-2.2L187.5-2.2z M186.1,0.3l0.1,0c-0.2,0.3-0.3,0.5-0.4,0.5l0-0.3
		C185.8,0.4,185.9,0.4,186.1,0.3z M185.1,2.5c0.2-0.9,0.4-1.4,0.6-1.5l0,0.1c-0.1,0.8-0.3,1.3-0.5,1.3l0,0.5
		c-0.2,0.3-0.3,0.5-0.3,0.7l-0.1,0l-0.1-0.7C185,2.8,185.1,2.7,185.1,2.5L185.1,2.5z M184.8,3.7c0,0.1-0.1,0.4-0.2,0.9l-0.1,0l0-0.3
		C184.6,3.9,184.7,3.7,184.8,3.7L184.8,3.7z M178.1,23L178.1,23l0.2-0.1l0,0.3C178.2,23.2,178.1,23.2,178.1,23z M187.6,23.3
		c0-0.1,0-0.1-0.1-0.1l-0.5,0l0-0.1h0l1.3-0.1l0,0.1C187.9,23.1,187.7,23.2,187.6,23.3z M187,23C187.1,23,187,23.1,187,23
		C187,23.1,186.9,23,187,23z M187.1,21.5l-0.7,0.1l0-0.1l0.6-0.1l0.6-0.1c0,0.1,0,0.1,0.1,0.1c0.7-0.1,0.6-0.1,0.9-0.2
		c0.1,0,0.2,0.1,0.2,0.2L187.1,21.5L187.1,21.5z M189.6,21.3c-0.4,0-0.4-0.1-0.7,0l0-0.1l0.6-0.1l0,0.1
		C189.4,21.2,189.7,21.2,189.6,21.3L189.6,21.3z M189.6,21.2L189.6,21.2l0.3-0.1l0,0.1L189.6,21.2z M190.4,21.1L190.4,21.1
		c0-0.1,0.1-0.1,0.2-0.2c0.2,0,0.3,0.1,0.3,0.2L190.4,21.1L190.4,21.1z M191.4,21l0-0.1l0.4,0l0,0.1L191.4,21z M191.9,21
		c0-0.1,0-0.2,0.1-0.2l0.1,0.2c0-0.1,0-0.1,0.1-0.1l0.1,0.2L191.9,21L191.9,21z M185.7,23.7l0-0.2l-0.1,0L185.7,23.7L185.7,23.7z
		 M200.2,19.9c0.1,0,0.1-0.1-0.1-0.1c-0.1,0.1,0.1,0.1-0.1,0.1l0,0.1C200.1,20,200.2,19.9,200.2,19.9l-0.1,0.1v0l-0.2,0.2l0.3-0.1h0
		L200.2,19.9L200.2,19.9z M200.8,20.4L200.8,20.4l0,0.2l0.5,0C201.3,20.4,200.9,20.4,200.8,20.4L200.8,20.4z M200.1,20L200.1,20
		L200.1,20C200.1,20,200.1,20,200.1,20L200.1,20z"/>
	<path class="st0" d="M168.3,4.7l0,0.1l0.3,0c0-0.1,0-0.2,0.1-0.4l0-0.2C168.6,4.2,168.5,4.4,168.3,4.7L168.3,4.7z M165.7-1.6l0-0.2
		l-0.4,0l0,0.2L165.7-1.6z M158.1,12.6c0-0.2-0.7-1.1-2.1-2.6c0-0.3,0.4-0.7,1.4-1.3l2.8-2.4c0.6-0.8,1-2.1,1.1-3.8l0-0.4
		c-0.1-1.2-1-2.2-2.7-3c-1-0.7-2.8-1-5.4-1.1c-2.1,0.2-4.9,0.9-8.4,2.3c-0.9,0.7-2,1.4-3.2,2l0,0.2c0.1,0,0.2,0,0.3-0.1
		c0.1,0,0.2,0,0.2,0.2l0.2-0.1l0.1,0l0,0.1c0,0.1-0.7,0.7-2.2,1.7l0.1,0.2l-0.1,0l-0.2-0.1c0,0.1-0.1,0.1-0.3,0.1l0,0.1l0.2,0.3
		c-0.1,0-0.2,0-0.3-0.1c-0.3,0-0.7,0.2-1,0.6l0.1-0.6c0.5-2.2,0.9-4.1,1-5.8l0-0.1c-0.3-0.2-0.7-0.5-1-0.9c0-0.3,0-0.4,0-0.4l0-0.1
		l-0.1,0c-1.1,1.6-3.2,4.4-6.3,8.4c-2.4,2.8-3.6,4.4-3.7,4.7c-1,1-1.4,1.6-1.4,1.8c-0.3,0.2-0.4,0.3-0.3,0.5c-0.1,0-0.1,0-0.1-0.1
		c-0.4,0.7-1,1.1-1.8,1.3l-0.9,0.2c-0.1,0-0.2,0.1-0.2,0.2l0,0.1l0.3-0.1l0,0.1l-0.7,0.3l-1.3,0.3l-0.7,0c-0.1,0.1,0.5,0,0.3,0
		l-0.8,0.2c-0.5,0.1-0.8,0.1-0.8-0.1l-0.1,0c0,0.1,0,0.2,0,0.2l0-0.2l-0.7,0.2c0-0.3-1-1.5-2.7-3.4c0-0.4,0.6-0.9,1.9-1.7l3.6-3.2
		c0.8-1,1.3-2.7,1.4-5l0-0.5c-0.1-1.6-1.3-2.9-3.5-3.9c-1.3-0.9-3.7-1.4-7-1.4c-2.8,0.2-6.5,1.2-11,3c-1.2,0.9-2.7,1.8-4.2,2.7
		l0,0.3c0.1,0,0.2-0.1,0.4-0.2c0.2,0,0.3,0.1,0.3,0.2l0.3-0.2l0.1,0l0,0.1c0,0.1-1,0.9-3,2.3L96.2,5L96,5l-0.3-0.1
		C95.7,5,95.6,5,95.3,5l0,0.1l0.3,0.4c-0.1,0-0.3,0-0.4-0.1c-0.6,0.1-1.3,0.5-1.9,1.4l0.2,0.2c0.5-0.5,0.9-0.7,0.9-0.8l0,0.4
		c-0.1,0-0.2,0.1-0.4,0.2l0.3,0.5c0.6-0.7,1.4-1.3,2.2-1.8c0.4,0.1,0.6,0.2,0.6,0.4l0.3,0c2.1-1.6,4.2-2.7,6.3-3.4l0,0.3
		c-0.4,0.6-0.7,0.9-0.8,0.9c0,0.2,0.1,0.4,0.2,0.5c0,0.4-0.9,2.8-2.8,7.2c-4.4,10.3-8,17.9-11,22.9c0,0.1,0.1,0.2,0.2,0.4
		c0.7-0.2,1.2-0.4,1.4-0.5l0.2,0l0,0.3l0.3,0l0.3-0.2c0,0.1,0.1,0.1,0.3,0.1l0,0.3c0,0.3-0.1,0.7-0.5,1.3c-0.3,0.3-0.6,1.1-1,2.1
		l0,0.1l0.3,0c1.2-1.3,2.1-2.6,2.7-3.9c3.5-1,6.1-2,8-3c1.8-0.2,3.2-0.6,4.2-1.4l0-0.1l-0.7,0.2l-0.2,0l0-0.1
		c1.4-0.2,2.3-0.5,2.8-0.9c2.6-2,4.6-3.5,6-4.3c2.8-2,4.6-4,5.4-5.9c0.1,0,0.3-0.1,0.5-0.1c0.4,0,0.6,0,0.7,0c0-0.1,0-0.1,0.1-0.1
		c0.6-0.1,0.3,0,0.7,0l1-0.2l0.2,0l-0.1,0c0.1,0,0.2,0,0.4,0l0.1,0.3l-4.7,7.5l-1,1.3l-0.5,1.7l0.1,0l0.5-0.2l-0.2,0.7l0,0.2
		l0.1,0.2c-0.1,0-0.1,0.1-0.1,0.1l0,0.1l0.2,0c0.3-0.3,0.4-0.5,0.4-0.7c0.3,0.1,0.6,0.1,0.7,0l0,0.1c-0.2,0-0.3,0.2-0.3,0.5l0,0.1
		l0.1,0c1.7-1.9,5.9-8.3,9.3-12.7c-0.1-0.5,1.7-1.1,5.3-2l0.1,0c0.1,0.6-0.1,2-0.8,4.1c-0.4,1.3-0.7,2.1-0.6,2.2
		c-0.6,1.8-0.9,2.7-0.8,2.9l-1.3,4.2c-0.8,2.2-1.5,4.4-1.9,6.8c0.1,0,0.2,0,0.4,0l0.2-0.2c0,0.1,0.1,0.1,0.1,0.1l-0.1-0.3l0.6,0
		c0.2,0,0.3-0.2,0.4-0.6c0-0.6,0.1-0.9,0.3-0.9c0.3-1.4,0.6-2,0.6-2.1c0.3-1.3,0.6-2.1,0.7-2.3c0.5-1.8,0.8-2.7,1.1-2.7l0,0.2
		l-0.4,0.9c-0.6,2.8-1.2,4.9-1.9,6.5l0.2,0.8l0.1,0c1.5-3.3,3.8-9.9,6.6-19.6c0.1-0.9,0.5-1.5,1.2-2l-0.2-0.2l0-0.1
		c0.3-0.1,0.6-0.2,0.7-0.4c0-0.1-0.3-0.2-0.9-0.3l1.4-6.2c0.3-0.3,0.5-0.4,0.6-0.4l0,0.3c-0.1,0-0.2,0-0.3,0.1l0.3,0.4
		c0.5-0.5,1-1,1.6-1.4c0.3,0.1,0.4,0.2,0.5,0.3l0.2,0c1.6-1.2,3.2-2.1,4.8-2.6l0,0.2c-0.3,0.4-0.5,0.7-0.6,0.7
		c0,0.1,0.1,0.3,0.1,0.4c0,0.3-0.7,2.1-2.1,5.5c-3.3,7.8-6.1,13.6-8.4,17.3c0,0.1,0.1,0.2,0.1,0.3c0.6-0.1,0.9-0.3,1.1-0.4l0.1,0
		l0,0.2l0.2,0l0.2-0.1c0,0.1,0.1,0.1,0.2,0.1l0,0.2c0,0.2-0.1,0.5-0.4,0.9c-0.2,0.3-0.5,0.8-0.8,1.6l0,0.1l0.2,0c0.9-1,1.6-2,2.1-3
		c2.6-0.8,4.6-1.5,6-2.3c1.4-0.1,2.5-0.5,3.2-1.1l0-0.1l-0.5,0.2l-0.1,0l0-0.1c1-0.1,1.7-0.4,2.1-0.7c2-1.5,3.5-2.6,4.5-3.3
		C156.8,17,158.3,14.7,158.1,12.6L158.1,12.6z M157.6,12.7l0.1,0.8c-0.1,0.2-0.2,0.3-0.3,0.3l-0.1-1.4
		C157.5,12.6,157.6,12.6,157.6,12.7L157.6,12.7z M95,6l-0.1,0l0-0.3l0.6,0l0,0.1C95.3,5.9,95.2,5.9,95,6L95,6z M92.2,33.9
		c-0.3-0.1-0.6-0.2-0.9-0.2l0-0.4c0-0.2,0.1-0.3,0.3-0.3c0.2,0,0.3,0.1,0.3,0.4c0.5-0.6,0.7-0.9,0.8-0.9l0.3,0.1
		C92.9,33.4,92.6,33.9,92.2,33.9z M122,2.7c-0.1,0-0.4-0.4-0.8-1.3l0-0.3c0.3,0,0.5,0.4,0.8,1.3L122,2.7z M121.6-0.3l-0.1,0.3
		l-4-1.7C120.1-1.7,121.5-1.2,121.6-0.3z M104.5,14.3l-0.6,0l0-0.3l0.6,0L104.5,14.3z M104.1,5.5l0.1,0l0,0.4
		c-0.1,0-0.3,0.2-0.5,0.6l0-0.3C103.9,5.9,104.1,5.7,104.1,5.5L104.1,5.5z M102.9,8.3l0,0.5l-0.1,0l0-0.5L102.9,8.3z M102.2,9.3
		l0.3,0c0,0.4-0.1,0.7-0.4,0.7l-0.1,0C102.2,9.7,102.2,9.5,102.2,9.3z M101.8,10.8l0.2,0l0,0.1l-0.3,0.4l-0.3,0l0-0.1
		C101.7,11.2,101.8,11,101.8,10.8L101.8,10.8z M101.3,12l-0.1,0.7l-0.1,0L101,12L101.3,12z M96.7,25.2c-0.2,0.9-0.4,1.4-0.6,1.4
		l0-0.1C96,26,96.2,25.6,96.7,25.2L96.7,25.2z M95.8,27.1l0,0.1c0,0.2-0.1,0.3-0.2,0.3l0-0.1C95.5,27.2,95.6,27.1,95.8,27.1z
		 M95.6,30.9l0.4,0l0,0.1c-0.1,0-0.2,0.1-0.4,0.2l-0.3,0C95.3,31,95.4,30.9,95.6,30.9L95.6,30.9z M107.8,27.1
		c-2.4,1.2-3.8,2-4.3,2.4c-2.6,0.9-3.9,1.5-3.9,1.7c-2.3,0.9-3.9,1.6-4.6,2c-0.2,0-0.4,0-0.8-0.2c0-0.5,0.2-0.9,0.6-1.2
		c0.4,0,0.8,0,1.2,0.2c0.4-0.2,1.2-0.5,2.2-0.7l0-0.3l-0.9,0.1c0.1-0.1,0.9-0.5,2.5-1.2l0.4,0l0,0.1c-0.7,0.1-1.1,0.3-1.2,0.7
		c0,0.2,0.1,0.2,0.3,0.2c0.6-0.3,0.8-0.6,0.8-0.6c1-0.2,4-1.7,8.7-4.6l0,0.3C109,26.2,108.6,26.5,107.8,27.1z M100.5,29.5
		c0.7-0.1,1.3-0.3,1.8-0.8c0.2,0,0.3,0.1,0.3,0.2c-0.3,0-1,0.3-1.9,0.9l-0.1,0L100.5,29.5L100.5,29.5z M112.3,20.5l-3.6,2.9
		c-2.7,1.8-4.2,2.7-4.4,2.7c-4.3,2.4-7,3.6-8,3.7l-0.2,0c0.1-0.5,2.1-4.4,5.8-11.8c1.6-0.1,4.2-0.9,7.7-2.3l0.9-0.1
		c1.8-0.2,3.1,0.2,4,1l0,0.5C113.8,19,113,20.1,112.3,20.5L112.3,20.5z M105.1,16.5l0.6,0l0,0.1l-0.6,0L105.1,16.5z M113.4,15.1
		l0.4,0c0.4,0.2,0.6,0.4,0.6,0.5l0,0.1C114.1,15.7,113.7,15.5,113.4,15.1z M114.5,8.4c-0.4,0.5-1.4,1.2-3.1,2.3
		c-0.6,0-2.7,0.9-6.3,2.4c-0.2-0.1-0.4-0.1-0.6-0.1l0-0.3c0-0.5,0.2-1.2,0.7-2c0.3-1.5,0.6-2.3,0.9-2.5l3-6.8c0-0.4,0.6-0.7,1.9-1
		l0.4,0l0,0.4c1.3-0.2,2.1-0.3,2.4-0.3c2.4-0.2,3.6,0.3,3.7,1.4l0.3,0L118,1.3l0.3,0c0.7,0.4,1.1,0.9,1.1,1.4c0,0.4-0.2,0.9-0.6,1.4
		c-0.2,0-0.3-0.1-0.3-0.4l-0.3,0l-0.1,0.8c-1.2,1.8-2.1,2.8-2.6,2.8C115,8.1,114.7,8.4,114.5,8.4L114.5,8.4z M116.4,13.2
		c-0.2-0.2-0.4-0.2-0.6-0.2l0-0.4l0.3,0l0.6,0.4C116.7,13.1,116.6,13.2,116.4,13.2L116.4,13.2z M118.3,15.4c0.3,0.1,0.4,0.2,0.5,0.3
		l-0.1,0l0,0c0,0-0.1,0-0.1,0l-0.2,0.2L118.3,15.4L118.3,15.4z M118.5,16.6l0-0.1l0.3-0.1l0,0.1L118.5,16.6L118.5,16.6z M119.3,17.5
		c0.4-0.1,0.5-0.1,1.2-0.2l0,0.1l-1.3,0.3C119.3,17.6,119.3,17.6,119.3,17.5L119.3,17.5z M120.6,18c-0.5,0-0.4,0-1.3,0.2l0-0.1
		l1.1-0.3l0.5-0.1l0,0.2C120.7,17.9,120.8,17.9,120.6,18z M121.7,17.8c-0.1,0-0.2,0-0.3-0.2l0.3-0.1c0.1,0,0.2,0,0.3,0.2L121.7,17.8
		L121.7,17.8z M124.7,14.5l0-0.1l0.5-0.1l0,0.2L124.7,14.5z M127.9,34.3c0-0.1,0-0.3,0-0.3l0.1,0c0.1,0,0.2,0,0.3,0.1l0,0.1
		L127.9,34.3L127.9,34.3z M130.2,15.4l-0.2,0c-0.4,0.1-0.7,0.3-0.9,0.3l-0.2,0c-0.1,0-0.2,0-0.3-0.1l1.5-0.3l0.5-0.2l0.2,0.2
		C130.5,15.2,130.3,15.3,130.2,15.4L130.2,15.4z M131.4,15l0-0.1c0.1,0,0.2-0.1,0.3-0.2l1.1-0.2l0,0.1
		C132.1,14.7,131.7,14.8,131.4,15z M131.5,12.8c-0.1,0-0.2,0.1-0.3,0.2c0-0.1-0.2-0.1-0.4,0c0-0.2,0.7-0.5,2.4-0.9l0.2,0l0,0.2
		C132.3,12.6,131.6,12.8,131.5,12.8L131.5,12.8z M134.4,9.7c-0.1,1.3-0.6,2.1-1.4,2.2l0-0.1l-0.7,0.3l-0.3,0.1c-0.2,0-0.3,0-0.4,0
		l-0.1-0.3c0-0.1,1-1.6,3.2-4.4l0.2,0C134.9,8,134.8,8.7,134.4,9.7L134.4,9.7z M139.5,5.3L139.5,5.3l-0.1-0.2l0.4,0l0,0.1
		C139.8,5.2,139.7,5.2,139.5,5.3z M137.4,26.5c-0.2-0.1-0.5-0.2-0.7-0.1l0-0.3c0-0.1,0.1-0.2,0.2-0.2c0.1,0,0.2,0.1,0.2,0.3
		c0.4-0.5,0.6-0.7,0.6-0.7l0.2,0.1C137.9,26.1,137.7,26.5,137.4,26.5z M160,2.8c-0.1,0-0.3-0.3-0.6-1l0-0.2c0.2,0,0.4,0.3,0.6,1
		L160,2.8L160,2.8z M159.7,0.5l-0.1,0.2l-3.1-1.3C158.6-0.5,159.7-0.2,159.7,0.5z M146.8,11.6l-0.4,0l0-0.2l0.4,0L146.8,11.6z
		 M146.4,4.9l0.1,0l0,0.3c-0.1,0-0.2,0.2-0.4,0.4l0-0.2C146.3,5.2,146.4,5,146.4,4.9L146.4,4.9z M145.5,7.1l0,0.4l-0.1,0l0-0.4
		L145.5,7.1z M145,7.8l0.2,0c0,0.3-0.1,0.5-0.3,0.5l-0.1,0C145,8.1,145,8,145,7.8L145,7.8z M144.7,8.9L144.7,8.9l0.1,0.1l-0.2,0.3
		l-0.2,0l0-0.1C144.6,9.2,144.7,9.1,144.7,8.9L144.7,8.9z M144.3,9.9l-0.1,0.5l-0.1,0l0-0.5L144.3,9.9L144.3,9.9z M140.8,19.9
		c-0.1,0.7-0.3,1.1-0.4,1.1l0-0.1C140.3,20.5,140.5,20.2,140.8,19.9L140.8,19.9z M140.1,21.3L140.1,21.3c0,0.2,0,0.3-0.2,0.3l0-0.1
		C139.9,21.4,140,21.3,140.1,21.3L140.1,21.3z M140,24.2l0.3,0l0,0.1c-0.1,0-0.2,0-0.3,0.1l-0.2,0C139.8,24.3,139.8,24.2,140,24.2
		L140,24.2z M149.2,21.3c-1.8,0.9-2.9,1.5-3.2,1.8c-2,0.7-3,1.1-3,1.3c-1.8,0.7-2.9,1.2-3.5,1.5c-0.1,0-0.3,0-0.6-0.2
		c0-0.4,0.1-0.6,0.5-0.9c0.3,0,0.6,0,0.9,0.1c0.3-0.2,0.9-0.3,1.7-0.6l0-0.2l-0.7,0.1c0.1-0.1,0.7-0.4,1.9-0.9l0.3,0l0,0.1
		c-0.6,0-0.9,0.2-0.9,0.5c0,0.1,0.1,0.2,0.2,0.2c0.4-0.3,0.6-0.4,0.6-0.5c0.8-0.1,3-1.3,6.6-3.5l0,0.2
		C150.2,20.6,149.9,20.9,149.2,21.3L149.2,21.3z M143.7,23.1c0.5,0,1-0.3,1.4-0.6c0.1,0,0.2,0,0.2,0.2c-0.2,0-0.7,0.2-1.5,0.6
		l-0.1,0L143.7,23.1L143.7,23.1z M152.7,16.3l-2.8,2.2c-2.1,1.3-3.2,2-3.3,2c-3.3,1.8-5.3,2.7-6.1,2.8l-0.1,0c0.1-0.4,1.6-3.4,4.4-9
		c1.2-0.1,3.2-0.7,5.9-1.8l0.7-0.1c1.3-0.1,2.4,0.1,3,0.8l0,0.4C153.8,15.2,153.2,16,152.7,16.3L152.7,16.3z M147.2,13.2l0.4,0
		l0,0.1l-0.4,0L147.2,13.2z M153.5,12.2l0.3,0c0.3,0.1,0.5,0.3,0.5,0.4l0,0.1C154,12.6,153.8,12.5,153.5,12.2z M154.4,7.1
		c-0.3,0.3-1.1,0.9-2.4,1.8c-0.4,0-2,0.7-4.8,1.8c-0.1,0-0.3-0.1-0.4-0.1l0-0.2c0-0.4,0.1-0.9,0.5-1.5c0.2-1.1,0.5-1.8,0.7-1.9
		l2.3-5.2c0-0.3,0.5-0.6,1.5-0.7l0.3,0l0,0.3c1-0.2,1.6-0.2,1.8-0.3c1.8-0.2,2.8,0.2,2.8,1.1l0.2,0l0-0.5l0.2,0
		c0.5,0.3,0.8,0.6,0.8,1c0,0.3-0.1,0.7-0.4,1.1c-0.1,0-0.2-0.1-0.2-0.3l-0.2,0l-0.1,0.6c-0.9,1.4-1.6,2.1-2,2.1
		C154.7,6.9,154.5,7.1,154.4,7.1L154.4,7.1z M155.3,10.6l0-0.3l0.2,0l0.5,0.3c0,0.1-0.1,0.2-0.2,0.2
		C155.6,10.6,155.4,10.6,155.3,10.6L155.3,10.6z M116.8,30.7l-0.2,0l-0.2,0.2c0,0.1,0.1,0.2,0.3,0.1c0.1,0,0.2-0.1,0.2-0.2
		L116.8,30.7L116.8,30.7z M116,29l0,0.1c0.1,0,0.2-0.1,0.2-0.2l0-0.1C116.1,28.8,116,28.9,116,29L116,29z M121.9,18l0.2-0.1
		c0,0-0.1,0-0.1,0C121.9,17.9,121.9,18,121.9,18z M121.9,15.2l0.2-0.1l0-0.2l-0.2,0.1L121.9,15.2z M180.3,23.5l-0.6-0.1l-0.1,0.2
		l0,0.1l3.3-0.3l0-0.2L180.3,23.5z M183.3,23.3l0,0.2h0L183.3,23.3L183.3,23.3z M197.4,21.4l0,0.2l0.4,0.1l0-0.2L197.4,21.4z
		 M196.9,21.5c-2.5,0.6-2.8,0.5-3.4,0.5l0,0.2l0.2,0l0.1,0l0,0l0.3-0.1C196.6,21.8,196.9,21.9,196.9,21.5L196.9,21.5z M181.8,17.8
		l-0.2-0.1c-0.2,0.5-0.3,0.8-0.3,0.9l0,0.1C181.5,18.7,181.6,18.4,181.8,17.8z M178.8,16.2l0-0.1l-0.1,0l-0.2,0.1l0.1,0.2
		C178.7,16.4,178.8,16.3,178.8,16.2L178.8,16.2z M185.3,23l0-0.2l-0.1,0L185.3,23L185.3,23L185.3,23z M199,19.9l0.2,0
		c0.1,0,0.1-0.1,0.1-0.2l-0.1-0.2c-0.6,0-0.8,0.1-1.3,0.3l0-0.1l-0.7,0.1c0-0.2-0.1-0.3-0.2-0.3l-0.4,0c-0.4,0-0.6,0-0.8,0.2
		c0-0.1,0-0.1-0.1-0.1l-0.4,0l-0.2,0.1c0-0.1,0-0.1-0.1-0.1l-0.1,0.1l0-0.1l-0.6,0l-0.1,0l0,0.2l0.3,0.1l0.3,0
		c0.1,0.1,0.2,0.1,0.3,0.1l0.2-0.1l0,0.1c-1.3,0.3-1.3,0.3-2.2,0.4c-0.1-0.1-0.2-0.1-0.2-0.1l0,0c-0.1,0-0.2-0.1-0.2-0.2l0.5-0.1
		c0,0,0.1,0,0.3,0.1c0.4-0.2,0.4-0.3,0.6-0.3l0-0.2c-1.3,0.2-0.8,0.1-2.4,0.2l-0.1,0l0-0.2c2.1-0.2,1.4-0.1,2.1-0.3
		c0,0.1,0,0.1,0.1,0.1c0.1-0.1,0.2-0.1,0.3-0.1l0.1,0c0.7-0.1,1,0.1,2.4-0.3l0,0.1l0.2-0.1l0.2,0c0-0.2,0.3-0.2,0.4-0.2l0-0.2
		c-2.5,0.5-3.2,0.4-3.8,0.6l0-0.1c-0.7,0.1-0.7,0.1-0.8,0.1c0,0-0.1,0-0.2,0.1c0-0.1,0-0.1-0.1-0.1c0,0,0,0,0,0l-2.1,0.3
		c0-0.1,0-0.1-0.1-0.1c-1.1,0.2-0.8,0.3-2.3,0.4c-0.1,0-0.2,0-0.3,0.1c0-0.1,0-0.1-0.1-0.1l-0.9,0.1L186,20c0-0.1,0-0.1-0.1-0.1
		c-0.3,0.1-0.6,0.1-0.9,0.2h0c-0.1,0,0.1,0,0-0.1l-0.2,0.1c-0.3,0-0.1,0-1,0c-1.6,0.2-1.4,0.2-1.6,0.2l-0.6,0c0,0.1,0,0.1-0.1,0.1
		c-0.7-0.1-1-0.2-1-0.3c0.1-0.6,0.2-1,0.5-1l0.1,0l-0.1,0.2l0.1,0c0.2-0.1,0.3-0.2,0.3-0.3l0-0.2l-0.2,0l0-0.2c0-0.2,0-0.3,0.1-0.4
		l0.5-0.8l0,0.2l0.2,0l0-0.2l-0.1-0.2c0.2-0.1,0.3-0.2,0.4-0.2l0-0.1l-0.3,0l0-0.3c0.6-1.3,0.9-2.1,0.9-2.3l0.2,0.1
		c0.1,0,0.2-0.1,0.2-0.2l-0.2,0l0-0.1c0-0.2,0-0.3,0.1-0.4c0.3-0.4,0.5-0.7,0.5-1.1c0.1,0,0.1,0,0.1,0.1c0.3-0.2,0.5-0.6,0.7-1.3
		c0.5-0.9,1.2-2.8,2.2-5.5c1.8-4.9,1.7-5.4,2-6.6l-0.2,0c0,0.1,0,0.3-0.1,0.4c-0.1-0.1-0.3-0.1-0.3-0.1l0-0.1c0-0.4,0.1-0.9,0.5-1.5
		l0.1,0l0.2,0.7l0.2,0c0,0,0-0.3,0.2-0.9c0-0.1-0.1-0.2-0.3-0.2l-0.2,0.1c0-0.1,0-0.5,0-1.2l-0.1,0c-0.2-0.2-0.3-0.3-0.3-0.5
		L187-3.9c0-0.1,0-0.2-0.1-0.4c0-0.1,0.3-0.2,0.8-0.3l0.2,0.1l0.2-0.1c0,0.1,0,0.1,0.1,0.1l0.2-0.1c0,0.1,0,0.1,0.1,0.1l0.1,0l0-0.2
		c-0.2,0-0.6,0-1.3,0l-0.2,0.1l0-0.1c-5.5,0.5-8.7,0.7-9.5,0.8c-0.1,0-0.5,0-1.2,0c0,0.1-0.1,0.1-0.2,0.2L176.1-4l-0.8,0.2
		c-0.2,0-0.5,0-1,0c-0.1,0.1-0.3,0.2-0.5,0.2c-0.1,0,1.2-0.1,2.4-0.1c-0.1,0.1-0.3,0.2-0.6,0.2c-0.2,0-0.3,0-0.5-0.1
		c-0.2,0.1-0.8,0.2-1.8,0.4l-0.2-0.1l-3.9,0.6c-0.1-0.1-0.3-0.1-0.5-0.1c-0.2,0-0.6,0.1-1,0.2l-1.9,0.8l0.1,0.2
		c0.1,0,0.2-0.1,0.4-0.1l0.7,0.1L167-1.1c-0.6,0.3-1,0.7-1.1,1.2c-0.9,0.4-1.4,0.7-1.4,0.9l0,0.1l0.1,0l0.2-0.1l0.3,0.3l0,0.5
		c0,0.1-1.5,3.4-4.6,9.7c-2.7,6.1-4.1,9.5-4.2,10.1c-0.9,0.3-1.4,0.6-1.6,1.1c0,0.2,0.3,0.3,0.8,0.3l0,0.2l-0.2,0.4l0,0.5
		c0,0.2,0.7,0.4,2,0.6c0-0.1,0-0.1,0.1-0.1c0,0.3-0.1,0.9-0.2,1.7l0.1,0c0.5-0.7,0.8-1.3,0.8-1.5l0.1,0c0.1,0,0.3,0.1,0.4,0.5
		c-0.2,0.1-0.7,1.4-1.7,4l0.1,0.2l0.1,0c1.2-3.1,2-4.8,2.3-5.1c1.6-0.1,4.4-0.4,8.3-0.8l0.2-0.1c0,0.1,0.1,0.1,0.1,0.1l0.3,0
		l0.2-0.1c0,0.1,0.1,0.1,0.1,0.1l3-0.3c0.8-0.1,1.2-0.3,1.1-0.7c0-0.1,0.5-0.2,1.4-0.4c0.1,0,0.2,0,0.4,0.1c0-0.1,0.5-0.1,1.4-0.2
		c0-0.5,0.2-0.8,0.5-0.8l0-0.2c-0.3,0-0.6,0.1-0.9,0.2c-0.6,0-1-0.1-1.2-0.1c-0.2,0.1-0.3,0.1-0.4,0.1l-2.1,0.1l-0.2,0.1
		c0-0.1-0.1-0.1-0.1-0.1l-0.1,0l-0.3,0.1c0-0.1-0.2-0.1-0.7-0.2l-0.3,0.2l-0.5,0l0-0.1c2.7-0.3,4-0.7,3.9-1.1c0.2,0,0.3,0.1,0.3,0.2
		l0.8-0.2l0-0.2l-6.4,0.2c0,0.1,0,0.1-0.1,0.1l-0.8-0.1c-0.2,0-0.4,0.1-0.5,0.2l-0.3-0.1c-0.8,0.1-1.4,0.2-1.8,0.3
		c-0.5,0-1.1,0-1.8,0l-1.4,0.1l-0.7-0.1c0-0.4,0.8-2.5,2.5-6.2c0.5-1.3,0.9-2,1.4-2.3c0.1,0,0.2,0,0.4,0.1l1-0.3l0.5,0.1
		c0.9-0.1,1.9-0.3,3.1-0.8c0.3,0,0.5,0,0.7,0.1l0.8-0.2l2.3-0.2c1-0.1,2.1-0.3,3.2-0.7l0-0.2c-0.4,0-0.7,0-0.7-0.2
		c0-0.3-0.3-0.5-0.9-0.4l0-0.2l0.6-0.2l1.7-0.1l0-0.2c-0.1,0-0.4,0-1,0l0-0.3l0.6-0.1c0.2,0,0.2-0.1,0.2-0.3c-0.9,0-1.3,0-1.3-0.1
		C170.1,8,167,8.1,167,7.9c-0.1,0-0.2,0.1-0.4,0.2l-0.2-0.2c1.6-3.4,2.5-5.1,2.8-5.2c0,0.1-0.1,0.3-0.2,0.6l0,0.1l0.3,0
		c0.6-1.5,1.2-2.3,1.6-2.3c1.9-0.2-0.3-0.3,3.8-0.9c0.2,0.1,0.3,0.1,0.4,0.1c1.6-0.3,3.8-0.7,6.7-1l0-0.2l-1.5,0.1l0-0.2
		c0.2,0,0.3-0.1,0.5-0.2l0,0.1c0.1,0,0.2-0.1,0.3-0.2c0.3,0,0.5,0,0.6,0.1c0.5-0.1,1-0.2,1.3-0.3l1-0.1c0.2-0.1,0.3-0.3,0.3-0.4
		l0-0.1c-0.2,0-0.5,0-0.8,0c0-0.1,0.1-0.2,0.2-0.3l1.8-0.2l0.8-0.2c0,0.1,0,0.1,0.1,0.1c0.1,0,0.2-0.1,0.3-0.2c0,0,0.1,0,0.1,0
		c-0.1,0.2-0.2,0.5-0.4,1l-0.2,0c0-0.2-0.1-0.3-0.1-0.4l-0.1,0c-2.1,6-3.1,8.8-5.1,13.4c-0.4,1.2-0.7,1.8-0.9,2
		c0,0.1,0.1,0.2,0.2,0.2c0,0.6-0.1,1.1-0.4,1.7c-0.9,2.6-1.5,4.1-1.8,4.4l0.2,1.2c0,0.1-0.1,0.2-0.2,0.2l-0.2,0
		c0-0.3-0.2-0.5-0.4-0.5l-0.1,0c-0.3,0.4-0.5,0.9-0.6,1.5l0.2,0c0.3-0.2,0.4-0.4,0.4-0.7l0.4,0l0.2,0.1c-0.2,0.3-0.3,0.6-0.3,0.8
		l0.1,0.2l-0.3,0.7l0,0.1c0.2,0,0.5,0.1,0.8,0.2c0.2,0,0.4-0.1,0.7-0.3c0.2,0,1.2,0,2.8,0l0.8-0.3c1,0,1.1,0,2-0.1l0.3,0l0.2-0.1
		l0,0.1c0.9-0.1,0.9,0,1.6,0.1l0,0.1l-0.5,0l0,0.2c0.1,0,0.3-0.1,0.4-0.1c0.1,0,0.2,0.1,0.2,0.2c-0.2,0-0.4,0.1-0.7,0.1l-0.2-0.1
		c-0.3,0.1-0.3,0.1-0.5,0.1l-0.3-0.1c0,0.1,0,0.1-0.1,0.1c0,0.1,0.1,0.2,0.2,0.2l0.3,0l1.8-0.2l0.7-0.1c0,0.1,0,0.1,0.1,0.1l0.3-0.1
		l0.6,0c0.5,0,0.5-0.1,1.5-0.2c0-0.1,0-0.1,0.1-0.1l0,0.1c1.7-0.3,1.8-0.3,2.1-0.4l0,0c0.4-0.1,0.2-0.1,0.3-0.2c0,0.1,0,0.1,0.1,0.1
		l0.3,0l0-0.2l-0.6,0l0,0c0,0,0,0-0.1,0h-0.1v0c-0.4,0.1-0.4,0-0.7,0l-1.5,0.1l0-0.1l0.8-0.1l0.3,0l0.2-0.1l0,0.1
		c1.2-0.1,1.6,0.2,7.1-1c0.3,0,0.3-0.3,0.5-0.8c-0.1,0-0.2,0-0.3-0.1c-0.5,0.2-0.7,0.1-1.6,0.2c-0.1,0-0.1-0.1-0.2-0.2l0-0.1l0.8,0
		c0.2,0,0.5,0,0.9-0.3C199.1,19.9,198.9,19.9,199,19.9L199,19.9L199,19.9z M158.3,20.6l-0.4,0c0-0.2,0.2-0.8,0.6-1.8l0.3,0
		C158.8,19,158.6,19.6,158.3,20.6z M158.7,18.7l0-0.1c0-0.1,0.1-0.2,0.3-0.3l0,0.1C159,18.6,158.9,18.7,158.7,18.7z M163.9,22.7
		l0,0.1l-0.6,0.1l0-0.1L163.9,22.7z M163.1,22.6c0,0.1-0.2,0.3-0.6,0.4l-0.8-0.1l-0.3,0l0-0.2L163.1,22.6z M168.4-1.4l-0.4,0l0-0.1
		c0-0.1,0.1-0.2,0.2-0.3l0.1,0l0.3,0.1C168.6-1.5,168.5-1.5,168.4-1.4z M174.3-2.6l0.1,0l0,0.2l-0.4,0C174-2.5,174.1-2.6,174.3-2.6
		L174.3-2.6z M172.8-2.1l-0.6-0.1l0-0.1c0.8-0.1,1-0.1,1.5-0.3c0,0.1,0.1,0.1,0.2,0.1l0,0.2l-0.2,0c-0.2,0-0.3,0-0.5-0.1
		C173.1-2.2,172.9-2.1,172.8-2.1z M173.5,0.1l0-0.1l1-0.1l0,0.1L173.5,0.1z M174.5-0.8l0-0.1l0.5,0l0,0.1L174.5-0.8z M174.6-2.4
		l-0.1,0l0.1-0.3l1.1-0.1l0,0.1C175.4-2.6,175.1-2.5,174.6-2.4z M175.2-0.1l0-0.2l0.5,0c0.2,0,0.2,0.1,0.2,0.2L175.2-0.1L175.2-0.1z
		 M178-3.9l-0.6,0.2l-0.1,0c-0.3,0-0.6,0-1.1,0C177-3.8,177.7-3.9,178-3.9L178-3.9z M177.3-1.3l0,0.1l-0.8,0.1l0-0.1L177.3-1.3z
		 M178.7-0.6c0-0.1-0.2-0.2-0.5-0.2l-0.8,0.2l-0.6,0c-0.1-0.1-0.2-0.2-0.2-0.2l0.7,0l1.6-0.3l0.8,0l0,0.1
		C179.3-0.8,179-0.7,178.7-0.6L178.7-0.6z M187.1-2.8c0.1,0,0.2,0,0.2,0c0.3-0.3,0.6-0.5,1-0.7c-0.3,1.3-0.8,2.3-1.4,2.9l-0.5-0.3
		C186.8-1.8,187-2.5,187.1-2.8z M185.7-0.4l0.1,0c-0.2,0.3-0.3,0.5-0.4,0.5l0-0.3C185.4-0.2,185.5-0.3,185.7-0.4L185.7-0.4z
		 M184.8,1.8c0.2-0.9,0.4-1.4,0.6-1.5l0,0.1c-0.1,0.8-0.3,1.3-0.5,1.3l0,0.5c-0.2,0.3-0.3,0.5-0.3,0.7l-0.1,0l-0.1-0.7
		C184.6,2.1,184.7,2,184.8,1.8z M184.4,3c0,0.1-0.1,0.4-0.2,0.9l-0.1,0l0-0.3C184.2,3.2,184.3,3,184.4,3L184.4,3L184.4,3z
		 M177.7,22.4L177.7,22.4l0.2-0.1l0,0.3C177.9,22.6,177.8,22.5,177.7,22.4L177.7,22.4z M187.3,22.6c0-0.1,0-0.1-0.1-0.1l-0.5,0
		l0-0.1h0l1.3-0.1l0,0.1C187.6,22.5,187.3,22.5,187.3,22.6z M186.6,22.4C186.7,22.4,186.7,22.4,186.6,22.4
		C186.6,22.4,186.6,22.4,186.6,22.4z M186.7,20.9l-0.7,0.1l0-0.1l0.6-0.1l0.6-0.1c0,0.1,0,0.1,0.1,0.1c0.7-0.1,0.6-0.1,0.9-0.2
		c0.1,0,0.2,0.1,0.2,0.2L186.7,20.9L186.7,20.9z M189.2,20.7c-0.4,0-0.4-0.1-0.7,0l0-0.1l0.6-0.1l0,0.1
		C189.1,20.6,189.3,20.6,189.2,20.7z M189.2,20.5L189.2,20.5l0.3-0.1l0,0.1L189.2,20.5z M190,20.5L190,20.5c0-0.1,0.1-0.1,0.2-0.2
		c0.2,0,0.3,0.1,0.3,0.2L190,20.5L190,20.5z M191,20.3l0-0.1l0.4,0l0,0.1L191,20.3z M191.6,20.3c0-0.1,0-0.2,0.1-0.2l0.1,0.2
		c0-0.1,0-0.1,0.1-0.1l0.1,0.2L191.6,20.3L191.6,20.3z M199.7,19.3L199.7,19.3L199.7,19.3C199.7,19.3,199.7,19.3,199.7,19.3
		L199.7,19.3z M199.9,19.2c0.1,0,0.1-0.1-0.1-0.1c-0.1,0.1,0.1,0.1-0.1,0.1l0,0.1C199.7,19.3,199.8,19.3,199.9,19.2l-0.1,0.1v0
		l-0.2,0.2l0.3-0.1h0L199.9,19.2L199.9,19.2z M200.5,19.7L200.5,19.7l0,0.2l0.5,0C200.9,19.7,200.6,19.7,200.5,19.7z"/>
</g>
</svg>
