<?xml version="1.0" encoding="utf-8"?>
<!-- Generator: Adobe Illustrator 19.1.1, SVG Export Plug-In . SVG Version: 6.00 Build 0)  -->
<svg version="1.1" id="Browserify_1_" xmlns="http://www.w3.org/2000/svg" xmlns:xlink="http://www.w3.org/1999/xlink" x="0px"
	 y="0px" viewBox="113 -11.5 208.5 36" style="enable-background:new 113 -11.5 208.5 36;" xml:space="preserve">
<style type="text/css">
	.st0{fill:#3C6991;}
	.st1{fill:#E6B35A;stroke:#FFFFFF;stroke-width:1.18;stroke-opacity:0;}
	.st2{fill:#E6B35A;stroke:#FFFFFF;stroke-width:0.803;stroke-opacity:0;}
	.st3{fill:#E6B35A;stroke:#FFFFFF;stroke-opacity:0;}
</style>
<g id="Browserify">
	<path class="st0" d="M132.7-11.5c-0.8,0-1.8,0.5-2.5,0.3c-0.3-0.1-0.6-0.1-1-0.1c0,0,0,0,0,0c-0.3,0-0.7,0.1-0.9,0.2c0,0,0,0,0,0
		c0,0,0,0,0,0c-0.3,0.3-1.1,0.4-1.4,0.7c-0.3,0.3-0.5,0.8-0.8,1.3c0,0,0,0,0,0c-1.1,1.3-1.9,2.8-2.3,4.1c-0.3,1-0.2,2.4-0.7,3.5
		c-0.1,0.3-0.6,1.9-0.2,2.2c0.3,0.2,1.3,0.4,1.6,0c0.2-0.2,1.7-0.7,2.2-1.3c0.6-0.7,0.9-1.9,1.3-2.9c0.1-0.2,0.1-0.3,0.2-0.5
		c0.2,0.4,0.4,0.8,0.5,1c0.2,0.5,0.4,1.1,0.6,1.7c-0.4,0.6-0.2,1.4,0.1,1.8c-1.1,0.4-0.6,1.6-0.6,1.6c-0.1,0.1-0.3,0.2-0.4,0.3
		c-0.1,0.1-0.1,0.4-0.1,0.5c0,0.2,0,0.3,0.1,0.5c-1,2.6-2,5.8-3.2,7.6c-0.4,0.2-0.7,0.3-1.1,0.4c-0.8,0.2-2.9,0.6-4.7,1.2
		c-0.1,0.1-0.2,0.2-0.3,0.3c-0.2,0.2-0.5,0.2-0.7,0.3c-0.1,0.1-0.6,0-0.7,0.1c-0.4,0.4-1,0.6-1.6,0.9c-0.1,0-0.3-0.1-0.3,0
		c-0.3,0.3-0.8,0.5-1,0.7c-0.5,0.5-0.9,1-1.4,1.5c-0.5,0.5,0.5,1.9,0.7,2.1c0.5,0.5,1.4,0.6,1.9,1c0.2,0.2,0.9-0.1,1.1,0.1
		c0.1,0,0.1,0,0.2,0c0.7,0.4,2.1,0.6,2.9,0.9c1.2,0.4,2.1,1.4,3.3,1.7c0.9,0.2,1.9,0.3,2.9,0.7c0.4,0.1,0.9,0,1.2,0.2
		c0.7,0.2,1.3,0.5,2,0.7c0.2,0.1,0.5-0.1,0.7,0c0.5,0.1,1.1,0.2,1.6,0.3c0.9,0.3,2.1-0.3,2.9,0c0.6,0.2,4.2-0.1,4.5-0.4
		c0.2-0.2,1,0.1,1.3-0.1c0.2-0.1,1,0,1.1-0.2c0.4-0.4,1.3-0.4,1.9-0.7c0.3-0.1,0.6,0,0.9-0.1c0.2-0.1,0.5,0,0.8,0.2
		c0.6,0,1.1-0.1,1.7-0.1c0.8,0,1.8-0.4,2.9-0.9c1.2-0.3,2.7-0.6,2.8-0.7c0.5-0.5,1.9-0.4,2.5-0.9c0.4-0.4,0.8-0.5,1.2-0.9
		c0.3-0.3,0.8-0.7,1.3-1.1c0.1-0.2,0.3-0.5,0.5-0.7c0.1-0.1,0.7-1.8,0.6-2c-0.2-0.4-0.5-0.7-0.9-1c-0.1,0-0.2-0.1-0.2-0.1
		c-0.4-0.4-1.4-0.5-1.7-0.8c-0.6-0.6-1.4-1.1-2.5-1.4c-0.2-0.1-0.4-0.2-0.6-0.4c-0.2-0.2-1.2-0.4-1.6-0.6c-0.2-0.1-0.5,0-0.7-0.1
		c-0.3-0.3-1.6-0.5-2.5-0.8c-0.1,0-0.3-0.1-0.4-0.1c0,0-0.7-0.1-1-0.4c0,0-0.1-1-0.1-1.1c0,0-0.1-0.2,0-0.3c0,0,0,0,0,0
		c-0.4-2.6-0.7-5.5-1.1-5.8c-0.5-0.4-0.7-2.5-1.2-2.9c-0.5-0.4-0.8-0.9-1.3-1.3c0,0,0,0,0,0c-0.2-0.8-0.4-1.8-0.5-1.8
		c-0.1-0.1,0.1-0.7-0.1-0.8c-0.5-0.4-1.1-2.7-1.5-3c-0.6-0.5-0.8-1.2-1.4-1.7c-1.3-1.1-3.5-2.8-6-2.7c-0.1,0-0.2-0.1-0.3-0.1
		C133-11.5,132.8-11.5,132.7-11.5L132.7-11.5z"/>
	<path class="st1" d="M130.3,1.6c-0.2,0-0.4,0-0.5,0c-0.2,0.1-0.6-0.1-0.9-0.1c-0.9,0.2-1.7,0.4-1.8,0.7c1.4-0.4,2.9,0.5,3.5,1.3
		c0.3,0.3-0.1,0.9,0,1.3c0,0.1,0.1,0.7-0.1,0.8c-0.2,0.2-0.2,0.8-0.4,1.1c-0.5,0.7-0.9,1.1-1.2,1.7c-0.4,0.6-1.5,0.7-2.1,0.9
		c-0.1,0-0.3,0-0.4,0c0,0-0.1,0-0.1,0c0,0,0,0,0,0c0.1,0.1,0.3,0,0.4,0.1c0.5,0.3,2.3,0.2,2.8,0c0.3-0.1,0.6-0.3,0.9-0.4
		c0.4-0.1,0.8-0.8,1.1-1.1c1-1.1,1.5-3,1-4.5c-0.2-0.7-0.9-1.2-1.5-1.6C130.9,1.8,130.6,1.6,130.3,1.6L130.3,1.6z M132.5,0.1
		c-0.1,0-0.1,0.6-0.1,0.9c0,0,0,0,0,0.1c-0.3,0.1-1,0.4-0.9,0.5c0,0,0,0,0,0c0,0,0,0,0,0c0,0,0.1,0,0.1,0c0.1,0,0.7,0.2,0.9,0.3
		c0,0.2,0.1,0.4,0.1,0.6c0,0.2,0,0.4,0,0.4c0,0,0,0,0,0c0,0,0,0,0,0c0,0,0.1-0.2,0.2-0.3c0,0,0,0,0,0c0.2-0.2,0.3-0.4,0.5-0.7
		c0.3,0,0.6,0.1,0.6,0.1c0,0,1.1,0.2,0.8-0.1c0,0,0,0-0.1-0.1c0,0,0,0,0,0c0-0.1-0.6-0.3-0.7-0.5c0-0.1-0.1-0.1-0.2-0.1
		c0,0,0-0.1,0-0.1v0c0.1-0.1,0.2-0.2,0.2-0.3c0,0,0.2-0.4,0-0.3c-0.1,0-0.5,0-1,0.2c0,0-0.1-0.2-0.1-0.2
		C133.1,0.5,132.8,0.1,132.5,0.1L132.5,0.1L132.5,0.1z"/>
	<path class="st2" d="M129.7,0c0,0-0.1,0.1-0.1,0.1C129.6,0,129.8,0,129.7,0c-0.1,0.1-0.5,0.4-0.4,0.5c0.1,0.1,0.6-0.1,0.8,0
		c0,0,0.4,0.5,0.4,0.4c0.1-0.2,0-0.6,0-0.6c0-0.1,0.3-0.1,0.4-0.1c0.1,0,0.2-0.1,0.2-0.1c0,0,0-0.1,0,0c0,0-0.1-0.1-0.2-0.1
		c-0.2-0.1-0.3,0-0.4-0.1c-0.1,0,0-0.3,0-0.4c-0.1-0.1-0.1-0.3-0.1-0.3c0,0.1-0.1,0.1-0.2,0.1c-0.1,0.1-0.2,0.3-0.3,0.3
		c-0.1,0-0.5-0.1-0.6,0C129.4-0.4,129.7-0.1,129.7,0L129.7,0z M133.9,4.2C133.9,4.2,133.8,4.1,133.9,4.2
		C133.8,4.1,133.9,4.2,133.9,4.2c-0.1-0.1-0.6-0.3-0.6-0.1c0,0.2,0.3,0.5,0.3,0.7c0,0-0.3,0.5-0.2,0.5c0.3,0,0.6-0.3,0.6-0.3
		c0.1,0,0.2,0.3,0.2,0.3c0,0,0.1,0.1,0.2,0.1c0,0,0.1,0,0,0c0,0,0-0.1,0-0.2c0-0.2-0.1-0.3-0.1-0.4c0-0.1,0.3-0.1,0.3-0.1
		c0.1-0.1,0.2-0.2,0.2-0.2c0,0.1-0.1-0.1-0.2-0.1c-0.1,0-0.3-0.1-0.4-0.2c0-0.1-0.1-0.5-0.2-0.5C134.2,3.8,134,4.1,133.9,4.2
		L133.9,4.2z"/>
	<path class="st3" d="M143.3,8.1c-0.1,0.3-0.6,1.2-0.8,1.4c-0.3,0.3-0.5,0.6-0.8,0.8c-0.2,0.2-0.7,0.6-0.8,0.8
		c-0.3,0.3-0.5,0.2-0.9,0.6c-0.2,0.2-0.5,0.2-0.7,0.4c-0.2,0.2-1.4,0.3-1.8,0.4c-0.1,0-0.3-0.1-0.4,0c-0.2,0.2-2,0.3-2.1,0.4
		c-0.3,0.3-1,0-1.4,0.2c-0.3,0.2-1,0.1-1.5,0.1c-0.2,0-0.8,0-1.4,0c-0.1,0-0.3,0-0.3,0c0,0,0,0,0,0c-0.1,0-0.2,0-0.3,0
		c-0.1,0-0.1,0-0.2,0c0,0,0,0,0,0c-0.5,0-0.9-0.1-1-0.1c-0.4-0.2-0.8-0.3-1.3-0.3c-0.8,0-2.5-0.9-3.2-1.2c-0.1,0-0.4-0.3-0.5-0.4
		c0-0.1,0-0.1,0-0.1c-0.1-0.1-0.2-0.5-0.3-0.7c0-0.1,0-0.4,0-0.4c0,0,0.1-0.4,0.1-0.4c-0.1,0-0.6,0.6-0.7,0.8c0,0,0,0,0,0
		c-0.1,0.1-0.2,0.3-0.2,0.6c0,1,0.6,1.1,1.1,1.6c0.1,0.1,0.4,0,0.5,0.1c0.1,0.1,0.3,0.2,0.4,0.3c-0.2,0.1-0.7,0.2-0.8,0.3
		c-0.1,0.1-0.8,0.5-1,0.7c0,0-0.3,0-0.3,0.1c-1.4,1.4-2.9,2.3-4.2,3.5c-0.1,0.1-0.1,1.5-0.1,1.8c0,0.5-0.2,0.9,0.1,1.2
		c0.1,0.1,0.5,0,0.7,0.1c0,0,0.3,0.3,0.4,0.2c0.1-0.1-0.1-0.8-0.1-1c0-1,0.1-2,0.7-2.6c1.2-1.2,2.9-1.8,4-2.9
		c0.3-0.3,0.9-0.5,1.3-0.8c0,0.1,0,0.2,0.1,0.3c0,0.1,0.2-0.1,0.3,0c0.4,0.2,1.7,0.7,2.1,0.2c0.1,0.1,0.1,0.3,0.2,0.3
		c0.3,0.3,0.1,1.5-0.1,1.8c-0.5,1-0.8,3.8-1.2,4.2c-0.1,0.1,0.1,0.8,0.1,0.9c0.2,0.3-0.1,1,0,1.1c0.1,0.1,0,0.4,0.1,0.5
		c0.1,0.1,0.6,0,0.7,0.1c0,0,0.6,0.4,0.7,0.3c0.1-0.1-0.2-1-0.3-1.2c-0.1-0.1,0.2-2.3,0.2-2.3c0.1-0.1-0.1-0.4,0-0.5
		c0.2-0.2,0.4-3.6,0.4-4.1c0-0.1,0.2-0.6,0.1-0.7c0,0-0.1-0.3-0.3-0.5c0.2,0,0.4,0,0.5,0.1c0.1,0.1,2.3,0,2.6,0
		c1.4,0,3.7-0.1,4.5-0.3c0.3-0.1,1.2-0.1,1.6-0.4c0.3-0.1,1.2-0.2,1.4-0.3c0.3-0.1,1.5-0.4,1.8-0.7c0.2-0.2,1-1,1.3-1.2
		c0.3-0.2,0.5-0.8,0.7-1c0-0.2,0.6-0.7,0.5-0.9C143.6,8.6,143.5,8.1,143.3,8.1L143.3,8.1z"/>
	<g>
		<path d="M177.7,14.7v-17h9.3l2.3,2.3v4.6l-1.6,1.2l2.1,1.6v4.5l-2.8,2.8H177.7z M180.5,4.6h5.1l1-0.8V0.9l-0.7-0.7h-5.4V4.6z
			 M180.5,12.2h5.4l1.2-1.2V8.3l-1.6-1.2h-5V12.2z"/>
		<path d="M194.5,2l2.2-0.6l0.5,1.9l1.4-1.6h4l2.8,2.8l-1.8,1.9l-2.2-2.1h-2.1L198,5.7v9h-2.8V5.1L194.5,2z"/>
		<path d="M209.1,12.4V4l2.3-2.3h6.2l2.3,2.3v8.4l-2.3,2.3h-6.2L209.1,12.4z M211.9,11.4l0.8,0.8h3.7l0.8-0.8V4.9l-0.8-0.7h-3.7
			l-0.8,0.7V11.4z"/>
		<path d="M223.8,2.1l2.5-0.7l2.2,7.4l0.3,1.4h0.1l0.3-1.4l2-6.4h2.6l2,6.4l0.3,1.4h0.1l0.3-1.4l2.2-7.4l2.5,0.7l-3.7,12.6h-2.3
			l-2.3-7.3L232.5,6h-0.1l-0.3,1.4l-2.3,7.3h-2.3L223.8,2.1z"/>
		<path d="M244.4,13.7l0.8-2.4l2.7,0.9h3.3l0.8-0.8v-0.6l-0.3-0.6l-6.3-2.2l-0.9-1.5V4l2.3-2.3h5.1l3,1l-0.8,2.4l-2.7-0.9h-3.4
			L247.3,5v0.5l0.3,0.6l6.3,2.2l0.9,1.5v2.8l-2.3,2.3h-5.1L244.4,13.7z"/>
		<path d="M259.3,12.4V4l2.3-2.3h6l2.3,2.3v3.7l-2.1,2h-5.8v1.8l0.8,0.8h3.7l2.7-0.8l0.7,2.4l-3.1,1h-5.3L259.3,12.4z M262.1,7.2
			h4.5l0.6-0.6V4.9l-0.7-0.7h-3.6l-0.8,0.7V7.2z"/>
		<path d="M274.3,2l2.2-0.6l0.5,1.9l1.4-1.6h4l2.8,2.8l-1.8,1.9l-2.2-2.1h-2.1l-1.3,1.5v9H275V5.1L274.3,2z"/>
		<path d="M288.7,2.3l2.6-0.9l1,3v10.3h-2.8v-10L288.7,2.3z M289.3-0.7V-2l0.9-0.9h1.3l0.9,0.9v1.3l-0.9,0.9h-1.3L289.3-0.7z"/>
		<path d="M296.7,5.6V3.1h2.2V0l2.3-2.3h3.1l3.1,1L306.6,1L304,0.2h-1.6l-0.8,0.7v2.2h3.5v2.5h-3.5v9.1h-2.8V5.6H296.7z"/>
		<path d="M308.8,2.3l2.5-1l3.5,9l0.3,1.4h0.1l0.3-1.4l2.9-9l2.6,0.8l-4.9,14.9l-1.7,1.7h-3.8v-2.5h2.5l0.6-0.6l0.3-0.9h-0.5
			L308.8,2.3z"/>
	</g>
</g>
</svg>
