<?xml version="1.0" encoding="UTF-8" standalone="no"?>
<svg
   xmlns:dc="http://purl.org/dc/elements/1.1/"
   xmlns:cc="http://creativecommons.org/ns#"
   xmlns:rdf="http://www.w3.org/1999/02/22-rdf-syntax-ns#"
   xmlns:svg="http://www.w3.org/2000/svg"
   xmlns="http://www.w3.org/2000/svg"
   viewBox="0 0 491.27457 347.00275"
   height="347.00275"
   width="491.27457"
   version="1.1"
   id="svg2">
  <metadata
     id="metadata8">
    <rdf:RDF>
      <cc:Work
         rdf:about="">
        <dc:format>image/svg+xml</dc:format>
        <dc:type
           rdf:resource="http://purl.org/dc/dcmitype/StillImage" />
        <dc:title></dc:title>
      </cc:Work>
    </rdf:RDF>
  </metadata>
  <defs
     id="defs6" />
  <path
     id="path3338"
     d="m 234.89248,339.72023 c -2.00802,-4.00538 -4.74086,-9.15585 -6.07298,-11.44549 l -2.42203,-4.163 107.29404,-71.74047 c 116.22899,-77.7147 111.7169,-74.66568 111.76261,-75.52296 0.0173,-0.32418 -49.20167,-33.50873 -109.37545,-73.74345 L 226.6718,29.95083 232.43431,18.86922 c 3.16938,-6.09489 6.07898,-11.0874901 6.46578,-11.0946701 1.42579,-0.0265 252.65298,168.4591301 252.37424,169.2548601 -0.28889,0.82473 -15.30431,10.94332 -170.00985,114.56617 l -82.72106,55.40715 -3.65094,-7.2825 z M 9.7190274,323.64361 C 2.0355769,319.76881 -0.39685311,318.08519 0.05120689,316.95195 0.38048689,316.11913 27.126647,245.01273 59.487127,158.93773 91.847605,72.86273 118.62168,1.6817499 118.98506,0.75777991 c 0.57534,-1.46291019 1.97461,-1.0352302 10.83059,3.31032999 7.449,3.65517 10.15231,5.47513 10.10418,6.8024901 -0.0827,2.28157 -118.643083,318.08812 -119.387123,318.00879 -0.30094,-0.0321 -5.1671,-2.38818 -10.8136796,-5.23578 z"
     style="fill:#000000" />
</svg>
