<?xml version="1.0" encoding="utf-8"?>
<!-- Generator: Adobe Illustrator 19.1.1, SVG Export Plug-In . SVG Version: 6.00 Build 0)  -->
<svg version="1.1" id="css3_1_" xmlns="http://www.w3.org/2000/svg" xmlns:xlink="http://www.w3.org/1999/xlink" x="0px" y="0px"
	 viewBox="88 -6 42.3 46.3" style="enable-background:new 88 -6 42.3 46.3;" xml:space="preserve">
<style type="text/css">
	.st0{fill:none;}
	.st1{fill:#2062AF;}
	.st2{fill:#3C9CD7;}
	.st3{fill:#FFFFFF;}
	.st4{fill:url(#SVGID_1_);}
	.st5{fill:url(#SVGID_2_);}
	.st6{fill:url(#SVGID_3_);}
	.st7{opacity:5.000000e-002;enable-background:new    ;}
	.st8{fill:url(#SVGID_4_);}
</style>
<g id="css3">
	<path class="st0" d="M83.5-8.9h51.3v51.2H83.5V-8.9z"/>
	<path class="st1" d="M122.1,35.5l-13,3.5l-13-3.5l-3-32.4h31.9L122.1,35.5z"/>
	<path class="st2" d="M109.1,5.8v30.5l0,0l10.5-2.8l2.4-27.7L109.1,5.8L109.1,5.8z"/>
	<path d="M101.8-1.6v-1.9h2.8v-2.1h-4.9v6h4.9v-1.9H101.8z M109.6-3.5h2v-2.1h-4.9v2.1c0.7,0.7,1,1,2,1.9c-0.6,0-2,0-2,0v1.9h4.9
		v-1.9L109.6-3.5L109.6-3.5z M116.6-3.5h2v-2.1h-4.9v2.1c0.7,0.7,1,1,2,1.9c-0.6,0-2,0-2,0v1.9h4.9v-1.9L116.6-3.5L116.6-3.5z"/>
	<path class="st3" d="M109.1,13.9l-9.3,3.9l0.3,3.8l9-3.8l9.5-4.1l0.4-3.9L109.1,13.9L109.1,13.9z"/>
	
		<linearGradient id="SVGID_1_" gradientUnits="userSpaceOnUse" x1="-1248.5933" y1="-1300.6908" x2="-1248.5933" y2="-1302.3472" gradientTransform="matrix(4.6418 0 0 4.6418 5900.1973 6059.1104)">
		<stop  offset="0.387" style="stop-color:#D1D3D4;stop-opacity:0"/>
		<stop  offset="1" style="stop-color:#D1D3D4"/>
	</linearGradient>
	<path class="st4" d="M99.8,17.7l0.3,3.8l9-3.8v-3.9L99.8,17.7z"/>
	
		<linearGradient id="SVGID_2_" gradientUnits="userSpaceOnUse" x1="-1246.5236" y1="-1301.517" x2="-1246.5236" y2="-1303.2388" gradientTransform="matrix(4.6418 0 0 4.6418 5900.1973 6059.1104)">
		<stop  offset="0.387" style="stop-color:#D1D3D4;stop-opacity:0"/>
		<stop  offset="1" style="stop-color:#D1D3D4"/>
	</linearGradient>
	<path class="st5" d="M119,9.7l-9.9,4.1v3.9l9.5-4.1L119,9.7z"/>
	
		<linearGradient id="SVGID_3_" gradientUnits="userSpaceOnUse" x1="-1249.5895" y1="-1299.952" x2="-1245.6111" y2="-1299.952" gradientTransform="matrix(4.6418 0 0 4.6418 5900.1973 6059.1104)">
		<stop  offset="0" style="stop-color:#E8E7E5"/>
		<stop  offset="1" style="stop-color:#FFFFFF"/>
	</linearGradient>
	<path class="st6" d="M99.9,17.7l0.3,3.8l13.8,0l-0.3,5.1l-4.5,1.3l-4.4-1.1l-0.3-3.2h-4l0.5,6.1l8.2,2.4l8.1-2.4l1.1-12.1H99.9z"/>
	<path class="st7" d="M109.1,17.7h-9.3l0.3,3.8l9,0V17.7L109.1,17.7z M109.1,28L109.1,28l-4.4-1.1l-0.3-3.2h-4l0.5,6.1l8.2,2.4V28z"
		/>
	
		<linearGradient id="SVGID_4_" gradientUnits="userSpaceOnUse" x1="-1249.7725" y1="-1302.8173" x2="-1245.4532" y2="-1302.8173" gradientTransform="matrix(4.6418 0 0 4.6418 5900.1973 6059.1104)">
		<stop  offset="0" style="stop-color:#E8E7E5"/>
		<stop  offset="1" style="stop-color:#FFFFFF"/>
	</linearGradient>
	<path class="st8" d="M99,9.7h20l-0.4,3.9H99.5L99,9.7L99,9.7z"/>
	<path class="st7" d="M109.1,9.7H99l0.5,3.9h9.6V9.7L109.1,9.7z"/>
</g>
</svg>
