<?xml version="1.0" encoding="utf-8"?>
<!-- Generator: Adobe Illustrator 19.1.1, SVG Export Plug-In . SVG Version: 6.00 Build 0)  -->
<svg version="1.1" id="sass_1_" xmlns="http://www.w3.org/2000/svg" xmlns:xlink="http://www.w3.org/1999/xlink" x="0px" y="0px"
	 viewBox="88 -6 51 55.5" style="enable-background:new 88 -6 51 55.5;" xml:space="preserve">
<style type="text/css">
	.st0{fill:#AD501D;}
</style>
<g id="dle">
	<g>
		<path class="st0" d="M89.4,16.3v-17h10l3.1,3.1v10.9l-3.1,3.1H89.4z M93.2,12.8h4.7l1-1V3.7l-1-1h-4.7V12.8z"/>
		<path class="st0" d="M107.6,16.3v-17h3.7v13.6h7.9v3.5H107.6z"/>
		<path class="st0" d="M123.2,16.3v-17h11.8v3.5H127v2.9h7.1v3.5H127v3.7h8.1v3.5H123.2z"/>
	</g>
	<g>
		<path d="M90.2,30.6v-8.5h4.7l1.4,1.4v5.7l-1.4,1.4H90.2z M91.6,29.4h2.7l0.6-0.6V24l-0.6-0.6h-2.7V29.4z"/>
		<path d="M97.5,29.5v-1.6l1.2-1.1h2.8v-1l-0.4-0.4h-1.8L98,25.8l-0.4-1.2l1.5-0.5h2.5l1.1,1.1v3.7l0.4,1.5l-1.1,0.3l-0.2-0.9
			l-0.7,0.8h-2.5L97.5,29.5z M98.9,29l0.4,0.4h1.5l0.7-0.8V28h-2.2l-0.4,0.4V29z"/>
		<path d="M104,25.5v-1.3h1.1v-1.8h1.4v1.8h1.7v1.3h-1.7V29l0.4,0.4h0.8l1.3-0.4l0.4,1.2l-1.5,0.5h-1.6l-1.1-1.1v-4H104z"/>
		<path d="M109.8,29.5v-1.6l1.2-1.1h2.8v-1l-0.4-0.4h-1.8l-1.3,0.4l-0.4-1.2l1.5-0.5h2.5l1.1,1.1v3.7l0.4,1.5l-1.1,0.3l-0.2-0.9
			l-0.7,0.8H111L109.8,29.5z M111.2,29l0.4,0.4h1.5l0.7-0.8V28h-2.2l-0.4,0.4V29z"/>
		<path d="M116.6,22.4l1.3-0.4l0.5,1.5v7.2H117v-7L116.6,22.4z"/>
		<path d="M119.6,24.4l1.3-0.4l0.5,1.5v5.2H120v-5L119.6,24.4z M119.9,22.9v-0.7l0.4-0.4h0.7l0.4,0.4v0.7l-0.4,0.4h-0.7L119.9,22.9z
			"/>
		<path d="M122.4,26.1v-1.3h1.1v-1.6l1.1-1.1h1.6l1.5,0.5l-0.4,1.2l-1.3-0.4h-0.8l-0.4,0.4v1.1h1.7v1.3h-1.7v4.5h-1.4v-4.5H122.4z"
			/>
		<path d="M127.8,29.5v-4.2l1.1-1.1h3l1.2,1.1v1.8l-1,1h-2.9V29l0.4,0.4h1.9l1.3-0.4l0.4,1.2l-1.5,0.5H129L127.8,29.5z M129.2,26.8
			h2.2l0.3-0.3v-0.8l-0.4-0.4h-1.8l-0.4,0.4V26.8z"/>
	</g>
	<g>
		<path class="st0" d="M89.2,46V36h6.3v1.5h-4.7V40H95v1.5h-4.1v3h4.7V46H89.2z"/>
		<path class="st0" d="M98,38.5l1.3-0.3l0.3,1.1l0.8-0.9h2.9l1.3,1.3V46h-1.6v-5.7l-0.4-0.4h-1.8l-0.8,0.9V46h-1.6v-5.6L98,38.5z"/>
		<path class="st0" d="M107.6,47.8l0.4-1.3l1.5,0.5h2.7l0.2-0.2v-0.4l-0.2-0.2h-3.5l-1-1v-1.4l0.6-0.6l-0.6-0.6v-2.8l1.3-1.3h3
			l1.8-0.4l0.3,1.3l-1.1,0.3l0.9,0.8v2.5l-1.3,1.3h-3.2l-0.2,0.2v0.4l0.2,0.2h3.5l1,1v1.4l-1,1h-3.5L107.6,47.8z M109.3,41.9
			l0.7,0.7h1.9l0.4-0.4v-1.6l-0.9-0.8h-1.7l-0.4,0.4V41.9z"/>
		<path class="st0" d="M116.6,38.7l1.5-0.5l0.6,1.7v6h-1.6v-5.8L116.6,38.7z M117,37v-0.8l0.5-0.5h0.8l0.5,0.5V37l-0.5,0.5h-0.8
			L117,37z"/>
		<path class="st0" d="M121.6,38.5l1.3-0.3l0.3,1.1l0.8-0.9h2.9l1.3,1.3V46h-1.6v-5.7l-0.4-0.4h-1.8l-0.8,0.9V46H122v-5.6
			L121.6,38.5z"/>
		<path class="st0" d="M131.2,44.6v-4.9l1.3-1.3h3.5l1.3,1.3v2.1l-1.2,1.2h-3.4v1l0.4,0.4h2.2L137,44l0.4,1.4l-1.8,0.6h-3.1
			L131.2,44.6z M132.8,41.5h2.6l0.4-0.4v-0.9l-0.4-0.4h-2.1l-0.4,0.4V41.5z"/>
	</g>
</g>
</svg>
