<?xml version="1.0" encoding="utf-8"?>
<!-- Generator: Adobe Illustrator 19.1.1, SVG Export Plug-In . SVG Version: 6.00 Build 0)  -->
<svg version="1.1" id="es6" xmlns="http://www.w3.org/2000/svg" xmlns:xlink="http://www.w3.org/1999/xlink" x="0px" y="0px"
	 viewBox="113 -16.6 70.6 67.6" style="enable-background:new 113 -16.6 70.6 67.6;" xml:space="preserve">
<style type="text/css">
	.st0{fill:#F26522;}
	.st1{fill:#FFFFFF;}
</style>
<rect x="113" y="-18.1" class="st0" width="70.6" height="70.6"/>
<g>
	<path class="st1" d="M137.2,24.5v-17h10.9V10h-8.1v4.4h7.1v2.5h-7.1V22h8.1v2.5H137.2z"/>
	<path class="st1" d="M152.1,23.5l0.8-2.4l2.6,0.9h4.2l1.2-1.2v-1.6l-0.2-0.4l-7.9-3.9l-0.8-1.6v-3l2.8-2.8h5.9l2.9,1l-0.7,2.4
		l-2.6-0.8h-4.2l-1.2,1.2v1.3l0.2,0.3l7.8,3.9l0.9,1.7v3.3l-2.8,2.8h-5.8L152.1,23.5z"/>
	<path class="st1" d="M168.5,21.7V10.2l2.8-2.8h6.5l2.9,1l-0.8,2.4l-2.6-0.9h-4.8l-1.2,1.2v3.2l1.6-0.5h5l2.8,2.8v5l-2.8,2.8h-6.6
		L168.5,21.7z M171.3,20.8l1.2,1.2h4.2l1.2-1.2v-3.1l-1.2-1.2h-4.1l-1.3,0.3V20.8z"/>
</g>
</svg>
