<?xml version="1.0" encoding="iso-8859-1"?>
<!-- Generator: Adobe Illustrator 19.0.0, SVG Export Plug-In . SVG Version: 6.00 Build 0)  -->
<svg version="1.1" id="Layer_1" xmlns="http://www.w3.org/2000/svg" xmlns:xlink="http://www.w3.org/1999/xlink" x="0px" y="0px"
	 viewBox="0 0 228.068 228.068" style="enable-background:new 0 0 228.068 228.068;" xml:space="preserve">
<g>
	<g>
		<g>
			<path d="M226.558,111.786c-25.221-37.624-67.288-60.087-112.526-60.087c-45.238,0-87.302,22.463-112.523,60.087L0,114.035
				l1.509,2.249c25.223,37.624,67.288,60.085,112.524,60.085c45.238,0,87.303-22.461,112.526-60.085l1.509-2.249L226.558,111.786z
				 M114.033,168.289c-41.627,0-80.4-20.227-104.269-54.253C33.633,80.008,72.404,59.78,114.033,59.78
				c41.629,0,80.402,20.23,104.271,54.255C194.435,148.061,155.662,168.289,114.033,168.289z"/>
			<path d="M114.112,63.82c-26.734,0-48.485,21.751-48.485,48.485s21.751,48.485,48.485,48.485s48.485-21.751,48.485-48.485
				S140.846,63.82,114.112,63.82z M114.112,152.709c-22.28,0-40.404-18.124-40.404-40.404s18.124-40.404,40.404-40.404
				c22.28,0,40.404,18.124,40.404,40.404S136.391,152.709,114.112,152.709z"/>
			<path d="M114.112,96.143c-8.912,0-16.162,7.25-16.162,16.162s7.25,16.162,16.162,16.162s16.162-7.25,16.162-16.162
				S123.023,96.143,114.112,96.143z M114.112,120.385c-4.457,0-8.081-3.624-8.081-8.081c0-4.457,3.624-8.081,8.081-8.081
				c4.457,0,8.081,3.624,8.081,8.081C122.193,116.761,118.569,120.385,114.112,120.385z"/>
			<path d="M118.152,84.022c0-2.231-1.809-4.04-4.04-4.04c-17.823,0-32.323,14.501-32.323,32.323c0,2.231,1.809,4.04,4.04,4.04
				c2.231,0,4.04-1.809,4.04-4.04c0-13.368,10.874-24.242,24.242-24.242C116.343,88.062,118.152,86.253,118.152,84.022z"/>
		</g>
	</g>
</g>
<g>
</g>
<g>
</g>
<g>
</g>
<g>
</g>
<g>
</g>
<g>
</g>
<g>
</g>
<g>
</g>
<g>
</g>
<g>
</g>
<g>
</g>
<g>
</g>
<g>
</g>
<g>
</g>
<g>
</g>
</svg>
