<?xml version="1.0" encoding="utf-8"?>
<!-- Generator: Adobe Illustrator 19.1.1, SVG Export Plug-In . SVG Version: 6.00 Build 0)  -->
<svg version="1.1" id="git_2_" xmlns="http://www.w3.org/2000/svg" xmlns:xlink="http://www.w3.org/1999/xlink" x="0px" y="0px"
	 viewBox="113 -11.5 113.3 57.4" style="enable-background:new 113 -11.5 113.3 57.4;" xml:space="preserve">
<style type="text/css">
	.st0{fill:#DE4C36;}
</style>
<g id="git_1_">
	<path id="git" class="st0" d="M169.3,14.6l-25.1-25.1c-1.4-1.4-3.8-1.4-5.2,0c0,0,0,0,0,0l-5.2,5.2l6.6,6.6
		c1.6-0.5,3.3-0.1,4.5,1.1c1.2,1.2,1.6,3,1,4.5l6.4,6.4c1.5-0.5,3.3-0.2,4.5,1c1.7,1.7,1.7,4.5,0,6.2c0,0,0,0,0,0
		c-1.7,1.7-4.5,1.7-6.2,0c-1.3-1.3-1.6-3.1-1-4.8l-5.9-5.9l0,15.6c0.4,0.2,0.8,0.5,1.2,0.8c1.7,1.7,1.7,4.5,0,6.2c0,0,0,0,0,0
		c-1.7,1.7-4.5,1.7-6.2,0c-1.7-1.7-1.7-4.5,0-6.2c0.4-0.4,0.9-0.7,1.4-1V9.6c-0.5-0.2-1-0.5-1.4-1c-1.3-1.3-1.6-3.2-0.9-4.8
		l-6.5-6.5l-17.2,17.2c-1.4,1.4-1.4,3.8,0,5.2l0,0l25.1,25.1c1.4,1.4,3.8,1.4,5.2,0l24.9-24.9C170.7,18.4,170.7,16.1,169.3,14.6"/>
	<g>
		<path d="M182.6,23.8V7.7l3.9-3.9h9.3l3.9,3.9v4.2h-3.9V9.1L194,7.4h-5.9l-1.7,1.7v13.4l1.7,1.7h5.9l1.7-1.7v-4h-5.2v-3.5h7.7
			l1.3,1.3v7.7l-3.9,3.9h-9.3L182.6,23.8z"/>
		<path d="M203.1,10.3l3.6-1.2l1.4,4.2v14.4h-3.9v-14L203.1,10.3z M204,6.1V4.3l1.2-1.2h1.9l1.2,1.2v1.8l-1.2,1.2h-1.9L204,6.1z"/>
		<path d="M210.9,13.3V9.8h3V4.8h3.9v4.9h4.9v3.5h-4.9v9.8l1,1.1h2.3l3.7-1.2l1,3.3l-4.3,1.3h-4.4l-3.2-3.2V13.3H210.9z"/>
	</g>
</g>
</svg>
