<?xml version="1.0" encoding="utf-8"?>
<!-- Generator: Adobe Illustrator 19.1.1, SVG Export Plug-In . SVG Version: 6.00 Build 0)  -->
<svg version="1.1"
	 id="svg2" xmlns:dc="http://purl.org/dc/elements/1.1/" xmlns:cc="http://creativecommons.org/ns#" xmlns:rdf="http://www.w3.org/1999/02/22-rdf-syntax-ns#" xmlns:svg="http://www.w3.org/2000/svg"
	 xmlns="http://www.w3.org/2000/svg" xmlns:xlink="http://www.w3.org/1999/xlink" x="0px" y="0px" viewBox="-394 253.1 170.7 55.9"
	 style="enable-background:new -394 253.1 170.7 55.9;" xml:space="preserve">
<style type="text/css">
	.st0{fill:#FFAB00;}
	.st1{fill:#FF880B;}
	.st2{fill:#FFC262;}
	.st3{fill:#FFFFFF;}
	.st4{fill:#CACACA;}
	.st5{fill:#4C2C09;}
	.st6{enable-background:new    ;}
</style>
<g id="g13126" transform="translate(1416.8302,64.026731)">
	<g id="g3210" transform="translate(759.2695,790.8468)">
		<path id="path3212" class="st0" d="M-2567.4-588.2c0,0,1,3.7,1.1,4.9c0.1,1.2-2.5,4-2.5,5.3c0,1.4,0.5,3.8,3.6,5.1
			c3,1.2,3.4,4.4,3.4,6.3s-1.1,5.6-1.1,5.6s-0.7,9.2,3,10.8c3.7,1.6,2.9,1.6,3.7,1.6s6.8,2.5,10.4,1.5c3.6-1,4.5-2.1,4.5-2.1
			s3.6,0.3,4.6-2.9s1.8-9.7,1.4-12.7c-0.4-3-1-7,1.5-8.3c2.5-1.4,5.1-3,4.6-4.4c-0.4-1.4-2.6-3.3-2.6-3.3s-0.5-3.4-0.1-4.2
			c0.4-0.8,2.9-2.9,1.5-4.4c-1.4-1.5-3.8-1.5-3.8-1.5l-3.1,0.3c0,0-5.3-4.8-12.3-4.5c-7,0.3-11.3,4.5-11.3,4.5s-2.3-0.8-4.4,0
			C-2567.4-589.7-2567.8-590.5-2567.4-588.2"/>
	</g>
	<g id="g3214" transform="translate(770.2922,781.4305)">
		<path id="path3216" class="st1" d="M-2564.7-567c0,0-0.8,2-1.3,3.1c-0.5,1.2-2.3,1.8-2.3,1.8s1-1,1-3.6c0-1.1,1.4-1.5,1.4-1.5
			L-2564.7-567z M-2566-558.4c0,0-2.7,4.1-4.7,7.1c-0.3,0.5,2,0.5,2,0.5S-2566-558.4-2566-558.4z"/>
	</g>
	<g id="g3218" transform="translate(760.2528,797.5209)">
		<path id="path3220" class="st1" d="M-2567.2-603.2c0,0,2.9-0.6,4.8,1c1.9,1.5,2.5,2.7,2.5,2.7l-3.2,2.6c0,0-1.6-0.7-2-2.8
			S-2565.3-602.8-2567.2-603.2 M-2555.5-581.9c0,0-1.7,2-4.8,0.9c-3.1-1.1-3.4-5.1-3.4-6.2c0-1.1,5.9,1.1,6.7,1.6
			C-2556.2-585.2-2554.7-583.3-2555.5-581.9z"/>
	</g>
	<g id="g3222" transform="translate(773.72,760.0891)">
		<path id="path3224" class="st1" d="M-2563.8-519c-6.5,0-8.7-3.3-8.7-3.3l1,2.5c0.4,1.1,4.5,4.4,7.7,4.4 M-2570.8-562.6
			c-2.1,1.1-5,2.6-5,2.6l1.1,0.6c-0.1,0.2-0.2,0.3-0.2,0.3l1.2,0.5c0,0,2.8,2.1,4.6,3.4c-0.6-1.8-2.3-4.6-2.3-4.6
			S-2571.9-561.2-2570.8-562.6z M-2577.4-544c0,0-5-1.7-4.1-3.5c1-1.8,0.2-2.7,0.2-2.7s-2.8,2.1-2.1,4.3c0.4,1.4,1.2,2.4,5.2,4.3
			c1.9,3.6,0.4,10.1,0.5,10.1c0.2,0.1,2.7-1.3,2.6-7.4C-2575.2-540.7-2575.3-543.3-2577.4-544z M-2569.8-550.2
			c-1.2-1.8-3.3-2.5-4.9-2.6c-2.8-0.2-4.1,0.8-4.1,0.8s4.5,0.2,5.8,1.9c2.4,3.2,6,3.5,6.5,2.8c-0.7,0-1.4-0.3-2.2-1
			C-2569-548.9-2569.4-549.7-2569.8-550.2"/>
	</g>
	<g id="g3226" transform="translate(759.5529,781.6744)">
		<path id="path3228" class="st1" d="M-2567.4-567.5c0,0,1.4-0.5,1.8-3.4c0.4-2.9-0.5-5.5-0.5-5.5s0.1,4.1-0.4,4.9s-0.9,1-1.4,2.1
			C-2568.5-568.5-2567.7-567.8-2567.4-567.5 M-2561.6-551.6c0.2-0.6,1-2.9,1.2-5.1c0.3-2.6,0.2-6.3,0.2-6.3s-0.6,2.5-1.2,2.9
			c-0.6,0.4-1.6,3.1-1.6,3.1s-0.6,4-0.8,5.4C-2563.1-551.5-2562.5-551.9-2561.6-551.6 M-2557.6-546.1c0,0,0.6,3.6,3,3.6
			c2,0,2.6-3.1,2.6-3.7C-2552-546.1-2557.6-546.1-2557.6-546.1z"/>
	</g>
	<g id="g3230" transform="translate(760.8453,796.9636)">
		<path id="path3232" class="st2" d="M-2567-601.9l-0.3-0.2C-2568.1-602.1-2567-601.9-2567-601.9"/>
	</g>
	<g id="g3234" transform="translate(768.9957,795.7267)">
		<path id="path3236" class="st0" d="M-2565-599.1c0,0-1.3-0.2-1.9-1.2c-0.6-1-2.4-2.9-5.3-2.9c-2.9,0-5.7,0.8-5.7,0.8l2.5,1.6
			c0.3,0,0.7,0,1.5,0c3.1,0.1,3.6,3.2,3.6,3.2l11-1.5"/>
	</g>
	<g id="g3238" transform="translate(769.8452,782.1039)">
		<path id="path3240" class="st3" d="M-2564.8-568.5c0,0-1.5,1.5-3.8,1c-2.3-0.5-3.7-1.5-3.8-3.2c-0.1-1.8,0.5-2.4,0.5-2.4
			s2.5,0.8,3.8,1.9C-2566.9-570.2-2565.9-568.5-2564.8-568.5z"/>
	</g>
	<g id="g3242" transform="translate(768.4064,782.5286)">
		<path id="path3244" class="st4" d="M-2565.1-569.5c0,0-1.3,0.6-2.7,0.1c-1.9-0.6-2-2.6-2-2.6s-1.2,3.4,2.1,4c2.6,0.5,4.1-1,4.1-1
			L-2565.1-569.5z"/>
	</g>
	<g id="g3246" transform="translate(759.4205,782.5699)">
		<path id="path3248" class="st5" d="M-2567.4-569.5c0,0,1.3-1.6,1.7-4.8c0.2-1.3-0.1-3.7-0.6-4.7c0.1,2.3-0.5,4.7-0.5,4.7
			S-2567.1-570-2567.4-569.5 M-2564.6-582.3c-1.1-0.9-0.3-1.7-0.3-2.7c0-0.5-0.1-1-0.3-1.3c-1-1.5-3.3-2-3.3-2l-1.1-0.2l0.7-0.8
			c0.1-0.1,3-2.9,7.5-1.4c3.2,1,5.5,4.5,5.6,4.6l-1.6,0.7c0,0-1.9-3.3-4.6-4.1c-2.2-0.7-4.2,0-5.1,0.4c0.9,0.4,2.1,1,2.8,2.2
			c0.3,0.5,0.4,1.2,0.5,1.9c0.1,0.9,0.1,1.7,0.8,2.2C-2562.9-582.8-2564.6-582.3-2564.6-582.3z M-2555.2-586.7
			c-0.1-2.9,2.2-5.2,3.1-5.3c0,0.5,0,2.4,0.8,3c0.2-1.6,1.1-3.3,4.3-4.4c-0.7,1.8-0.1,3.4,0.2,4.1c2.2-2,3.7-1.7,3.7-1.7
			s-1.5,2.6-0.9,4.4C-2548.6-587.1-2555.2-586.2-2555.2-586.7z"/>
	</g>
	<g id="g3250" transform="translate(762.7484,783.5123)">
		<path id="path3252" class="st5" d="M-2566.6-571.7c0,0-0.7-1-0.6-2.1c0.1-0.5,0.3-1.1,0.8-1.3c0.8-0.4,1.2,0.6,1.2,0.6
			S-2566.3-574.2-2566.6-571.7 M-2563.7-584.9c0,0-0.4-1.9-1.6-2.8c-1.7-1.3-3.7-0.6-3.7-0.6l-0.3-0.9c0.1,0,2.4-0.8,4.5,0.7
			c2.1,1.5,2.4,2.9,2.4,3C-2562.4-585.4-2563.7-584.9-2563.7-584.9z"/>
	</g>
	<g id="g3254" transform="translate(768.8519,782.2993)">
		<path id="path3256" class="st5" d="M-2565-568.9C-2565-568.9-2565-568.8-2565-568.9c0,0.1-2.1,1.7-4.3,0.1c-1.2-0.9-1.1-3.1-0.7-4
			c0.9,0.2,1.8,0.6,2.4,1.1c-0.8-0.8-1.6-1.3-1.6-1.3l-1-0.3l-1.9-0.6c0,0.1-0.7,3.3,1.3,5.5c0.9,1,5,3.1,6.9-0.6L-2565-568.9z"/>
	</g>
	<g id="g3258" transform="translate(768.6895,782.1086)">
		<path id="path3260" class="st5" d="M-2565.1-568.5c1.2,1.9,4.3,0.8,4.2-1.2c0,0-2.1,1.1-3.9-1c-1.1-1.2-4.5-4.6-9.1-3.5
			C-2570.6-573.4-2566.4-570.5-2565.1-568.5z"/>
	</g>
	<g id="g3262" transform="translate(761.3841,777.9155)">
		<path id="path3264" class="st5" d="M-2566.9-559.1c0.3,0.2,1.3,1.2,1.3,2.8c0,0.8-0.1,4.8-0.5,7.3c0.6,0.4,1,0.5,1.6,0.9
			c0.3-2.9,0.5-7,0.4-8.7c-0.1-1.9-1.1-3.2-2.1-3.7c-0.3-0.2-0.6-0.3-0.9-0.5c-1.6-0.9-3.3-1.8-3.3-3.3c0-1.2,0.5-1.6,1-2l0.1,0
			c0.3-0.3,0.7-0.6,0.9-1.1c0.6-1.4,0.7-4.8,0-5.7c-0.4-0.4-1.3-1.9-1-2.9c0.1-0.4,0.3-0.7,0.7-0.9c0.4-0.2,1-0.3,1.6-0.3
			c1.3,0,2.8,0.4,3.6,0.7c2.7,0.9,6,3.4,7,4.1c0,0,0,0,0,0l0.6,0.4l-0.4-0.6c0,0-2.4-4-6.7-5.4c-0.8-0.3-2.5-0.8-4.1-0.8
			c-1,0-1.8,0.2-2.4,0.5c-0.8,0.4-1.3,1-1.5,1.9c-0.5,2,1.2,4.2,1.3,4.3c0.2,0.4,0.3,3-0.2,4.1c-0.1,0.1-0.2,0.3-0.5,0.5
			c-0.1,0.1-0.2,0.1-0.2,0.2c-0.7,0.5-1.7,1.3-1.7,3c0,2.4,2.4,3.7,4.4,4.8C-2567.5-559.4-2567.2-559.2-2566.9-559.1"/>
	</g>
	<g id="g3266" transform="translate(761.6667,792.7551)">
		<path id="path3268" class="st5" d="M-2566.8-592.5c-1.1-0.9-0.3-1.7-0.4-2.7c0-0.5-0.1-1-0.3-1.3c-1-1.5-3.3-2-3.3-2l-1.1-0.2
			l0.7-0.8c0.1-0.1,3-2.9,7.5-1.4c3.2,1,5.5,4.5,5.6,4.6l-1.6,0.7c0,0-1.9-3.3-4.6-4.1c-2.2-0.7-4.2,0-5.1,0.4
			c0.9,0.4,2.1,1,2.8,2.2c0.3,0.5,0.4,1.2,0.5,1.9c0.1,0.9,0.1,1.7,0.8,2.2L-2566.8-592.5z"/>
	</g>
	<g id="g3270" transform="translate(761.6393,792.6121)">
		<path id="path3272" class="st5" d="M-2566.8-592.1L-2566.8-592.1c-0.8-0.7-0.7-1.3-0.6-2c0.1-0.3,0.1-0.6,0.1-0.9
			c0-0.5-0.1-1-0.2-1.2c-0.9-1.5-3.1-1.9-3.2-1.9l-1.3-0.3l0.9-1c0,0,1.9-1.9,5.1-1.9c0.9,0,1.7,0.1,2.6,0.4
			c3.3,1.1,5.6,4.6,5.7,4.7l0.1,0.2l-1.9,0.9l-0.1-0.1c-0.2-0.3-2-3.3-4.5-4.1c-0.6-0.2-1.3-0.3-1.9-0.3c-1.2,0-2.2,0.3-2.7,0.5
			c0.9,0.4,1.9,1,2.6,2.1c0.4,0.6,0.4,1.3,0.5,1.9c0.1,0.8,0.1,1.6,0.7,2.1l0.2,0.2L-2566.8-592.1z"/>
	</g>
	<g id="g3274" transform="translate(765.0077,794.0821)">
		<path id="path3276" class="st5" d="M-2566-595.4c0,0-0.4-1.9-1.6-2.8c-1.7-1.3-3.7-0.6-3.7-0.6l-0.3-0.9c0.1,0,2.4-0.8,4.5,0.7
			c2.1,1.5,2.4,2.9,2.4,3L-2566-595.4z"/>
	</g>
	<g id="g3278" transform="translate(768.3521,758.697)">
		<path id="path3280" class="st5" d="M-2565.2-515.8c-6-0.5-8.2-6.2-8.2-7.4h1.6h-0.8h0.8c0,0.5,1.6,5.4,6.7,5.8L-2565.2-515.8z
			 M-2563-545l-1.7-0.1c0,0,0.4,0.8,0.7,1.8c0.3,1.1-0.3,2.8-0.3,2.8S-2562-543.1-2563-545 M-2563.5-520.3c-0.5,0-0.9-0.2-1.3-0.5
			c-0.3-0.2-1.1-1-1.5-2c-0.1-0.4-0.1-0.7,0.1-0.9c0.1-0.1,0.4-0.3,1-0.3h0.4c0.5,0,1.4,0,2.1,0h0.7c0.5,0,0.8,0.1,1,0.3
			c0.2,0.2,0.2,0.6,0.1,0.7c-0.1,0.3-0.6,1.2-1.4,2.1C-2562.6-520.5-2563-520.3-2563.5-520.3 M-2573.3-563.8c0.9,0,1.8,0.3,2.5,0.8
			c1,0.8,1.5,2.2,1.6,2.7l1.1-0.4c-0.1-0.4-0.5-1.5-2.3-2.8c-0.9-0.6-1.9-0.9-3-0.9c-0.6,0-1.1,0.1-1.3,0.2l0.2,0.6
			C-2574.3-563.7-2573.9-563.8-2573.3-563.8 M-2569.4-559.8l0-0.2c0,0-0.4-1.8-1.5-2.7c-0.6-0.5-1.4-0.8-2.3-0.8
			c-0.7,0-1.2,0.2-1.3,0.2l-0.2,0.1l-0.4-1.2l0.2,0c0.1,0,0.7-0.2,1.6-0.2c1.1,0,2.2,0.3,3.1,1c2.2,1.5,2.5,3,2.5,3.1l0,0.1
			C-2567.8-560.5-2569.4-559.8-2569.4-559.8z"/>
	</g>
	<g id="g3282" transform="translate(766.9932,766.8831)">
		<path id="path3284" class="st3" d="M-2565.5-534.2c-0.1-0.5-0.1-1.1,0-1.6c-0.5-0.3-1.3-0.5-1.9-0.7c-0.5-0.3-3.1,0.3-5-1.9
			c-2.4-2.8-1.9-4.5-1.9-4.5c-0.6,0.7-1.2,0.4-2.1,3.5c-0.9,3.1,0.4,5.3,3,7.5c1.2,1,2.9,1.5,4.3,1.6c-0.5-0.5,0.8-0.5,1.7-0.9
			c-0.1-0.7,0-1.4,0.6-2c0.3-0.3,0.8-0.6,1.2-0.7c0-0.1,0-0.1,0.1-0.2C-2565.5-534.1-2565.5-534.2-2565.5-534.2"/>
	</g>
	<g id="g3286" transform="translate(765.5314,764.4635)">
		<path id="path3288" class="st4" d="M-2565.9-528.8c-0.1-0.2-0.1-0.3-0.1-0.5c0-0.2-0.3-0.7,0-0.1c-0.1-0.1-0.1-0.3-0.1-0.4
			c-4.1,0-7.6-2.8-6.9-8.7c-0.5-0.7-1.3,1.4-1.3,1.4s-2,5.9,3.2,8.2c1.8,0.8,3.3,1.3,3.7,1.1c0.8,0.2,1.5-0.4,1.7-0.7
			C-2565.8-528.6-2565.8-528.7-2565.9-528.8"/>
	</g>
	<g id="g3290" transform="translate(766.9343,767.5668)">
		<path id="path3292" class="st5" d="M-2565.5-535.8c0-0.5,0.1-1,0.3-1.5c0,0,0-0.1,0.1-0.1c-1.6,0-3.4-0.2-4.9-0.8
			c-1.7-0.7-3.8-3-4.2-5.7c0,0-3.2,2.5-2.3,7.7c0.9,4.9,5,6.6,9.7,6.8c0,0-0.5-1.1-0.4-1.8c-2.7,0.2-5.7-0.8-7.1-3.2
			c-1.3-2.2-1-5.9-0.4-6.4C-2573.3-536.6-2568.5-535.7-2565.5-535.8"/>
	</g>
	<g id="g3294" transform="translate(767.3301,769.9671)">
		<path id="path3296" class="st5" d="M-2565.4-541.2c-0.8,2.5-2.6,4.5-2.6,4.5s2.4-0.1,2.5-0.5c0.1-0.3,2.2-5.1,2.9-10.8
			C-2563.3-546.8-2565.3-541.4-2565.4-541.2z"/>
	</g>
	<g id="g3298" transform="translate(777.1188,781.4305)">
		<path id="path3300" class="st1" d="M-2563-567c0,0,0.8,2,1.3,3.1c0.5,1.2,2.3,1.8,2.3,1.8s-1-1-1-3.6c0-1.1-1.4-1.5-1.4-1.5
			L-2563-567z M-2561.7-558.4c0,0,2.7,4.1,4.7,7.1c0.3,0.5-2,0.5-2,0.5S-2561.7-558.4-2561.7-558.4z"/>
	</g>
	<g id="g3302" transform="translate(787.1584,797.5209)">
		<path id="path3304" class="st1" d="M-2560.5-603.2c0,0-2.9-0.6-4.8,1c-1.9,1.5-2.5,2.7-2.5,2.7l3.2,2.6c0,0,1.6-0.7,2-2.8
			S-2562.3-602.8-2560.5-603.2 M-2572.2-581.9c0,0,1.7,2,4.8,0.9c3.1-1.1,3.4-5.1,3.4-6.2c0-1.1-5.9,1.1-6.7,1.6
			C-2571.5-585.2-2573-583.3-2572.2-581.9z"/>
	</g>
	<g id="g3306" transform="translate(773.6915,760.0891)">
		<path id="path3308" class="st1" d="M-2563.8-519c6.5,0,8.7-3.3,8.7-3.3l-1,2.5c-0.4,1.1-4.5,4.4-7.7,4.4 M-2556.8-562.6
			c2.1,1.1,5,2.6,5,2.6l-1.1,0.6c0.1,0.2,0.2,0.3,0.2,0.3l-1.2,0.5c0,0-2.9,2.1-4.6,3.4c0.6-1.8,2.3-4.6,2.3-4.6
			S-2555.8-561.2-2556.8-562.6 M-2550.2-544c0,0,5-1.7,4.1-3.5c-1-1.8-0.2-2.7-0.2-2.7s2.8,2.1,2.1,4.3c-0.4,1.4-1.2,2.4-5.2,4.3
			c-1.9,3.6-0.4,10.1-0.5,10.1c-0.2,0.1-2.7-1.3-2.6-7.4C-2552.5-540.7-2552.3-543.3-2550.2-544 M-2557.9-550.2
			c1.2-1.8,3.3-2.5,4.9-2.6c2.8-0.2,4.1,0.8,4.1,0.8s-4.5,0.2-5.8,1.9c-2.4,3.2-6,3.5-6.5,2.8c0.7,0,1.4-0.3,2.1-1
			C-2558.7-548.9-2558.3-549.7-2557.9-550.2"/>
	</g>
	<g id="g3310" transform="translate(787.8587,781.6744)">
		<path id="path3312" class="st1" d="M-2560.3-567.5c0,0-1.4-0.5-1.8-3.4c-0.4-2.9,0.5-5.5,0.5-5.5s-0.1,4.1,0.4,4.9
			c0.5,0.8,0.9,1,1.4,2.1C-2559.2-568.5-2560-567.8-2560.3-567.5 M-2566-551.6c-0.2-0.6-1-2.9-1.2-5.1c-0.3-2.6-0.2-6.3-0.2-6.3
			s0.6,2.5,1.2,2.9c0.6,0.4,1.6,3.1,1.6,3.1s0.6,4,0.8,5.4C-2564.5-551.5-2565.2-551.9-2566-551.6 M-2570-546.1c0,0-0.6,3.6-3,3.6
			c-2,0-2.6-3.1-2.6-3.7C-2575.6-546.1-2570-546.1-2570-546.1z"/>
	</g>
	<g id="g3314" transform="translate(786.5658,796.9636)">
		<path id="path3316" class="st2" d="M-2560.6-601.9l0.3-0.2C-2559.5-602.1-2560.6-601.9-2560.6-601.9"/>
	</g>
	<g id="g3318" transform="translate(778.415,795.7267)">
		<path id="path3320" class="st0" d="M-2562.6-599.1c0,0,1.3-0.2,1.9-1.2c0.6-1,2.4-2.9,5.3-2.9c2.9,0,5.7,0.8,5.7,0.8l-2.5,1.6
			c-0.3,0-0.7,0-1.5,0c-3.1,0.1-3.6,3.2-3.6,3.2l-11-1.5"/>
	</g>
	<g id="g3322" transform="translate(777.566,782.1039)">
		<path id="path3324" class="st3" d="M-2562.9-568.5c0,0,1.5,1.5,3.8,1c2.3-0.5,3.7-1.5,3.8-3.2c0.1-1.8-0.5-2.4-0.5-2.4
			s-2.5,0.8-3.8,1.9C-2560.8-570.2-2561.7-568.5-2562.9-568.5"/>
	</g>
	<g id="g3326" transform="translate(779.0045,782.5286)">
		<path id="path3328" class="st4" d="M-2562.5-569.5c0,0,1.3,0.6,2.7,0.1c1.9-0.6,2-2.6,2-2.6s1.2,3.4-2.1,4c-2.6,0.5-4.1-1-4.1-1
			L-2562.5-569.5z"/>
	</g>
	<g id="g3330" transform="translate(787.9902,782.5699)">
		<path id="path3332" class="st5" d="M-2560.2-569.5c0,0-1.3-1.6-1.7-4.8c-0.2-1.3,0.1-3.7,0.6-4.7c-0.1,2.3,0.5,4.7,0.5,4.7
			S-2560.5-570-2560.2-569.5 M-2563.1-582.3c1.1-0.9,0.3-1.7,0.4-2.7c0-0.5,0.1-1,0.3-1.3c1-1.5,3.3-2,3.3-2l1.1-0.2l-0.7-0.8
			c-0.1-0.1-3-2.9-7.5-1.4c-3.2,1-5.5,4.5-5.6,4.6l1.6,0.7c0,0,1.9-3.3,4.6-4.1c2.2-0.7,4.2,0,5.1,0.4c-0.9,0.4-2.1,1-2.8,2.2
			c-0.3,0.5-0.4,1.2-0.5,1.9c-0.1,0.9-0.1,1.7-0.8,2.2C-2564.8-582.8-2563.1-582.3-2563.1-582.3z"/>
	</g>
	<g id="g3334" transform="translate(784.6628,783.5123)">
		<path id="path3336" class="st5" d="M-2561.1-571.7c0,0,0.7-1,0.6-2.1c-0.1-0.5-0.3-1.1-0.8-1.3c-0.8-0.4-1.2,0.6-1.2,0.6
			S-2561.3-574.2-2561.1-571.7 M-2563.9-584.9c0,0,0.4-1.9,1.6-2.8c1.7-1.3,3.7-0.6,3.7-0.6l0.3-0.9c-0.1,0-2.4-0.8-4.5,0.7
			c-2.1,1.5-2.4,2.9-2.4,3C-2565.3-585.4-2563.9-584.9-2563.9-584.9z"/>
	</g>
	<g id="g3338" transform="translate(778.5594,782.2993)">
		<path id="path3340" class="st5" d="M-2562.6-568.9C-2562.6-568.9-2562.6-568.8-2562.6-568.9c0,0.1,2.1,1.7,4.3,0.1
			c1.2-0.9,1.1-3.1,0.7-4c-0.9,0.2-1.8,0.6-2.4,1.1c0.8-0.8,1.6-1.3,1.6-1.3l1-0.3l1.9-0.6c0,0.1,0.7,3.3-1.3,5.5
			c-0.9,1-5,3.1-6.9-0.6L-2562.6-568.9z"/>
	</g>
	<g id="g3342" transform="translate(778.7213,782.1086)">
		<path id="path3344" class="st5" d="M-2562.6-568.5c-1.2,1.9-4.3,0.8-4.2-1.2c0,0,2.1,1.1,3.9-1c1.1-1.2,4.5-4.6,9.1-3.5
			C-2557-573.4-2561.3-570.5-2562.6-568.5"/>
	</g>
	<g id="g3346" transform="translate(786.0276,777.9155)">
		<path id="path3348" class="st5" d="M-2560.7-559.1c-0.3,0.2-1.3,1.2-1.3,2.8c0,0.8,0.1,4.8,0.5,7.3c-0.6,0.4-1,0.5-1.6,0.9
			c-0.3-2.9-0.5-7-0.4-8.7c0.1-1.9,1.1-3.2,2.1-3.7c0.3-0.2,0.6-0.3,0.9-0.5c1.6-0.9,3.3-1.8,3.3-3.3c0-1.2-0.5-1.6-1-2l-0.1,0
			c-0.3-0.3-0.7-0.6-0.9-1.1c-0.6-1.4-0.7-4.8,0-5.7c0.4-0.4,1.3-1.9,1-2.9c-0.1-0.4-0.3-0.7-0.7-0.9c-0.4-0.2-1-0.3-1.6-0.3
			c-1.3,0-2.8,0.4-3.6,0.7c-2.7,0.9-6,3.4-7,4.1c0,0,0,0,0,0l-0.6,0.4l0.4-0.6c0,0,2.4-4,6.7-5.4c0.8-0.3,2.5-0.8,4.1-0.8
			c1,0,1.8,0.2,2.4,0.5c0.8,0.4,1.3,1,1.5,1.9c0.5,2-1.2,4.2-1.3,4.3c-0.2,0.4-0.3,3,0.2,4.1c0.1,0.1,0.2,0.3,0.5,0.5
			c0.1,0.1,0.1,0.1,0.2,0.2c0.7,0.5,1.7,1.3,1.7,3c0,2.4-2.4,3.7-4.4,4.8C-2560.1-559.4-2560.5-559.2-2560.7-559.1z"/>
	</g>
	<g id="g3350" transform="translate(783.6938,792.9822)">
		<path id="path3352" class="st5" d="M-2561.3-593c-0.4-0.7-1.4-1.9-3.7-3c-2.6-1.2-5.5-1.9-8.8-1.9v0h0l0,0c-3.3,0-6.2,0.6-8.8,1.9
			c-2.3,1.1-3.3,2.4-3.7,3l-0.2,0.2l2,0.4l0.1-0.1l0-0.1c0-0.1,0.3-0.8,2.5-1.9c2.3-1.1,5.1-1.7,8.1-1.7c3,0,5.8,0.6,8.1,1.7
			c2.2,1.1,2.5,1.8,2.5,1.9l0,0.1l0.1,0.1l2-0.4L-2561.3-593z"/>
	</g>
	<g id="g3354" transform="translate(785.7444,792.7551)">
		<path id="path3356" class="st5" d="M-2560.8-592.5c1.1-0.9,0.3-1.7,0.4-2.7c0-0.5,0.1-1,0.3-1.3c1-1.5,3.3-2,3.3-2l1.1-0.2
			l-0.7-0.8c-0.1-0.1-3-2.9-7.5-1.4c-3.2,1-5.5,4.5-5.6,4.6l1.6,0.7c0,0,1.9-3.3,4.6-4.1c2.2-0.7,4.2,0,5.1,0.4
			c-0.9,0.4-2.1,1-2.8,2.2c-0.3,0.5-0.4,1.2-0.5,1.9c-0.1,0.9-0.1,1.7-0.8,2.2L-2560.8-592.5z"/>
	</g>
	<g id="g3358" transform="translate(784.1257,793.1513)">
		<path id="path3360" class="st5" d="M-2561.2-593.4l0.2-0.2c0.6-0.5,0.7-1.3,0.7-2.1c0.1-0.7,0.1-1.4,0.5-1.9
			c0.7-1,1.7-1.7,2.6-2.1c-0.5-0.2-1.5-0.5-2.7-0.5c-0.7,0-1.3,0.1-1.9,0.3c-2.5,0.8-4.3,3.7-4.5,4.1l-0.1,0.1l-1.9-0.9l0.1-0.2
			c0,0,2.4-3.6,5.7-4.7c0.9-0.3,1.8-0.4,2.6-0.4c3.2,0,5,1.9,5.1,1.9l0.9,1l-1.3,0.3c0,0-2.2,0.5-3.2,1.9c-0.2,0.2-0.2,0.7-0.2,1.2
			c0,0.3,0,0.6,0.1,0.9c0.1,0.6,0.3,1.3-0.5,1.9l-0.1,0.1L-2561.2-593.4z"/>
	</g>
	<g id="g3362" transform="translate(782.4037,794.0821)">
		<path id="path3364" class="st5" d="M-2561.6-595.4c0,0,0.4-1.9,1.6-2.8c1.7-1.3,3.7-0.6,3.7-0.6l0.3-0.9c-0.1,0-2.4-0.8-4.5,0.7
			c-2.1,1.5-2.4,2.9-2.4,3L-2561.6-595.4z"/>
	</g>
	<g id="g3366" transform="translate(777.3635,782.0214)">
		<path id="path3368" class="st5" d="M-2562.9-568.3l1.7-0.1c0,0-0.4,0.8-0.7,1.8c-0.3,1.1,0.3,2.8,0.3,2.8
			S-2563.9-566.5-2562.9-568.3 M-2563.6-544.1c-0.8-0.9-1.3-1.8-1.4-2.1c-0.1-0.2-0.1-0.5,0.1-0.7c0.2-0.2,0.5-0.3,1-0.3h0.7
			c0.7,0,1.6,0,2.1,0h0.4c0.6,0,0.9,0.2,1,0.3c0.2,0.2,0.2,0.5,0.1,0.9c-0.4,1-1.2,1.8-1.5,2c-0.3,0.3-0.8,0.5-1.3,0.5
			C-2562.9-543.6-2563.3-543.8-2563.6-544.1 M-2551.4-587l0.2-0.6c-0.2-0.1-0.7-0.2-1.3-0.2c-1.1,0-2.1,0.3-3,0.9
			c-1.8,1.3-2.2,2.4-2.3,2.8l1.1,0.4c0.1-0.5,0.6-1.9,1.6-2.7c0.7-0.5,1.6-0.8,2.5-0.8C-2552.1-587.1-2551.6-587-2551.4-587z
			 M-2558.2-583.8l0-0.1c0-0.2,0.3-1.6,2.5-3.1c0.9-0.6,2-1,3.1-1c0.9,0,1.5,0.2,1.6,0.2l0.2,0l-0.4,1.2l-0.2,0
			c-0.1,0-0.6-0.2-1.3-0.2c-0.9,0-1.7,0.3-2.3,0.8c-1.1,0.9-1.5,2.7-1.5,2.7l0,0.2L-2558.2-583.8z"/>
	</g>
	<g id="g3370" transform="translate(773.7058,786.8716)">
		<path id="path3372" class="st1" d="M-2563.8-579.2c-1.1,0-2.5,0-3.6-0.8c0,0,1.4,2.4,3.6,2.4l0-0.3l0,0.3c2.2,0,3.6-2.4,3.6-2.4
			C-2561.3-579.3-2562.7-579.2-2563.8-579.2"/>
	</g>
	<g id="g3374" transform="translate(779.0593,758.697)">
		<path id="path3376" class="st5" d="M-2562.5-515.8l-0.1-1.6c5.1-0.4,6.7-5.3,6.7-5.8h1.6C-2554.3-522-2556.4-516.3-2562.5-515.8
			 M-2566.2-551.1c-1.1,0.7-2.1,0.9-3,0.9c-0.9,0-1.9-0.2-3-0.9c0,0,1.6,1.9,3,1.9v0c0,0,0,0,0,0c0,0,0,0,0,0v0
			C-2567.8-549.1-2566.2-551.1-2566.2-551.1"/>
	</g>
	<g id="g3378" transform="translate(780.4178,766.8831)">
		<path id="path3380" class="st3" d="M-2562.1-534.2c0.1-0.5,0.1-1.1,0-1.6c0.5-0.3,1.3-0.5,1.9-0.7c0.5-0.3,3.1,0.3,5-1.9
			c2.4-2.8,1.9-4.5,1.9-4.5c0.6,0.7,1.2,0.4,2.1,3.5c0.9,3.1-0.4,5.3-3,7.5c-1.2,1-2.9,1.5-4.3,1.6c0.5-0.5-0.8-0.5-1.7-0.9
			c0.1-0.7-0.1-1.4-0.6-2c-0.3-0.3-0.8-0.6-1.2-0.7c0-0.1,0-0.1-0.1-0.2C-2562.2-534.1-2562.1-534.2-2562.1-534.2z"/>
	</g>
	<g id="g3382" transform="translate(781.8793,764.4635)">
		<path id="path3384" class="st4" d="M-2561.8-528.8c0.1-0.2,0.1-0.3,0.1-0.5c0-0.2,0.3-0.7,0-0.1c0.1-0.1,0.1-0.3,0.1-0.4
			c4.1,0,7.6-2.8,6.9-8.7c0.5-0.7,1.3,1.4,1.3,1.4s2,5.9-3.2,8.2c-1.8,0.8-3.3,1.3-3.7,1.1c-0.8,0.2-1.5-0.4-1.7-0.7
			C-2561.9-528.6-2561.8-528.7-2561.8-528.8"/>
	</g>
	<g id="g3386" transform="translate(780.4764,767.5668)">
		<path id="path3388" class="st5" d="M-2562.1-535.8c0-0.5-0.1-1-0.3-1.5c0,0,0-0.1-0.1-0.1c1.6,0,3.4-0.2,4.9-0.8
			c1.7-0.7,3.8-3,4.2-5.7c0,0,3.2,2.5,2.3,7.7c-0.9,4.9-5,6.6-9.7,6.8c0,0,0.5-1.1,0.4-1.8c2.7,0.2,5.7-0.8,7.1-3.2
			c1.3-2.2,1-5.9,0.4-6.4C-2554.3-536.6-2559.1-535.7-2562.1-535.8"/>
	</g>
	<g id="g3390" transform="translate(781.1161,763.8723)">
		<path id="path3392" class="st5" d="M-2562-527.5c-0.7,2.1-2.7,7.1-9.3,7.1c-6.6,0-8.5-5-9.3-7.1c-0.4-1.1-0.4-2,0.1-2.5
			c0.3-0.4,1-0.8,2.7-0.8h1.7c1.3,0,2.9,0,4.8,0c1.9,0,3.5,0,4.8,0h1.7c1.6,0,2.4,0.4,2.7,0.8
			C-2561.6-529.5-2561.6-528.6-2562-527.5z M-2560.9-530.9c-0.6-0.6-1.6-1.3-4-1.3l-6.4,0h0c-1.8,0-6.4,0-6.4,0
			c-2.4,0-3.4,0.7-4,1.3c-0.8,0.9-1,2.1-0.4,3.7c1.5,4.1,3.6,8.3,10.7,8.3v0c0,0,0,0,0,0c0,0,0,0,0,0v0c7.1,0,9.2-4.2,10.7-8.3
			C-2559.9-528.7-2560-530-2560.9-530.9"/>
	</g>
	<g id="g3394" transform="translate(780.0809,769.9671)">
		<path id="path3396" class="st5" d="M-2562.2-541.2c0.9,2.5,2.6,4.5,2.6,4.5s-2.4-0.1-2.5-0.5c-0.1-0.3-2.2-5.1-2.9-10.8
			C-2564.4-546.8-2562.3-541.4-2562.2-541.2z"/>
	</g>
	<g class="st6">
		<path d="M-1752.6,228.1v-20.2l4.8-4.8h11.6l4.8,4.8v5.3h-4.8v-3.5l-2.1-2.1h-7.4l-2.1,2.1v16.8l2.1,2.1h7.4l2.1-2.1v-5.1h-6.4
			v-4.4h9.7l1.6,1.6v9.6l-4.8,4.8h-11.6L-1752.6,228.1z"/>
	</g>
	<g class="st6">
		<path d="M-1727,210.6l3.9-1l0.8,3.2l2.4-2.8h7l5,4.8l-3.2,3.3l-3.8-3.7h-3.7l-2.3,2.6v15.8h-4.8V216L-1727,210.6z"/>
	</g>
	<g class="st6">
		<path d="M-1705.6,228.9v-18.8h4.8v17.1l1.3,1.3h5.3l2.3-2.6v-15.8h4.8V227l1.3,5.3l-3.9,1l-0.8-3.2l-2.4,2.8h-8.7L-1705.6,228.9z"
			/>
	</g>
	<g class="st6">
		<path d="M-1681.9,210.6l3.9-1l0.8,3.2l2.4-2.8h8.7l4,4v18.8h-4.8v-17.1l-1.3-1.3h-5.3l-2.3,2.6v15.8h-4.8V216L-1681.9,210.6z"/>
	</g>
	<g class="st6">
		<path d="M-1658.8,214.9v-4.4h3.8v-6.2h4.8v6.2h6.1v4.4h-6.1v12.3l1.3,1.3h2.8l4.6-1.4l1.3,4.2l-5.4,1.7h-5.5l-4-4v-14H-1658.8z"/>
	</g>
</g>
</svg>
