<?xml version="1.0" encoding="utf-8"?>
<!-- Generator: Adobe Illustrator 19.1.1, SVG Export Plug-In . SVG Version: 6.00 Build 0)  -->
<svg version="1.1" id="GulpJS_1_" xmlns="http://www.w3.org/2000/svg" xmlns:xlink="http://www.w3.org/1999/xlink" x="0px" y="0px"
	 viewBox="88 -6 45.9 46.3" style="enable-background:new 88 -6 45.9 46.3;" xml:space="preserve">
<style type="text/css">
	.st0{fill:#CF4547;}
	.st1{fill:#FFFFFF;}
</style>
<g id="GulpJS">
	<path class="st0" d="M87.7-6h46.3v46.3H87.7V-6z"/>
	<path class="st1" d="M101.3,17.5c0,0-0.1,0.2-0.2,0.4c-0.1,0.2-0.2,0.5-0.3,0.8c-0.1,0.3-0.2,0.7-0.3,1.1c-0.1,0.4-0.3,0.8-0.4,1.3
		c-0.1,0.4-0.3,0.9-0.4,1.3c-0.1,0.4-0.2,0.8-0.3,1.1c-0.1,0.3-0.2,0.6-0.2,0.8c-0.1,0.2-0.1,0.4-0.1,0.4c0,0.1-0.1,0.3-0.2,0.4
		c-0.1,0.2-0.2,0.3-0.3,0.5c-0.1,0.1-0.2,0.3-0.4,0.4s-0.3,0.1-0.4,0.1c-0.2,0-0.4-0.1-0.5-0.2s-0.2-0.4-0.2-0.8V25
		c0-0.1,0-0.1,0-0.2c0-0.1,0.1-0.4,0.2-0.8c0.1-0.4,0.2-0.8,0.4-1.3c0.1-0.5,0.3-1,0.4-1.5c0.2-0.5,0.3-1,0.4-1.3
		c-0.4,0.4-0.8,0.8-1.2,1.3c-0.4,0.4-0.9,0.8-1.4,1.1c-0.5,0.3-0.9,0.6-1.4,0.8c-0.5,0.2-0.9,0.3-1.4,0.3c-0.5,0-0.9-0.1-1.3-0.3
		c-0.4-0.2-0.7-0.5-0.9-0.9c-0.2-0.4-0.4-0.8-0.5-1.2s-0.2-0.9-0.2-1.3v-0.2c0-0.1,0-0.1,0-0.2c0-0.8,0.2-1.6,0.3-2.5
		c0.2-0.9,0.4-1.7,0.7-2.5c0.3-0.8,0.7-1.7,1.1-2.5c0.4-0.8,0.8-1.6,1.3-2.3c0.5-0.7,1-1.4,1.5-2s1.1-1.1,1.6-1.6
		c0.6-0.4,1.1-0.8,1.7-1s1.1-0.4,1.7-0.4c0.6,0,1.3,0.2,1.9,0.5c0.6,0.4,1.2,0.9,1.7,1.7c0.1,0.2,0.2,0.4,0.2,0.5c0,0.2,0,0.4,0,0.5
		c0,0.4-0.1,0.7-0.3,0.9c-0.2,0.2-0.4,0.3-0.6,0.3c-0.2,0-0.4-0.1-0.6-0.4c-0.2-0.2-0.4-0.6-0.7-1c-0.2-0.4-0.5-0.7-0.8-0.9
		c-0.3-0.2-0.6-0.3-0.9-0.3c-0.5,0-1,0.2-1.6,0.6c-0.6,0.4-1.1,1-1.7,1.6c-0.6,0.7-1.1,1.5-1.6,2.3c-0.5,0.9-1,1.8-1.4,2.7
		c-0.4,0.9-0.7,1.8-0.9,2.7c-0.2,0.9-0.3,1.7-0.3,2.4c0,0.2,0,0.5,0,0.7c0,0.2,0.1,0.5,0.2,0.7c0.1,0.2,0.2,0.4,0.4,0.5
		c0.2,0.1,0.3,0.2,0.6,0.2c0.3,0,0.6-0.1,0.9-0.3c0.3-0.2,0.7-0.4,1-0.7c0.4-0.3,0.7-0.6,1.1-1c0.4-0.4,0.7-0.7,1-1.1
		c0.3-0.4,0.6-0.7,0.8-1.1c0.2-0.3,0.4-0.6,0.5-0.9l1-3c0.1-0.3,0.3-0.5,0.5-0.7c0.2-0.1,0.4-0.2,0.6-0.2c0.1,0,0.2,0,0.3,0.1
		c0.1,0,0.2,0.1,0.3,0.2c0.1,0.1,0.1,0.2,0.2,0.3c0,0.1,0.1,0.2,0.1,0.4c0,0.4,0,0.8-0.1,1.1c-0.1,0.4-0.2,0.7-0.3,1
		c-0.1,0.3-0.2,0.7-0.4,1C101.6,16.8,101.4,17.1,101.3,17.5L101.3,17.5z M114.8,20c-0.3,0.4-0.7,0.8-1.1,1.2
		c-0.4,0.4-0.8,0.8-1.3,1.1c-0.4,0.3-0.9,0.6-1.3,0.8c-0.4,0.2-0.8,0.3-1.2,0.3c-0.3,0-0.6-0.1-0.8-0.3c-0.2-0.2-0.3-0.6-0.3-1.2
		c0-0.4,0.1-0.8,0.2-1.4c-0.2,0.3-0.4,0.7-0.7,1c-0.3,0.3-0.6,0.6-1,0.9s-0.8,0.5-1.2,0.7c-0.4,0.2-0.9,0.3-1.4,0.3
		c-0.2,0-0.5,0-0.7-0.1s-0.4-0.2-0.6-0.3s-0.3-0.3-0.4-0.6c-0.1-0.2-0.1-0.5-0.1-0.9c0,0,0-0.1,0-0.4c0-0.2,0.1-0.6,0.3-1.2
		c0.2-0.5,0.4-1.2,0.7-2.1c0.3-0.9,0.8-1.9,1.4-3.1c0.1-0.3,0.3-0.5,0.5-0.7c0.2-0.1,0.4-0.2,0.6-0.2c0.1,0,0.2,0,0.3,0
		c0.1,0,0.2,0.1,0.3,0.1c0.1,0.1,0.2,0.1,0.2,0.2c0.1,0.1,0.1,0.2,0.1,0.3c0,0.1,0,0.2,0,0.2c0,0.1-0.1,0.3-0.2,0.6
		c-0.1,0.2-0.3,0.5-0.4,0.8c-0.2,0.3-0.3,0.6-0.5,1c-0.2,0.3-0.3,0.7-0.5,1.1c-0.1,0.4-0.3,0.7-0.4,1.1c-0.1,0.4-0.2,0.8-0.2,1.1
		c0,0.2,0,0.3,0.1,0.4c0.1,0.1,0.2,0.2,0.4,0.2c0.5,0,0.9-0.2,1.3-0.5c0.4-0.3,0.8-0.7,1.2-1.1c0.4-0.5,0.7-0.9,1-1.5
		c0.3-0.5,0.5-1,0.7-1.4c0.1-0.3,0.3-0.6,0.4-0.9c0.1-0.3,0.2-0.6,0.3-0.9s0.3-0.5,0.4-0.7c0.2-0.2,0.4-0.3,0.6-0.3
		c0.3,0,0.5,0.1,0.6,0.3c0.1,0.2,0.2,0.4,0.2,0.7c0,0.2,0,0.4-0.1,0.6c-0.1,0.3-0.2,0.6-0.4,0.9c-0.1,0.3-0.3,0.7-0.5,1.1
		c-0.2,0.4-0.3,0.8-0.5,1.2c-0.1,0.4-0.3,0.8-0.4,1.2c-0.1,0.4-0.1,0.7-0.1,1.1c0,0.3,0.2,0.5,0.5,0.5c0.2,0,0.5-0.1,0.8-0.2
		s0.7-0.4,1-0.6c0.4-0.3,0.7-0.6,1.1-1c0.4-0.4,0.7-0.8,1-1.2L114.8,20L114.8,20z"/>
	<path class="st1" d="M115.1,19.3c-0.1,0.2-0.2,0.4-0.2,0.7c-0.1,0.3-0.1,0.5-0.1,0.7c0,0.1,0,0.2,0.1,0.3s0.1,0.1,0.2,0.1
		c0.1,0,0.3-0.1,0.6-0.2c0.2-0.1,0.5-0.2,0.7-0.4c0.3-0.2,0.5-0.4,0.8-0.6c0.3-0.2,0.6-0.5,0.8-0.7c0.3-0.2,0.5-0.5,0.8-0.7
		c0.3-0.2,0.5-0.5,0.7-0.7c0.1-0.1,0.1-0.1,0.2-0.1c0.1,0,0.1,0,0.2,0c0.1,0,0.3,0.1,0.4,0.2c0.1,0.1,0.1,0.3,0.1,0.5
		c0,0.2,0,0.4-0.1,0.6c-0.1,0.2-0.3,0.4-0.5,0.6c-0.5,0.5-0.9,1-1.4,1.4c-0.5,0.4-0.9,0.8-1.4,1.2s-0.9,0.6-1.4,0.8
		c-0.5,0.2-0.9,0.3-1.3,0.3c-0.3,0-0.5,0-0.7-0.1c-0.2-0.1-0.4-0.2-0.5-0.4c-0.1-0.2-0.2-0.4-0.3-0.6c0-0.2-0.1-0.5-0.1-0.7
		c0-0.4,0.1-0.8,0.2-1.3c0.1-0.4,0.2-0.8,0.4-1.2c0.2-0.7,0.5-1.3,0.8-2c0.3-0.6,0.5-1.2,0.7-1.8l3.2-8.2c0.1-0.3,0.3-0.6,0.5-0.7
		c0.2-0.1,0.4-0.2,0.7-0.2c0.2,0,0.4,0.1,0.6,0.2c0.2,0.1,0.3,0.4,0.3,0.7c0,0.2,0,0.3-0.1,0.5c-0.1,0.2-0.1,0.4-0.2,0.5
		c-0.2,0.4-0.4,0.9-0.6,1.5c-0.2,0.6-0.5,1.2-0.8,1.9c-0.3,0.7-0.6,1.4-0.9,2.1c-0.3,0.7-0.6,1.4-0.9,2.1c-0.3,0.7-0.5,1.3-0.8,2
		C115.5,18.3,115.3,18.9,115.1,19.3L115.1,19.3z"/>
	<path class="st1" d="M130.2,17c0.1-0.1,0.2-0.1,0.3-0.2s0.2-0.1,0.2-0.1c0.2,0,0.3,0.1,0.4,0.2c0.1,0.1,0.1,0.3,0.1,0.5
		c0,0.2,0,0.4-0.1,0.7c-0.1,0.2-0.2,0.4-0.4,0.6c-0.8,0.7-1.4,1.3-2,1.8c-0.6,0.6-1.2,1-1.7,1.4c-0.5,0.4-1,0.7-1.6,0.9
		c-0.5,0.2-1,0.3-1.6,0.3c-0.5,0-1-0.1-1.3-0.4c-0.3-0.2-0.4-0.6-0.4-1v-0.1c0,0,0-0.1,0-0.1c0-0.3,0.1-0.5,0.3-0.9
		c0.2-0.3,0.4-0.7,0.7-1s0.6-0.7,0.9-1.1c0.3-0.4,0.6-0.7,0.8-1c0.3-0.3,0.5-0.6,0.6-0.9c0.2-0.3,0.3-0.5,0.3-0.7
		c0-0.1,0-0.2-0.1-0.2c-0.1-0.1-0.2-0.1-0.4-0.1c-0.3,0-0.6,0.1-0.9,0.2c-0.3,0.1-0.6,0.3-0.9,0.6c-0.3,0.2-0.6,0.5-0.9,0.9
		c-0.3,0.3-0.5,0.7-0.8,1c-0.2,0.3-0.5,0.7-0.7,1c-0.2,0.4-0.4,0.7-0.5,1c0,0.1-0.1,0.2-0.2,0.4c-0.1,0.2-0.2,0.4-0.3,0.6
		c-0.1,0.2-0.2,0.4-0.3,0.7c-0.1,0.2-0.2,0.4-0.3,0.6c-0.1,0.2-0.2,0.4-0.2,0.5c-0.1,0.2-0.1,0.3-0.1,0.3c0,0.1-0.1,0.2-0.2,0.4
		c-0.1,0.2-0.2,0.5-0.3,0.7c-0.1,0.3-0.2,0.6-0.3,0.9c-0.1,0.3-0.2,0.6-0.3,0.9s-0.2,0.5-0.3,0.7c-0.1,0.2-0.1,0.4-0.2,0.4
		c-0.1,0.2-0.2,0.4-0.3,0.6c-0.1,0.2-0.2,0.4-0.3,0.5c-0.1,0.1-0.3,0.3-0.4,0.4c-0.2,0.1-0.3,0.1-0.5,0.1c-0.3,0-0.5-0.1-0.6-0.2
		c-0.2-0.1-0.3-0.4-0.3-0.7c0-0.2,0-0.3,0.1-0.5s0.1-0.4,0.2-0.5c0.1-0.2,0.1-0.3,0.2-0.5c0.1-0.2,0.1-0.3,0.2-0.5
		c0.4-0.8,0.8-1.7,1.2-2.5c0.4-0.8,0.8-1.7,1.1-2.5c0.4-0.8,0.7-1.6,1-2.4c0.3-0.8,0.6-1.6,0.8-2.3c0.1-0.2,0.1-0.4,0.2-0.6
		c0.1-0.3,0.2-0.6,0.3-0.8c0.1-0.3,0.3-0.5,0.4-0.7c0.2-0.2,0.3-0.3,0.5-0.3c0.3,0,0.5,0.1,0.6,0.2c0.1,0.1,0.2,0.3,0.2,0.6
		c0,0.1,0,0.1,0,0.2c0,0.1,0,0.2-0.1,0.3c0,0.1,0,0.2-0.1,0.3c0,0.1,0,0.2-0.1,0.2c0.3-0.3,0.5-0.6,0.9-0.9c0.3-0.3,0.6-0.5,1-0.8
		c0.3-0.2,0.7-0.4,1-0.6c0.3-0.1,0.7-0.2,1-0.2c0.2,0,0.5,0,0.7,0.1c0.2,0.1,0.4,0.2,0.6,0.3c0.2,0.1,0.3,0.3,0.4,0.5
		c0.1,0.2,0.2,0.4,0.2,0.7c0,0.3-0.1,0.7-0.3,1.1c-0.2,0.4-0.4,0.8-0.7,1.2c-0.3,0.4-0.5,0.8-0.9,1.2c-0.3,0.4-0.6,0.7-0.9,1
		c-0.3,0.3-0.5,0.6-0.7,0.8c-0.2,0.2-0.3,0.4-0.3,0.4c0,0.1,0,0.2,0.1,0.2c0.1,0.1,0.2,0.1,0.3,0.1c0.1,0,0.3-0.1,0.5-0.2
		c0.2-0.1,0.6-0.4,1-0.7c0.4-0.3,1-0.8,1.6-1.3C128.5,18.6,129.3,17.9,130.2,17L130.2,17z"/>
</g>
</svg>
