<?xml version="1.0" encoding="utf-8"?>
<!-- Generator: Adobe Illustrator 19.1.1, SVG Export Plug-In . SVG Version: 6.00 Build 0)  -->
<svg version="1.1" id="Слой_3" xmlns="http://www.w3.org/2000/svg" xmlns:xlink="http://www.w3.org/1999/xlink" x="0px" y="0px"
	 viewBox="0 0 14.8 15.1" style="enable-background:new 0 0 14.8 15.1;" xml:space="preserve">
<style type="text/css">
	.st0{fill:none;stroke:#000000;stroke-miterlimit:10;}
</style>
<path class="st0" d="M14,4.8c-0.2-2.1-1.7-3.7-3.6-3.7C9.1,1.1,8,1.8,7.3,2.9c-0.6-1.1-1.7-1.8-3-1.8C2.5,1.1,1,2.7,0.8,4.8
	c0,0.1-0.1,0.6,0.1,1.4c0.3,1.2,0.9,2.2,1.8,3.1l4.6,4.2L12,9.3c0.9-0.8,1.6-1.9,1.8-3.1C14.1,5.4,14,4.9,14,4.8z M13.4,6.1
	c-0.3,1.1-0.8,2-1.7,2.8l-4.3,3.9L3.1,8.9C2.2,8.1,1.6,7.2,1.4,6.1C1.2,5.3,1.3,4.9,1.3,4.9l0,0C1.4,3,2.7,1.7,4.4,1.7
	c1.2,0,2.2,0.7,2.7,1.9l0.2,0.6l0.2-0.6c0.5-1.2,1.6-1.9,2.8-1.9c1.6,0,2.9,1.4,3.1,3.2C13.5,4.9,13.5,5.3,13.4,6.1z"/>
</svg>
