<?xml version="1.0" encoding="utf-8"?>
<!-- Generator: Adobe Illustrator 19.1.1, SVG Export Plug-In . SVG Version: 6.00 Build 0)  -->
<svg version="1.1" id="html5_1_" xmlns="http://www.w3.org/2000/svg" xmlns:xlink="http://www.w3.org/1999/xlink" x="0px" y="0px"
	 viewBox="88 -6 42.3 46.3" style="enable-background:new 88 -6 42.3 46.3;" xml:space="preserve">
<style type="text/css">
	.st0{fill:#E44D26;}
	.st1{fill:#F16529;}
	.st2{fill:#EBEBEB;}
	.st3{fill:#FFFFFF;}
</style>
<g id="html5">
	<path class="st0" d="M124.8,3.6l-2.9,32l-12.8,3.6l-12.8-3.6l-2.9-32H124.8L124.8,3.6z"/>
	<path class="st1" d="M109.1,36.5l10.4-2.9l2.4-27.3h-12.8V36.5z"/>
	<path class="st2" d="M103.5,14.1h5.6v-3.9h-9.8l0.1,1.1l1,10.8h8.8v-3.9h-5.2L103.5,14.1z M104.4,24h-3.9l0.5,6.2l8,2.2l0,0v-4.1
		l0,0l-4.4-1.2L104.4,24L104.4,24z"/>
	<path d="M96.3-5h2v2h1.8v-2h2v6h-2v-2h-1.8v2h-2L96.3-5L96.3-5z M104.8-3.1H103v-2h5.5v2h-1.8v4h-2L104.8-3.1L104.8-3.1L104.8-3.1z
		 M109.4-5h2.1l1.3,2.1L114-5h2.1v6h-2v-3l-1.4,2.1h0L111.4-2v3h-2V-5z M117.1-5h2v4h2.8v2h-4.8L117.1-5L117.1-5z"/>
	<path class="st3" d="M109.1,22.1h4.8l-0.5,5.1l-4.4,1.2v4.1l8-2.2l0.1-0.7l0.9-10.3l0.1-1.1h-9.1V22.1L109.1,22.1z M109.1,14.1
		L109.1,14.1l9.5,0l0.1-0.9l0.2-2l0.1-1.1h-9.8V14.1L109.1,14.1z"/>
</g>
</svg>
