<?xml version="1.0" encoding="utf-8"?>
<!-- Generator: Adobe Illustrator 19.1.1, SVG Export Plug-In . SVG Version: 6.00 Build 0)  -->
<svg version="1.1" id="jQuery_1_" xmlns="http://www.w3.org/2000/svg" xmlns:xlink="http://www.w3.org/1999/xlink" x="0px" y="0px"
	 viewBox="88 -4.3 149.3 42.3" style="enable-background:new 88 -4.3 149.3 42.3;" xml:space="preserve">
<style type="text/css">
	.st0{fill:#818181;}
	.st1{fill:#21609B;}
</style>
<g id="jQuery">
	<path class="st0" d="M231.5,3.4l5.8,0c0,0-10.8,14.7-11.7,15.9c-0.3,0.4-0.7,0.8-0.9,1.3c-0.6,1.3-1.1,4.2-1.1,4.2l-5.3,0
		c0,0,0.8-3,0.8-4.6c0-1.4-0.7-2.8-1.1-4.2c-0.4-1.4-0.9-4.2-0.9-4.2h5.5l0.8,3L231.5,3.4"/>
	<path class="st0" d="M220.4,6.5c1.1,0.6,1.7,4.2,1.7,4.2s-5.6,0.1-8.7,0.1h-2.6l-3.2,14h-4.9c0,0,3.1-15.2,3.8-17.9
		c0.2-0.9,1.6-0.7,3.9-0.7h3.7C216.5,6.1,219.3,5.7,220.4,6.5"/>
	<path class="st0" d="M197.6,13.3c0,0,0.2-0.9-0.5-1.9c-0.6-0.9-1.1-1.1-2.6-1.1c-4.3-0.1-4.2,3-4.2,3L197.6,13.3L197.6,13.3z
		 M202.2,9.6c0.6,2.3-0.6,7.6-0.6,7.6s-6.2-0.1-9.6,0c-1.1,0-2.3-0.1-2.6,0.4c-0.4,0.7,0.2,1.8,0.7,2.2c0.6,0.5,1.7,0.6,2.2,0.6
		c2.8,0.4,8.6,0.1,8.6,0.1l-1,4.4c0,0-8.2,0.4-12.3-0.6c-0.8-0.2-1.6-0.6-2.1-1.1c-0.1-0.2-0.3-0.4-0.4-0.5c-0.1-0.1-0.4-0.6-0.6-1
		c-0.9-2.5,0.1-7.3,1.1-9.8c0.1-0.3,0.3-0.7,0.4-1c0.2-0.4,0.4-0.8,0.5-1.1c0.1-0.2,0.2-0.3,0.3-0.4c0.1-0.2,0.3-0.4,0.4-0.5
		c0.4-0.4,0.8-0.7,1.3-1.1c1.7-1.3,4.8-2.3,8.5-1.9c1.4,0.1,3.5,0.6,4.5,2.1C201.9,8.3,202.1,9.1,202.2,9.6L202.2,9.6L202.2,9.6z"/>
	<path class="st0" d="M179.7,6l4.8,0c0,0-2.7,12.6-4,18.7H175c-3.8,0-7.2,0.5-8.7-2.3c-1.4-2.7-0.1-7,0.6-10
		c0.4-2.1,1.4-6.4,1.4-6.4l4.9,0c0,0-1.4,6.7-2,10c-0.2,1.2-0.6,2.3-0.2,3.2c0.4,0.8,1,0.9,2.8,0.9c0.6,0,2.5,0,2.5,0L179.7,6"/>
	<path class="st0" d="M157.4,15.1c0.5-1.8,1.2-3.7,1.1-5.3c-0.1-1.7-1.5-3.3-2.5-3.6c-2.8-1-5.4,0.4-6.4,1.5
		c-1.3,1.5-1.8,3.1-2.3,5.5c-0.4,1.7-0.6,3.6,0,4.9c1.1,2.4,4.7,1.9,8.5,1.9C156.4,18.5,156.9,16.8,157.4,15.1L157.4,15.1
		L157.4,15.1z M164,8.1c0.5,4-1.5,8.3-3,12.1c1.5,0.1,2.8,0,2.8,0.1c0.1,0.1-1,4.5-1.4,4.5c-1.2,0-5,0.1-6.6,0.1
		c-5.2,0-10.2,0.3-12.7-2.3c-1-1.1-1.7-2.9-1.9-4.2c-0.3-2.1,0.1-4.5,0.6-6.4c0.4-1.7,1-3.4,1.9-4.9c2.2-3.8,6-6.7,12.5-6
		c1.2,0.1,3,0.7,4.2,1.3c0.1,0,0.3,0.3,0.4,0.3C162.3,3.7,163.7,6,164,8.1L164,8.1L164,8.1z"/>
	<path class="st0" d="M140.8,6.1c-0.3,1.4-0.6,3.1-1,4.5h-5.3c0.4-1.6,0.7-3.2,1.1-4.5C137.4,6,138.9,6.1,140.8,6.1"/>
	<path class="st0" d="M134.3,11.9h5.1c-0.7,3.7-2,9.6-3,13.8c-0.6,2.6-1.1,4.5-2.8,5.9c-0.2,0.1-0.2,0.1-0.4,0.2
		c-0.3,0.3-1.8,0.7-2.6,0.8c-1.3,0.1-2.9,0-4.5,0c0.4-1.6,0.9-3.5,1.3-4.9c4,0.5,4.1-3.3,4.9-7C132.7,18.5,134.1,12.7,134.3,11.9"/>
	<g transform="translate(0.000000, 8.827586)">
		<path class="st1" d="M117.1,13.8l-0.1,0.3c-2.3,4.4-6.3,7.2-12.1,7.3c-2.7,0.1-5.3-0.6-6.9-1.4c-3.6-1.6-6.7-4.6-8.3-7.9
			c-2.4-4.6-2.8-11,2.1-15.8c0.1,0-0.6,1-0.5,1l-0.1,0.4C87.6,9,98.6,18.6,109.3,17.5C111.8,17.2,115.1,15.8,117.1,13.8"/>
		<path class="st1" d="M110.7,9.1c2.7,0,5.5-1.2,7.2-3c-1.5,3.7-5.7,6.1-11.3,5.3c-4.7-0.6-9.3-5.4-9.7-10.2
			c-0.3-3.5,0.9-5.6,2.9-8.1c-0.7,1.3-1,2.3-1,3C97.9,3.7,104.6,9.1,110.7,9.1"/>
		<path class="st1" d="M117.6-0.2c-0.4,1-2.8,2.8-3.9,3c-4.2,0.9-6.9-1.1-8.3-3.4c-0.2-0.3-0.6-1.3-0.7-1.5
			c-0.5-1.9-0.3-4.7,1.3-6.1c-0.5,1.4-0.6,3-0.3,4c0.2,0.6,0.6,1.7,1.1,2.4c0.9,1.3,1.4,1.6,2.5,2.2c0.5,0.3,1,0.5,1.3,0.6
			C111.7,1.4,113.9,2.3,117.6-0.2"/>
	</g>
</g>
</svg>
