<?xml version="1.0" encoding="utf-8"?>
<!-- Generator: Adobe Illustrator 19.1.1, SVG Export Plug-In . SVG Version: 6.00 Build 0)  -->
<svg version="1.1"
	 id="svg2" xmlns:dc="http://purl.org/dc/elements/1.1/" xmlns:cc="http://creativecommons.org/ns#" xmlns:rdf="http://www.w3.org/1999/02/22-rdf-syntax-ns#" xmlns:svg="http://www.w3.org/2000/svg"
	 xmlns="http://www.w3.org/2000/svg" xmlns:xlink="http://www.w3.org/1999/xlink" x="0px" y="0px" viewBox="-435 237.5 87.5 87.5"
	 style="enable-background:new -435 237.5 87.5 87.5;" xml:space="preserve">
<style type="text/css">
	.st0{fill:#FFE000;}
	.st1{enable-background:new    ;}
</style>
<g id="g10" transform="matrix(1.25,0,0,-1.25,-3120.6369,1039.8663)">
	<g id="g7998" transform="translate(1874.5095,-94.106992)">
		<path id="path3028" class="st0" d="M344,666h-70v70h70V666z"/>
		<g class="st1">
			<path d="M296.1,680.3l2.6,2.6l3.7-3.6h4.3l1.7,1.7v14.9h-4.6v3.5h8.4v-19.8l-3.8-3.9h-7.7L296.1,680.3z"/>
		</g>
		<g class="st1">
			<path d="M315.6,677.1l1.1,3.4l3.7-1.3h5.8l1.7,1.7v2.2l-0.3,0.5l-10.9,5.5l-1.1,2.2v4.2l3.8,3.8h8.2l4.1-1.4l-1-3.3l-3.7,1.2
				h-5.9l-1.7-1.7v-1.8l0.2-0.5l10.8-5.4l1.2-2.3v-4.6l-3.8-3.8h-8.1L315.6,677.1z"/>
		</g>
	</g>
</g>
</svg>
