<?xml version="1.0" encoding="utf-8"?>
<!-- Generator: Adobe Illustrator 19.1.1, SVG Export Plug-In . SVG Version: 6.00 Build 0)  -->
<svg version="1.1" id="LegoSP" xmlns="http://www.w3.org/2000/svg" xmlns:xlink="http://www.w3.org/1999/xlink" x="0px" y="0px"
	 viewBox="88 -6 117 55.5" style="enable-background:new 88 -6 117 55.5;" xml:space="preserve">
<style type="text/css">
	.st0{opacity:0.7;}
	.st1{font-family:'Bender-Black';}
	.st2{font-size:21px;}
	.st3{font-size:5px;}
	.st4{letter-spacing:2;}
	.st5{fill:#FFC000;}
</style>
<text transform="matrix(1 0 0 1 129.5262 29.7)" class="st0 st1 st2">LegoSP</text>
<text transform="matrix(1 0 0 1 166.125 34.7)" class="st0 st1 st3 st4">CMS</text>
<g>
	<g>
		<path class="st5" d="M104.7,13.1l0.3,1.8h17.6l-3.4,9.1c-0.5,1.5-1.2,2.7-2.7,2.7h-13.6c-1.5,0-2.1-1.2-2.7-2.7L96.6,8.6h-5.5v1.8
			h4L98.4,24c0.7,2.4,2,4.5,4.5,4.5h13.6c2.5,0,3.7-1.9,4.5-4.5l3.6-10.9H104.7z M116.5,30.3c-1.5,0-2.7,1.2-2.7,2.7
			c0,1.5,1.2,2.7,2.7,2.7s2.7-1.2,2.7-2.7C119.2,31.5,118,30.3,116.5,30.3z M117.4,33.9h-1.8v-1.8h1.8V33.9z M102,30.3
			c-1.5,0-2.7,1.2-2.7,2.7c0,1.5,1.2,2.7,2.7,2.7s2.7-1.2,2.7-2.7C104.7,31.5,103.5,30.3,102,30.3z M102.9,33.9h-1.8v-1.8h1.8V33.9z
			"/>
	</g>
</g>
</svg>
