<?xml version="1.0" encoding="utf-8"?>
<!-- Generator: Adobe Illustrator 19.1.1, SVG Export Plug-In . SVG Version: 6.00 Build 0)  -->
<svg version="1.1" id="less_1_" xmlns="http://www.w3.org/2000/svg" xmlns:xlink="http://www.w3.org/1999/xlink" x="0px" y="0px"
	 viewBox="88 -6 105.8 46.3" style="enable-background:new 88 -6 105.8 46.3;" xml:space="preserve">
<style type="text/css">
	.st0{fill:url(#a_1_);}
	.st1{fill:none;}
	.st2{filter:url(#Adobe_OpacityMaskFilter);}
	.st3{fill:#FFFFFF;}
	.st4{mask:url(#d_2_);fill:#FAF9F8;}
	.st5{fill:#FAF9F8;}
</style>
<g id="less">
	<g>
		
			<linearGradient id="a_1_" gradientUnits="userSpaceOnUse" x1="-302.877" y1="296.4641" x2="-302.877" y2="296.423" gradientTransform="matrix(2187.2009 0 0 -1064.3048 662577.5 315523.3125)">
			<stop  offset="0" style="stop-color:#2E4F82"/>
			<stop  offset="1" style="stop-color:#182E4D"/>
		</linearGradient>
		<path id="a" class="st0" d="M169.7,30.5c0,4.6-3.9,8.4-8.6,8.4H88.4c-4.8,0-8.6-3.8-8.6-8.4V3.6c0-4.6,3.9-8.4,8.6-8.4H161
			c4.8,0,8.6,3.8,8.6,8.4V30.5"/>
	</g>
	<g>
		<path id="c_1_" class="st1" d="M73.3-4.9H176v44H73.3"/>
	</g>
	<defs>
		<filter id="Adobe_OpacityMaskFilter" filterUnits="userSpaceOnUse" x="97.4" y="-4.9" width="78.6" height="44">
			<feColorMatrix  type="matrix" values="1 0 0 0 0  0 1 0 0 0  0 0 1 0 0  0 0 0 1 0"/>
		</filter>
	</defs>
	<mask maskUnits="userSpaceOnUse" x="97.4" y="-4.9" width="78.6" height="44" id="d_2_">
		<g class="st2">
			<path id="c_3_" class="st3" d="M73.3-4.9H176v44H73.3"/>
		</g>
	</mask>
	<path class="st4" d="M171.6,11.1c0-3.3,0.5-5.2,0.5-8.8c0-5.5-2-7.3-6.5-7.3h-3.3V-1h1c2.3,0,2.8,0.8,2.8,3.5
		c0,2.6-0.3,5.2-0.3,8.3c0,3.9,1.3,5.4,3.8,6V17c-2.5,0.6-3.8,2.1-3.8,6c0,3,0.3,5.5,0.3,8.3c0,2.9-0.6,3.6-2.8,3.6V35h-1v4h3.3
		c4.5,0,6.5-1.8,6.5-7.3c0-3.6-0.5-5.5-0.5-8.8c0-1.8,1.1-3.6,4.4-3.8v-4.4C172.7,14.7,171.6,12.9,171.6,11.1 M134.2,16.3
		c-2.6-1-5-1.6-5-3.3c0-1.3,1-2,2.9-2s3.5,0.8,5.4,2.1l3.4-4.5c-2.1-1.6-5-3.3-8.9-3.3c-5.7,0-9.6,3.3-9.6,7.9
		c0,4.1,3.6,6.2,6.7,7.4c2.6,1,5.1,1.9,5.1,3.5c0,1.3-1,2.1-3.3,2.1c-2.1,0-4.2-0.8-6.5-2.6l-3.3,4.9c2.5,2.1,6.4,3.5,9.6,3.5
		c6.7,0,10.4-3.5,10.4-8.2S137.5,17.3,134.2,16.3 M154.6,16.3c-2.5-1-4.9-1.6-4.9-3.3c0-1.3,1-2,2.9-2s3.5,0.8,5.4,2.1l3.4-4.5
		c-2.1-1.6-5-3.3-8.9-3.3c-5.7,0-9.6,3.3-9.6,7.9c0,4.1,3.6,6.2,6.7,7.4c2.6,1,5.1,1.9,5.1,3.5c0,1.3-1,2.1-3.3,2.1
		c-2.1,0-4.2-0.8-6.5-2.6l-3.4,4.9c2.5,2.1,6.4,3.5,9.6,3.5c6.7,0,10.4-3.5,10.4-8.2S157.9,17.3,154.6,16.3 M104.5,15.8
		c0.5-3.4,2.5-5,4.9-5c3,0,4.2,2.1,4.2,5L104.5,15.8L104.5,15.8z M120.1,17.3c0.1-6.8-3.6-12.1-10.7-12.1c-6.2,0-12.1,5.1-11.9,13.2
		c0,8.4,5.5,13.2,12.7,13.2c3,0,6.4-1.1,9-2.9l-2.5-4.5c-1.9,1.1-3.6,1.6-5.5,1.6c-3.4,0-6-1.6-6.7-5.5h15.3
		C119.9,19.9,120.1,18.7,120.1,17.3L120.1,17.3z"/>
	<path class="st5" d="M97,25.8c-0.6,0-1.3-0.5-1.3-2.1V-4.9h-12c-4.6,0-6.6,1.8-6.6,7.3c0,3.6,0.5,5.7,0.5,8.8
		c0,1.8-1.1,3.6-4.4,3.8v4.4c3.3,0.1,4.4,1.9,4.4,3.7c0,3.1-0.5,5-0.5,8.6c0,5.5,2,7.3,6.5,7.3h3.3V35h-1c-2.1,0-2.8-0.8-2.8-3.6
		c0-2.8,0.3-5.1,0.3-8.3c0-3.9-1.3-5.4-3.8-6v-0.3c2.5-0.6,3.8-2.1,3.8-6c0-3-0.3-5.5-0.3-8.3S83.7-1,85.9-1h2.3v24.2
		c0,5.1,1.8,8.5,6.9,8.5c1.6,0,2.9-0.3,3.8-0.6L98,25.7C97.5,25.8,97.3,25.8,97,25.8"/>
</g>
</svg>
