<?xml version="1.0" encoding="UTF-8" standalone="no"?>
<svg
   xmlns:dc="http://purl.org/dc/elements/1.1/"
   xmlns:cc="http://creativecommons.org/ns#"
   xmlns:rdf="http://www.w3.org/1999/02/22-rdf-syntax-ns#"
   xmlns:svg="http://www.w3.org/2000/svg"
   xmlns="http://www.w3.org/2000/svg"
   height="2547.5361"
   width="7119.5845"
   xml:space="preserve"
   viewBox="-496.6 163.7 7119.5845 2547.5361"
   y="0px"
   x="0px"
   id="Слой_1"
   version="1.1"><metadata
     id="metadata9"><rdf:RDF><cc:Work
         rdf:about=""><dc:format>image/svg+xml</dc:format><dc:type
           rdf:resource="http://purl.org/dc/dcmitype/StillImage" /><dc:title></dc:title></cc:Work></rdf:RDF></metadata><defs
     id="defs7" /><path
     style="stroke-width:14.69167328"
     id="path2"
     d="M 1213.5107,2417.4026 1044.5565,2692.1369 875.60224,2417.4026 1044.5565,2139.73 Z M 2582.7746,163.7 v 10.2842 l -174.8309,290.8951 v 2.9384 L 1213.5107,2415.9335 1044.5565,2690.6678 875.60224,2415.9335 1044.5565,2138.2609 2067.0969,470.756 l 2.9383,-2.9383 174.831,-293.8335 V 163.7 Z m -1259.0763,1223.8164 -179.2384,293.8334 -188.05346,311.4635 v 0 0 2.9383 0 L 787.45221,2270.4859 618.49797,1995.7516 -317.36159,470.756 v -2.9383 L -496.6,173.9842 V 163.7 h 340.84681 v 10.2842 L 19.077716,464.8793 v 2.9384 L 785.98304,1718.079 v 0 l 20.56834,-36.7292 174.83091,-293.8334 z M 6622.9847,163.7 l -174.831,298.241 -412.836,671.4094 -155.7317,254.166 h -340.8468 l 158.6701,-251.2276 412.836,-678.7553 16.1608,-29.3834 H 4038.7194 l 20.5683,36.7292 v 2.9384 l 572.9753,929.9829 v 0 l 174.8309,290.8951 v 0 l 132.225,214.4984 2.9384,2.9383 142.5092,232.1285 142.5092,235.0667 2.9384,2.9384 23.5066,39.6675 -26.445,42.6058 -142.5092,232.1285 -142.5092,-235.0668 h -2.9384 l -23.5066,-39.6675 -446.6269,-727.2378 v 0 L 4289.947,1400.7389 v -2.9383 L 3721.3793,470.756 v -2.9383 L 3546.5484,173.9842 3543.61,163.7 Z m -1664.5666,0 h 264.4501 V 428.1501 H 4958.4181 Z M 4604.3488,2711.2361 H 1524.9742 v -13.2225 l 174.8309,-301.1793 v 0 l 10.2842,-16.1608 562.691,-916.7604 v 0 l 174.8309,-287.9568 v 0 l 446.6269,-727.2378 23.5067,-39.6675 h 2.9383 l 142.5092,-235.0668 145.4476,232.1284 23.5067,42.6059 -23.5067,39.6675 v 2.9383 l -145.4476,235.0668 -142.5092,235.0668 -2.9383,2.9383 -132.2251,214.4984 v 2.9384 l -174.8309,293.8334 v 13.2225 l -528.9002,890.3154 h 1992.1908 l -436.3427,-718.4228 -116.0642,-198.3376 -39.6675,-76.3967 h 337.9085 l 39.6675,69.0509 119.0025,195.3992 433.4044,727.2378 z m 0,0 -195.3992,-330.5626 16.1608,26.445 z M 2875.1389,2380.6735 h 264.4501 v 330.5626 h -264.4501 z" /></svg>