<?xml version="1.0" encoding="utf-8"?>
<!-- Generator: Adobe Illustrator 19.1.1, SVG Export Plug-In . SVG Version: 6.00 Build 0)  -->
<svg version="1.1" id="Слой_1" xmlns="http://www.w3.org/2000/svg" xmlns:xlink="http://www.w3.org/1999/xlink" x="0px" y="0px"
	 viewBox="0 0 42.6 39.5" style="enable-background:new 0 0 42.6 39.5;" xml:space="preserve">
<style type="text/css">
	.st0{opacity:0.7;}
</style>
<path class="st0" d="M42.5,15.7c0-0.5-0.2-1-0.6-1.4c-0.4-0.4-0.8-0.6-1.4-0.6c0,0,0,0,0,0L1.9,13.8c-0.5,0-1,0.2-1.4,0.6
	C0.2,14.7,0,15.2,0,15.7l0,21.9c0,1.1,0.9,1.9,1.9,1.9c0,0,0,0,0,0l38.7-0.1c0.5,0,1-0.2,1.4-0.6c0.4-0.4,0.6-0.8,0.6-1.4L42.5,15.7
	z M38.5,15.7l-17.2,12L4,15.7L38.5,15.7z M28.5,29.6l10.3,8l-35,0l10.3-8c0.4-0.3,0.5-0.9,0.2-1.3C14,27.8,13.4,27.7,13,28l-11,8.5
	l0-20l18.8,13c0.2,0.1,0.4,0.2,0.5,0.2c0.2,0,0.4-0.1,0.5-0.2l18.8-13.1l0,20.1l-11-8.5c-0.4-0.3-1-0.2-1.3,0.2
	C28,28.6,28,29.2,28.5,29.6z M25.8,3.8l-3.5-3.1c-0.6-0.5-1.5-0.5-2.1,0l-3.5,3.1c-0.4,0.4-0.4,1-0.1,1.4c0.4,0.4,1,0.4,1.4,0.1
	l2.3-2.1v7.4c0,0.5,0.4,1,1,1c0.5,0,1-0.4,1-1V3.2l2.3,2.1c0.2,0.2,0.4,0.2,0.6,0.2c0.3,0,0.5-0.1,0.7-0.3
	C26.2,4.8,26.2,4.1,25.8,3.8z"/>
</svg>
