<?xml version="1.0" encoding="UTF-8" standalone="no"?>
<svg
   xmlns:dc="http://purl.org/dc/elements/1.1/"
   xmlns:cc="http://creativecommons.org/ns#"
   xmlns:rdf="http://www.w3.org/1999/02/22-rdf-syntax-ns#"
   xmlns:svg="http://www.w3.org/2000/svg"
   xmlns="http://www.w3.org/2000/svg"
   viewBox="0 0 300.03232 338.26486"
   height="338.26486"
   width="300.03232"
   version="1.1"
   id="svg2">
  <metadata
     id="metadata8">
    <rdf:RDF>
      <cc:Work
         rdf:about="">
        <dc:format>image/svg+xml</dc:format>
        <dc:type
           rdf:resource="http://purl.org/dc/dcmitype/StillImage" />
        <dc:title></dc:title>
      </cc:Work>
    </rdf:RDF>
  </metadata>
  <defs
     id="defs6" />
  <path
     id="path3338"
     d="M 199.10194,287.14973 C 29.205425,187.49825 -0.19567411,170.06179 9.7589143e-4,169.07198 0.20360589,168.05209 66.832635,128.56775 207.12779,46.328719 c 43.175,-25.308572 78.74964,-46.15460957 79.05476,-46.32451957 0.30512,-0.16991 3.54613,4.83753997 7.20226,11.12765957 l 6.6475,11.436586 -14.20226,8.375981 C 278.01881,35.551215 243.27779,55.944104 208.62779,76.261958 85.891825,148.23112 51.110535,168.9542 51.864725,169.66313 c 0.78233,0.73538 53.489615,31.73561 167.263065,98.37718 35.475,20.7791 68.18823,39.98981 72.69607,42.69047 l 8.19607,4.91029 -6.54684,11.21546 c -3.60076,6.1685 -6.62562,11.30208 -6.72192,11.40797 -0.0963,0.10588 -39.53844,-22.89577 -87.64923,-51.11477 z"
     style="fill:#000000" />
</svg>
