<?xml version="1.0" encoding="utf-8"?>
<!-- Generator: Adobe Illustrator 19.1.1, SVG Export Plug-In . SVG Version: 6.00 Build 0)  -->
<svg version="1.1" id="openxart_1_" xmlns="http://www.w3.org/2000/svg" xmlns:xlink="http://www.w3.org/1999/xlink" x="0px"
	 y="0px" viewBox="49 -6 206.8 55.5" style="enable-background:new 49 -6 206.8 55.5;" xml:space="preserve">
<style type="text/css">
	.st0{fill:url(#openxart_2_);}
</style>
<linearGradient id="openxart_2_" gradientUnits="userSpaceOnUse" x1="-286.8246" y1="296.0922" x2="-286.8246" y2="296.1544" gradientTransform="matrix(2498.5601 0 0 -485.7357 716800.4375 143856.7656)">
	<stop  offset="0" style="stop-color:#04B6F0"/>
	<stop  offset="1" style="stop-color:#3ECAF0"/>
</linearGradient>
<path id="openxart" class="st0" d="M73.2,23.9c0,2.9-0.9,5.4-2.6,7.4c-1.8,2.1-4.2,3.2-7.1,3.2c-2.9,0-5.3-1.1-7.1-3.2
	c-1.8-2-2.6-4.5-2.6-7.4c0-2.9,0.9-5.4,2.6-7.4c1.8-2.1,4.2-3.1,7.1-3.1c2.9,0,5.3,1,7.1,3.1C72.3,18.5,73.2,21,73.2,23.9L73.2,23.9
	z M67.4,23.9c0-1.3-0.3-2.5-1-3.4c-0.7-1-1.7-1.5-3-1.5c-1.3,0-2.3,0.5-3,1.5c-0.6,0.9-1,2-1,3.4c0,1.3,0.3,2.5,1,3.4
	c0.7,1,1.7,1.5,3,1.5c1.3,0,2.3-0.5,3-1.5C67.1,26.4,67.4,25.2,67.4,23.9z M94.1,23.9c0,2.7-0.8,5.1-2.4,7.2
	c-1.7,2.2-3.9,3.4-6.5,3.4c-1.9,0-3.5-0.5-4.8-1.6c0,0.2,0,0.9,0.1,1.8c0.1,1,0.1,1.8,0.1,2.4c0,3.4-1,5.2-3.1,5.2
	c-0.8,0-1.5-0.3-2.1-0.9c-0.5-0.6-0.8-1.3-0.8-2.2V16.8c0-0.8,0.3-1.5,0.8-2.1c0.6-0.6,1.2-0.9,2.1-0.9c1.2,0,2.1,0.6,2.7,1.8
	c1.2-1.5,2.9-2.2,5-2.2c2.7,0,4.8,1.1,6.6,3.3C93.3,18.8,94.1,21.2,94.1,23.9L94.1,23.9z M88.3,23.9c0-1.3-0.3-2.5-1-3.4
	c-0.7-1-1.7-1.5-3-1.5c-1.3,0-2.3,0.5-3,1.5c-0.6,0.9-1,2-1,3.4c0,1.3,0.3,2.5,1,3.4c0.7,1,1.7,1.5,3,1.5c1.3,0,2.3-0.5,3-1.5
	C88,26.4,88.3,25.2,88.3,23.9z M115.2,23.3c0,1-0.2,1.6-0.7,2c-0.5,0.4-1.2,0.6-2.1,0.6h-10.5c0,1.1,0.5,2,1.6,2.6
	c0.8,0.5,1.9,0.7,3.1,0.7c0.9,0,2.1-0.3,3.4-0.9c1.3-0.6,2.2-0.9,2.5-0.9c0.7,0,1.2,0.2,1.7,0.7c0.5,0.5,0.7,1.1,0.7,1.8
	c0,1.6-1.2,2.8-3.6,3.7c-1.8,0.7-3.6,1-5.5,1c-3,0-5.5-1-7.3-3c-1.9-2-2.8-4.5-2.8-7.6c0-2.9,1-5.4,2.9-7.4c1.9-2.1,4.3-3.1,7.2-3.1
	c2.7,0,4.9,1,6.7,2.9C114.3,18.3,115.2,20.6,115.2,23.3L115.2,23.3z M109.4,21.8c0-0.9-0.4-1.7-1.2-2.4c-0.8-0.7-1.6-1.1-2.5-1.1
	c-0.9,0-1.8,0.4-2.6,1.1c-0.8,0.7-1.2,1.5-1.2,2.4H109.4z M134.7,31c0,0.8-0.3,1.6-0.8,2.2c-0.5,0.6-1.2,0.9-2.1,0.9
	c-2,0-3-1.6-3-4.8c0-0.6,0-1.6,0.1-2.9C129,25,129,24,129,23.4c0-3.4-1.1-5.1-3.3-5.1c-2.2,0-3.3,1.7-3.3,5.1c0,0.6,0,1.6,0.1,2.9
	c0.1,1.3,0.1,2.3,0.1,2.9c0,3.2-1,4.8-3,4.8c-0.8,0-1.5-0.3-2.1-0.9c-0.5-0.6-0.8-1.3-0.8-2.2V16.7c0-0.8,0.3-1.6,0.8-2.1
	c0.5-0.6,1.2-0.9,2.1-0.9c1.4,0,2.3,0.6,2.9,1.8c0.9-1.5,2.6-2.2,5-2.2c2.2,0,3.9,0.6,5.2,1.7c1.3,1.2,2,2.9,2,5.1V31L134.7,31z
	 M152.8,30.4c0,1.3-0.9,2.3-2.6,3.1c-1.4,0.6-2.8,0.9-4.3,0.9c-2.9,0-5.3-1.1-7.1-3.2c-1.8-2-2.6-4.5-2.6-7.4c0-2.9,0.9-5.4,2.7-7.5
	c1.8-2,4.1-3.1,7.1-3.1c1.7,0,3.1,0.2,4.3,0.7c1.7,0.7,2.5,1.7,2.5,3.1c0,0.7-0.2,1.3-0.7,1.9c-0.4,0.5-1,0.8-1.7,0.8
	c-0.5,0-1.2-0.2-2-0.5c-0.9-0.3-1.6-0.5-2.1-0.5c-1.4,0-2.5,0.5-3.2,1.5c-0.7,0.9-1.1,2-1.1,3.4c0,1.3,0.3,2.4,1,3.4
	c0.7,1.1,1.7,1.6,3,1.6c0.6,0,1.3-0.2,2.3-0.5c1-0.3,1.7-0.5,2.1-0.5c0.6,0,1.2,0.3,1.7,0.8C152.6,29.2,152.8,29.8,152.8,30.4
	L152.8,30.4z M173.9,31c0,0.8-0.3,1.6-0.8,2.2c-0.5,0.6-1.2,0.9-2.1,0.9c-1.3,0-2.2-0.6-2.7-1.8c-1.2,1.5-2.9,2.2-5,2.2
	c-2.7,0-4.9-1.1-6.6-3.4c-1.6-2.1-2.3-4.4-2.3-7.2s0.8-5.1,2.3-7.2c1.7-2.2,3.9-3.3,6.6-3.3c2.1,0,3.8,0.7,5,2.2
	c0.5-1.2,1.4-1.8,2.7-1.8c0.8,0,1.5,0.3,2.1,0.9c0.6,0.6,0.8,1.3,0.8,2.1V31L173.9,31z M168.1,23.9c0-1.3-0.3-2.5-1-3.4
	c-0.7-1-1.7-1.5-3-1.5c-1.3,0-2.3,0.5-3,1.5c-0.6,0.9-1,2-1,3.4c0,1.3,0.3,2.5,0.9,3.4c0.7,1,1.7,1.5,3,1.5c1.3,0,2.3-0.5,3-1.5
	C167.8,26.4,168.1,25.2,168.1,23.9L168.1,23.9z M188.7,16.4c0,1.2-0.6,2.1-1.8,2.6c-1.1,0.4-2.2,0.8-3.3,1.2c-1.2,0.7-1.8,2-1.8,3.9
	V31c0,0.8-0.3,1.6-0.8,2.2c-0.5,0.6-1.2,0.9-2.1,0.9c-0.8,0-1.5-0.3-2.1-0.9c-0.5-0.6-0.8-1.3-0.8-2.2V16.7c0-0.8,0.3-1.6,0.8-2.1
	c0.5-0.6,1.2-0.9,2.1-0.9c1.4,0,2.3,0.6,2.9,1.8c1.2-1.5,2.6-2.2,4-2.2c0.8,0,1.5,0.3,2.1,0.9C188.4,14.8,188.7,15.6,188.7,16.4
	L188.7,16.4z M203.8,16.6c0,1.3-0.5,2.1-1.5,2.4c-0.5,0.2-1.5,0.3-3.1,0.3V31c0,0.8-0.3,1.6-0.8,2.2c-0.5,0.6-1.2,0.9-2.1,0.9
	c-0.8,0-1.5-0.3-2.1-0.9c-0.6-0.6-0.8-1.3-0.8-2.2V19.3c-1.2,0-2.1-0.2-2.6-0.4c-0.7-0.4-1.1-1.2-1.1-2.3c0-1.1,0.4-1.8,1.2-2.2
	c0.5-0.3,1.4-0.4,2.6-0.4v-2.5c0-2.9,1-4.4,2.9-4.4c1.9,0,2.9,1.5,2.9,4.4V14c1.6,0,2.6,0.1,3.1,0.3
	C203.3,14.6,203.8,15.4,203.8,16.6L203.8,16.6z M250.3,13.1c0-1.8-3.3-2.6-11.8-2.6c-20,0-25-0.9-30.4-6.6c2.3,3.4,3.5,9.8,24.6,9.5
	c22-0.3,8.6,5.7,4.7,12.5C244.4,19.7,250.3,15.5,250.3,13.1L250.3,13.1z M222.3,31.4c0,1.7-1.3,3-3,3c-1.7,0-3-1.4-3-3
	c0-1.7,1.3-3,3-3c0,0,0,0,0,0C220.9,28.4,222.3,29.7,222.3,31.4z M236,31.4c0,1.7-1.3,3-3,3c-1.7,0-3-1.4-3-3c0-1.7,1.3-3,3-3
	c0,0,0,0,0,0C234.7,28.4,236,29.7,236,31.4z"/>
</svg>
