<?xml version="1.0" encoding="iso-8859-1"?>
<!-- Generator: Adobe Illustrator 19.0.0, SVG Export Plug-In . SVG Version: 6.00 Build 0)  -->
<svg version="1.1" id="Layer_1" xmlns="http://www.w3.org/2000/svg" xmlns:xlink="http://www.w3.org/1999/xlink" x="0px" y="0px"
	 viewBox="0 0 512 512" style="enable-background:new 0 0 512 512;" xml:space="preserve">
<g>
	<g>
		<path d="M345.871,345.365H167.759c-4.46,0-8.075,3.615-8.075,8.075s3.615,8.075,8.075,8.075h178.111
			c4.46,0,8.075-3.615,8.075-8.075S350.33,345.365,345.871,345.365z"/>
	</g>
</g>
<g>
	<g>
		<path d="M345.871,393.826H167.759c-4.46,0-8.075,3.615-8.075,8.075s3.615,8.075,8.075,8.075h178.111
			c4.46,0,8.075-3.614,8.075-8.075C353.946,397.441,350.33,393.826,345.871,393.826z"/>
	</g>
</g>
<g>
	<g>
		<path d="M292.038,442.288H167.759c-4.46,0-8.075,3.615-8.075,8.075s3.615,8.075,8.075,8.075h124.278
			c4.46,0,8.075-3.615,8.075-8.075S296.497,442.288,292.038,442.288z"/>
	</g>
</g>
<g>
	<g>
		<circle cx="463.342" cy="200.367" r="10.993"/>
	</g>
</g>
<g>
	<g>
		<circle cx="463.342" cy="241.248" r="10.993"/>
	</g>
</g>
<g>
	<g>
		<path d="M471.022,143.125h-87.346V15.215c0-4.46-3.615-8.075-8.075-8.075h-46.887c-4.46,0-8.075,3.615-8.075,8.075
			c0,4.46,3.615,8.075,8.075,8.075h38.812V151.2v48.296H219.205c-4.46,0-8.075,3.615-8.075,8.075s3.615,8.075,8.075,8.075h156.396
			c4.46,0,8.075-3.615,8.075-8.075v-48.296h32.568v66.365c0,16.667-13.56,30.226-30.226,30.226H125.984
			c-16.667,0-30.226-13.56-30.226-30.226v-66.365h32.568v48.296c0,4.46,3.615,8.075,8.075,8.075h50.506
			c4.46,0,8.075-3.615,8.075-8.075s-3.615-8.075-8.075-8.075h-42.431V151.2V23.29h151.94c4.46,0,8.075-3.615,8.075-8.075
			c0-4.46-3.615-8.075-8.075-8.075H136.399c-4.46,0-8.075,3.615-8.075,8.075v127.91H40.978C18.383,143.125,0,161.508,0,184.103
			v178.164c0,22.595,18.383,40.978,40.978,40.978h87.346v93.541c0,4.46,3.615,8.075,8.075,8.075h239.201
			c4.46,0,8.075-3.615,8.075-8.075v-28.309c0-4.46-3.615-8.075-8.075-8.075s-8.075,3.615-8.075,8.075v20.234H144.474V315.092
			h223.051v121.084c0,4.46,3.615,8.075,8.075,8.075s8.075-3.615,8.075-8.075v-32.932h87.347c22.595,0,40.978-18.383,40.978-40.978
			V184.103C512,161.508,493.618,143.125,471.022,143.125z M471.022,387.094h-87.346v-72.002h24.133c4.46,0,8.075-3.615,8.075-8.075
			s-3.615-8.075-8.075-8.075H104.19c-4.46,0-8.075,3.615-8.075,8.075s3.615,8.075,8.075,8.075h24.135v72.002H40.978
			c-13.69,0-24.828-11.138-24.828-24.828V184.103c0-13.69,11.138-24.828,24.828-24.828h38.629v66.365c0,0.799,0.02,1.593,0.06,2.383
			c1.164,22.89,19.003,41.454,41.581,43.753c1.557,0.158,3.136,0.24,4.735,0.24h260.034c1.598,0,3.178-0.081,4.735-0.24
			c22.578-2.3,40.417-20.864,41.581-43.753c0.04-0.789,0.06-1.584,0.06-2.383v-66.365h38.629c13.69,0,24.828,11.138,24.828,24.828
			v178.163h0.001C495.85,375.955,484.712,387.094,471.022,387.094z"/>
	</g>
</g>
<g>
</g>
<g>
</g>
<g>
</g>
<g>
</g>
<g>
</g>
<g>
</g>
<g>
</g>
<g>
</g>
<g>
</g>
<g>
</g>
<g>
</g>
<g>
</g>
<g>
</g>
<g>
</g>
<g>
</g>
</svg>
