<?xml version="1.0" encoding="utf-8"?>
<!-- Generator: Adobe Illustrator 19.1.1, SVG Export Plug-In . SVG Version: 6.00 Build 0)  -->
<svg version="1.1" id="ReactJS_1_" xmlns="http://www.w3.org/2000/svg" xmlns:xlink="http://www.w3.org/1999/xlink" x="0px" y="0px"
	 viewBox="88 -6 189.8 46.3" style="enable-background:new 88 -6 189.8 46.3;" xml:space="preserve">
<style type="text/css">
	.st0{fill:none;stroke:#00DBFB;stroke-width:3;stroke-miterlimit:10;}
	.st1{fill:#00DBFB;stroke:#00DBFB;stroke-miterlimit:10;}
	.st2{fill:#00DBFB;}
</style>
<g id="ReactJS">
	
		<image style="display:none;overflow:visible;" width="250" height="250" xlink:href="../react.png"  transform="matrix(0.1376 0 0 0.1376 106.9822 0.2974)">
	</image>
	<ellipse transform="matrix(0.8642 -0.5031 0.5031 0.8642 6.8016 59.727)" class="st0" cx="114.1" cy="17.3" rx="9.2" ry="24"/>
	
		<ellipse transform="matrix(-0.8642 -0.5031 0.5031 -0.8642 203.6563 89.7274)" class="st0" cx="113.9" cy="17.4" rx="9.2" ry="24"/>
	<ellipse class="st0" cx="113.9" cy="17.4" rx="24" ry="9.2"/>
	<circle class="st1" cx="114" cy="17.3" r="4.1"/>
	<g>
		<path class="st2" d="M152.2,29.3V5.5h13.3l3.7,3.6v7.4l-3.7,3.6h-2.2l-0.8-0.3l-0.1,0.1l0.8,0.6l6.4,7l-2.8,2.6l-9-9.9H156v9.2
			H152.2z M156,16.6h7.6l1.6-1.6v-4.5L163.7,9H156V16.6z"/>
		<path class="st2" d="M172.8,26.1V14.3l3.2-3.2h8.4l3.2,3.2v5.2l-2.9,2.9h-8.1v2.5l1.1,1.1h5.2l3.8-1.2l1,3.4l-4.3,1.3H176
			L172.8,26.1z M176.6,18.7h6.3l0.9-0.9v-2.2l-1-1h-5l-1.1,1V18.7z"/>
		<path class="st2" d="M190.4,26.1v-4.5l3.2-3.2h7.8v-2.8l-1.1-1h-4.9l-3.8,1.2l-1-3.4l4.3-1.3h7.1l3.2,3.2v10.4l1.1,4.3l-3.1,0.8
			l-0.6-2.6l-2,2.3h-7L190.4,26.1z M194.3,24.8l1,1.1h4.3l1.9-2.1V22h-6.1l-1,1.1V24.8z"/>
		<path class="st2" d="M209.7,26.1V14.3l3.2-3.2h8.4l3.2,3.2v4h-3.9v-2.6l-1-1h-5l-1.1,1v9.1l1.1,1.1h5.4l3.7-1.2l1.1,3.4l-4.3,1.3
			H213L209.7,26.1z"/>
		<path class="st2" d="M226.3,14.9v-3.5h3V6.5h3.9v4.9h4.9v3.5h-4.9v9.8l1,1.1h2.3l3.7-1.1l1,3.3l-4.3,1.3h-4.4l-3.2-3.2V14.9H226.3
			z"/>
		<path class="st2" d="M241.2,24.7l2.6-2.6l3.7,3.7h4.3l1.8-1.8V9H249V5.5h8.5v20l-3.9,3.9h-7.8L241.2,24.7z"/>
		<path class="st2" d="M260.9,27.9l1.2-3.4l3.7,1.3h5.8l1.7-1.7v-2.3l-0.3-0.5l-11-5.5l-1.1-2.3V9.3l3.9-3.9h8.3l4.1,1.4l-1,3.3
			L272.4,9h-5.9l-1.7,1.7v1.8L265,13l11,5.5l1.2,2.3v4.7l-3.9,3.9h-8.2L260.9,27.9z"/>
	</g>
</g>
</svg>
