<?xml version="1.0" encoding="utf-8"?>
<!-- Generator: Adobe Illustrator 19.1.1, SVG Export Plug-In . SVG Version: 6.00 Build 0)  -->
<svg version="1.1"
	 id="svg2" xmlns:dc="http://purl.org/dc/elements/1.1/" xmlns:cc="http://creativecommons.org/ns#" xmlns:rdf="http://www.w3.org/1999/02/22-rdf-syntax-ns#" xmlns:svg="http://www.w3.org/2000/svg"
	 xmlns="http://www.w3.org/2000/svg" xmlns:xlink="http://www.w3.org/1999/xlink" x="0px" y="0px" viewBox="-361 252.9 236 57.1"
	 style="enable-background:new -361 252.9 236 57.1;" xml:space="preserve">
<style type="text/css">
	.st0{fill:none;stroke:#00DCFC;stroke-width:3;stroke-miterlimit:10;}
	.st1{fill:#00DCFC;}
	.st2{fill:none;stroke:#00DCFC;stroke-miterlimit:10;}
	.st3{enable-background:new    ;}
</style>
<g id="g3082" transform="translate(999.0333,899.0817)">
	<path id="path3084" class="st0" d="M-1318-623.5c8.3,14.3,10.6,28.5,5.1,31.7c-5.5,3.2-16.7-5.8-25.1-20.1
		c-8.3-14.3-10.6-28.5-5.1-31.7C-1337.6-646.8-1326.4-637.8-1318-623.5z"/>
</g>
<g id="g3086" transform="translate(982.9587,898.9615)">
	<path id="path3088" class="st0" d="M-1322-623.2c-8.3,14.3-10.6,28.5-5.1,31.7c5.5,3.2,16.7-5.8,25.1-20.1
		c8.3-14.3,10.6-28.5,5.1-31.7C-1302.5-646.6-1313.7-637.5-1322-623.2z"/>
</g>
<g id="g3090" transform="translate(990.9323,903.548)">
	<path id="path3092" class="st0" d="M-1320.1-633.5c-16.6,0-30,5.2-30,11.5c0,6.4,13.4,11.5,30,11.5c16.6,0,30-5.2,30-11.5
		C-1290-628.4-1303.5-633.5-1320.1-633.5z"/>
</g>
<g id="g3094" transform="translate(995.0803,894.3923)">
	<path id="path3096" class="st1" d="M-1319-612.9c0,2.8-2.3,5.1-5.1,5.1c-2.8,0-5.1-2.3-5.1-5.1s2.3-5.1,5.1-5.1
		C-1321.3-618.1-1319-615.8-1319-612.9"/>
</g>
<g id="g3098" transform="translate(995.0803,894.3923)">
	<path id="path3100" class="st2" d="M-1319-612.9c0,2.8-2.3,5.1-5.1,5.1c-2.8,0-5.1-2.3-5.1-5.1s2.3-5.1,5.1-5.1
		C-1321.3-618.1-1319-615.8-1319-612.9z"/>
</g>
<g class="st3">
	<path class="st1" d="M-281.3,296.5v-29.9h16.7l4.6,4.5v9.3l-4.6,4.5h-2.8l-1-0.4l-0.1,0.1l1,0.7l7.9,8.7l-3.5,3.2l-11.3-12.4h-2.1
		v11.5H-281.3z M-276.5,280.6h9.5l2-2V273l-2-2h-9.5V280.6z"/>
</g>
<g class="st3">
	<path class="st1" d="M-255.6,292.5v-14.8l4-4h10.5l4,4v6.4l-3.6,3.6h-10.1v3.1l1.3,1.3h6.6l4.7-1.5l1.3,4.2l-5.4,1.7h-9.3
		L-255.6,292.5z M-250.7,283.2h7.8l1.1-1.1v-2.8l-1.3-1.3h-6.3l-1.3,1.3V283.2z"/>
</g>
<g class="st3">
	<path class="st1" d="M-233.5,292.5v-5.6l4-4h9.8v-3.5l-1.3-1.3h-6.1l-4.7,1.5l-1.3-4.2l5.4-1.7h8.9l4,4v13l1.3,5.3l-3.9,1l-0.8-3.2
		l-2.4,2.8h-8.7L-233.5,292.5z M-228.7,290.8l1.3,1.3h5.3l2.3-2.6v-2.2h-7.7l-1.3,1.3V290.8z"/>
</g>
<g class="st3">
	<path class="st1" d="M-209.4,292.5v-14.8l4-4h10.5l4,4v5h-4.8v-3.2l-1.3-1.3h-6.3l-1.3,1.3v11.4l1.3,1.3h6.8l4.6-1.5l1.3,4.2
		l-5.4,1.7h-9.5L-209.4,292.5z"/>
</g>
<g class="st3">
	<path class="st1" d="M-188.6,278.5v-4.4h3.8v-6.2h4.8v6.2h6.1v4.4h-6.1v12.3l1.3,1.3h2.8l4.6-1.4l1.3,4.2l-5.4,1.7h-5.5l-4-4v-14
		H-188.6z"/>
</g>
<g class="st3">
	<path class="st1" d="M-170,290.7l3.3-3.2l4.7,4.6h5.4l2.2-2.2v-18.8h-5.8v-4.4h10.6v25l-4.9,4.9h-9.7L-170,290.7z"/>
</g>
<g class="st3">
	<path class="st1" d="M-145.4,294.7l1.4-4.3l4.6,1.6h7.3l2.2-2.1v-2.8l-0.4-0.6l-13.8-6.9l-1.3-2.8v-5.3l4.8-4.8h10.4l5.1,1.7
		l-1.3,4.2l-4.6-1.5h-7.4l-2.2,2.1v2.3l0.3,0.6l13.7,6.8l1.6,2.9v5.8l-4.8,4.8h-10.2L-145.4,294.7z"/>
</g>
</svg>
