<?xml version="1.0" encoding="utf-8"?>
<!-- Generator: Adobe Illustrator 19.1.1, SVG Export Plug-In . SVG Version: 6.00 Build 0)  -->
<svg version="1.1" id="RequiresJS_1_" xmlns="http://www.w3.org/2000/svg" xmlns:xlink="http://www.w3.org/1999/xlink" x="0px"
	 y="0px" viewBox="88 -6 42.3 46.3" style="enable-background:new 88 -6 42.3 46.3;" xml:space="preserve">
<style type="text/css">
	.st0{fill:#43A5EB;}
	.st1{fill:#F34B41;}
	.st2{fill:#FEFB1F;}
	.st3{stroke:#4C4C4C;stroke-width:2;}
	.st4{fill:#4C4C4C;}
</style>
<g id="RequiresJS">
	<g transform="translate(27.429 44.8)">
		<circle class="st0" cx="81.6" cy="-27.1" r="15.7"/>
		<circle class="st1" cx="81.6" cy="-27" r="10.5"/>
		<circle class="st2" cx="81.6" cy="-27" r="5.3"/>
	</g>
	<path d="M89,6.8l0.6-0.9c0.2-0.4,0.5-0.6,0.8-0.7c0.3-0.1,0.5,0,0.8,0.2c0.1,0.1,0.2,0.1,0.2,0.2c0.1,0.1,0.1,0.2,0.2,0.3
		c0,0.1,0.1,0.2,0.1,0.3c0,0.1,0,0.2,0,0.3l1.9,0.1l-0.2,0.4L91.4,7L91,7.6l1.4,0.9l-0.2,0.4L89,6.8z M89.6,6.7l1.1,0.7l0.4-0.6
		c0.1-0.2,0.2-0.4,0.2-0.6c0-0.2-0.1-0.3-0.3-0.4c-0.1,0-0.2-0.1-0.3-0.1c-0.1,0-0.2,0-0.3,0c-0.1,0-0.2,0.1-0.2,0.1
		c-0.1,0.1-0.2,0.2-0.2,0.3L89.6,6.7z M92.4,2.2L94,0.6l0.3,0.3l-1.4,1.3l0.9,0.9L94.9,2l0.3,0.3l-1.1,1.1l1,1L96.4,3l0.3,0.3
		L95,4.9L92.4,2.2z M99.8-1c0.3,0.5,0.4,0.9,0.4,1.3c0,0.4-0.1,0.7-0.4,0.9c0.1,0.1,0.2,0.2,0.2,0.2c0.1,0,0.2,0,0.4-0.1
		c0,0,0.1,0,0.1-0.1c0,0,0.1-0.1,0.1-0.1c0,0,0.1-0.1,0.1-0.1c0,0,0.1,0,0.1-0.1l0.2,0.4l-0.2,0.1c-0.2,0.1-0.3,0.2-0.4,0.2
		c-0.1,0-0.2,0.1-0.4,0c-0.1,0-0.2-0.1-0.3-0.1c-0.1-0.1-0.2-0.2-0.2-0.3c-0.1,0.1-0.3,0.1-0.5,0.1c-0.2,0-0.3,0-0.5-0.1
		C98.4,1.3,98.2,1.1,98,1c-0.2-0.2-0.3-0.4-0.5-0.6c-0.2-0.3-0.3-0.6-0.3-0.9c0-0.3,0-0.5,0-0.7c0-0.2,0.1-0.4,0.2-0.5
		C97.5-1.9,97.6-2,97.7-2c0.1-0.1,0.3-0.1,0.5-0.2c0.2,0,0.4,0,0.5,0.1C99-2,99.1-1.9,99.3-1.7C99.5-1.5,99.7-1.3,99.8-1L99.8-1z
		 M97.5-1.1c-0.1,0.3,0,0.7,0.3,1.2c0.1,0.2,0.2,0.4,0.4,0.5c0.1,0.2,0.3,0.3,0.4,0.3c0.1,0.1,0.3,0.1,0.4,0.1c0.1,0,0.3,0,0.4-0.1
		c0.1,0,0.2-0.1,0.2-0.2c0.1-0.1,0.1-0.2,0.1-0.4c0-0.1,0-0.3,0-0.5c0-0.2-0.1-0.4-0.3-0.6c-0.2-0.3-0.3-0.5-0.5-0.7
		c-0.2-0.2-0.3-0.3-0.4-0.3c-0.1-0.1-0.3-0.1-0.4-0.1c-0.1,0-0.2,0-0.3,0.1c-0.1,0.1-0.2,0.1-0.2,0.2C97.6-1.3,97.6-1.2,97.5-1.1
		L97.5-1.1z M101.9-3.8l0.5-0.1l0,0c0,0,0,0,0,0.1c0,0,0,0.1,0,0.1l0.6,2.2c0.1,0.2,0.1,0.4,0.2,0.5c0.1,0.1,0.1,0.2,0.2,0.2
		c0.1,0.1,0.2,0.1,0.3,0.1c0.1,0,0.2,0,0.3,0c0.1,0,0.2-0.1,0.3-0.1c0.1-0.1,0.2-0.1,0.2-0.2c0.1-0.1,0.1-0.2,0.1-0.3
		c0-0.1,0-0.3-0.1-0.5l-0.6-2.4l0.4-0.1l0.6,2.4c0.1,0.2,0.1,0.4,0.1,0.6c0,0.2-0.1,0.3-0.1,0.5c-0.1,0.1-0.2,0.3-0.3,0.3
		c-0.1,0.1-0.3,0.2-0.5,0.2c-0.2,0-0.3,0.1-0.5,0c-0.2,0-0.3-0.1-0.4-0.1c-0.1-0.1-0.2-0.2-0.3-0.3c-0.1-0.1-0.2-0.3-0.2-0.6
		L101.9-3.8z M107.8-4.9l1.9,0l0,0.3l-0.7,0l0,3.1l0.8,0l0,0.3l-2,0l0-0.3l0.7,0l0-3.1l-0.7,0L107.8-4.9L107.8-4.9z M113.2-4.6
		l1.1,0.3c0.4,0.1,0.7,0.3,0.9,0.5c0.1,0.2,0.2,0.5,0.1,0.8c0,0.1-0.1,0.2-0.1,0.3c-0.1,0.1-0.1,0.2-0.2,0.3
		c-0.1,0.1-0.2,0.1-0.3,0.2c-0.1,0-0.2,0.1-0.3,0.1l0.4,1.8l-0.5-0.1l-0.4-1.8l-0.7-0.2l-0.4,1.6l-0.4-0.1L113.2-4.6L113.2-4.6z
		 M113.5-4.1l-0.3,1.3l0.7,0.2c0.3,0.1,0.5,0.1,0.6,0c0.1-0.1,0.2-0.2,0.3-0.4c0-0.1,0-0.2,0-0.3c0-0.1,0-0.2-0.1-0.2
		c0-0.1-0.1-0.1-0.2-0.2c-0.1-0.1-0.2-0.1-0.3-0.1L113.5-4.1L113.5-4.1z M118.7-2.8l2,1.1l-0.2,0.3l-1.7-0.9l-0.6,1.1l1.4,0.7
		l-0.2,0.4l-1.4-0.7l-0.7,1.2l1.7,0.9L119,1.6l-2-1.1L118.7-2.8L118.7-2.8z M122.1,0.6c0.1,0,0.1,0.1,0.1,0.1c0,0.1,0.1,0.1,0.1,0.2
		c0,0.1,0,0.1,0,0.2c0,0.1,0,0.1-0.1,0.2c0,0.1-0.1,0.1-0.1,0.1c-0.1,0-0.1,0-0.2,0c-0.1,0-0.1,0-0.2,0c-0.1,0-0.1-0.1-0.2-0.1
		c-0.1,0-0.1-0.1-0.1-0.1c0-0.1-0.1-0.1-0.1-0.2c0-0.1,0-0.1,0-0.2c0-0.1,0-0.1,0.1-0.2c0,0,0.1-0.1,0.1-0.1c0.1,0,0.1,0,0.2,0
		c0.1,0,0.1,0,0.2,0C122,0.6,122.1,0.6,122.1,0.6L122.1,0.6z M125.4,2l1.2,1.3l-0.3,0.2l-0.4-0.4l-1.6,1.5c-0.2,0.2-0.3,0.3-0.5,0.4
		C123.7,5,123.5,5,123.4,5c-0.1,0-0.3,0-0.4-0.1c-0.1-0.1-0.2-0.1-0.3-0.2c-0.2-0.3-0.3-0.6-0.3-0.9l0.4,0c0,0,0,0,0,0.1
		c0,0,0,0,0,0.1l0,0.1c0,0,0,0.1,0,0.1c0,0,0,0.1,0,0.1c0,0,0,0.1,0.1,0.1c0,0,0.1,0.1,0.1,0.1c0.1,0.1,0.3,0.2,0.5,0.2
		c0.2,0,0.4-0.2,0.6-0.4l1.6-1.5l-0.5-0.5L125.4,2L125.4,2z M128.9,7.7l-0.4-0.1c0,0,0,0,0-0.1c0,0,0,0,0,0c0.1-0.1,0.1-0.3,0.1-0.4
		c0-0.1-0.1-0.3-0.2-0.5c-0.1-0.2-0.2-0.3-0.4-0.3c-0.2-0.1-0.3,0-0.4,0c-0.1,0-0.1,0.1-0.2,0.2c0,0.1-0.1,0.1-0.1,0.2
		c0,0.1,0,0.2,0,0.3c0,0.1,0,0.3,0.1,0.5c0,0.2,0,0.4,0,0.5c0,0.1,0,0.3-0.1,0.4c0,0.1-0.1,0.2-0.2,0.3c-0.1,0.1-0.2,0.1-0.3,0.2
		C126.9,9,126.7,9,126.6,9c-0.1,0-0.3,0-0.4,0c-0.1,0-0.3-0.1-0.4-0.2c-0.1-0.1-0.3-0.3-0.4-0.4c-0.2-0.4-0.3-0.8-0.2-1.3l0.5,0
		c0,0,0,0,0,0.1c0,0,0,0,0,0c-0.1,0.1-0.1,0.3-0.1,0.5c0,0.2,0.1,0.4,0.2,0.5c0.1,0.1,0.1,0.2,0.2,0.2c0.1,0.1,0.2,0.1,0.3,0.1
		c0.1,0,0.2,0,0.3,0c0.1,0,0.2,0,0.3-0.1c0.1,0,0.1-0.1,0.2-0.1c0-0.1,0.1-0.1,0.1-0.2c0-0.1,0-0.2,0-0.3c0-0.2,0-0.3-0.1-0.5
		c0-0.2,0-0.4,0-0.5c0-0.2,0-0.3,0-0.4c0-0.1,0.1-0.2,0.1-0.3c0.1-0.1,0.1-0.1,0.2-0.2c0.1-0.1,0.2-0.1,0.4-0.1c0.1,0,0.3,0,0.4,0.1
		c0.1,0,0.3,0.1,0.4,0.2c0.1,0.1,0.2,0.2,0.3,0.4c0.1,0.2,0.2,0.4,0.2,0.6C129,7.3,129,7.5,128.9,7.7L128.9,7.7z"/>
	<path class="st3" d="M98,37.8h20.5"/>
	<path class="st4" d="M120.2,37.7c0.1,0.1,0.1,0.2,0,0.3l-1.9,1c-0.1,0.1-0.3,0-0.3-0.2v-1.8c0-0.2,0.1-0.2,0.3-0.2L120.2,37.7
		L120.2,37.7z"/>
	<path class="st3" d="M99.8,36.5l1.4,1.4 M98.8,36.5l1.4,1.4 M97.8,36.5l1.4,1.4 M99.2,37.8l-1.4,1.4 M100.2,37.8l-1.4,1.4
		 M101.2,37.8l-1.4,1.4 M100.8,36.5l1.4,1.4 M102.2,37.8l-1.4,1.4"/>
</g>
</svg>
