<?xml version="1.0" encoding="utf-8"?>
<!-- Generator: Adobe Illustrator 19.1.1, SVG Export Plug-In . SVG Version: 6.00 Build 0)  -->
<svg version="1.1" id="sass_1_" xmlns="http://www.w3.org/2000/svg" xmlns:xlink="http://www.w3.org/1999/xlink" x="0px" y="0px"
	 viewBox="88 -6 72.9 55.5" style="enable-background:new 88 -6 72.9 55.5;" xml:space="preserve">
<style type="text/css">
	.st0{fill:#CF649A;}
</style>
<path id="sass" class="st0" d="M150.2,25.7c-2.5,0-4.7,0.6-6.5,1.5c-0.7-1.3-1.4-2.5-1.5-3.4c-0.1-1-0.3-1.6-0.1-2.9
	c0.2-1.2,0.9-2.9,0.9-3.1c0-0.1-0.2-0.7-1.6-0.8s-2.7,0.3-2.9,0.7c-0.1,0.4-0.4,1.3-0.6,2.2c-0.3,1.3-2.9,6-4.4,8.5
	c-0.5-1-0.9-1.8-1-2.5c-0.1-1-0.3-1.6-0.1-2.9c0.2-1.2,0.9-2.9,0.9-3.1c0-0.1-0.2-0.7-1.6-0.8c-1.5,0-2.7,0.3-2.9,0.7
	c-0.1,0.4-0.3,1.3-0.6,2.2c-0.3,0.9-3.8,8.7-4.7,10.8c-0.5,1-0.9,1.9-1.2,2.4c-0.3,0.6,0,0,0,0.1c-0.3,0.5-0.4,0.7-0.4,0.7v0
	c-0.2,0.4-0.4,0.7-0.5,0.7c-0.1,0-0.2-0.9,0-2.2c0.5-2.7,1.8-7,1.8-7.1c0-0.1,0.2-0.8-0.8-1.2c-1-0.4-1.4,0.3-1.5,0.3
	c-0.1,0-0.2,0.2-0.2,0.2s1.1-4.8-2.2-4.8c-2.1,0-5,2.3-6.4,4.3c-0.9,0.5-2.8,1.5-4.9,2.7c-0.8,0.4-1.6,0.9-2.3,1.3l-0.2-0.2
	c-4-4.3-11.5-7.4-11.2-13.1c0.1-2.1,0.8-7.6,14.3-14.4c11.1-5.5,19.9-4,21.4-0.6c2.2,4.8-4.7,13.7-16.2,15c-4.4,0.5-6.7-1.2-7.3-1.8
	c-0.6-0.7-0.7-0.7-0.9-0.6c-0.4,0.2-0.1,0.8,0,1.1c0.3,0.9,1.8,2.5,4.1,3.3c2.1,0.7,7.2,1.1,13.5-1.3c7-2.7,12.4-10.2,10.8-16.4
	c-1.6-6.4-12.2-8.5-22.2-4.9c-5.9,2.1-12.4,5.4-17,9.8c-5.5,5.1-6.4,9.6-6,11.5c1.3,6.6,10.4,11,14.1,14.2c-0.2,0.1-0.4,0.2-0.5,0.3
	c-1.8,0.9-8.8,4.6-10.6,8.4c-2,4.4,0.3,7.5,1.8,7.9c4.7,1.3,9.5-1,12.2-4.9c2.6-3.9,2.3-8.9,1.1-11.2l0-0.1l1.4-0.8
	c0.9-0.6,1.8-1.1,2.7-1.5c-0.5,1.2-0.8,2.7-0.9,4.8c-0.2,2.5,0.8,5.7,2.2,7c0.6,0.6,1.3,0.6,1.7,0.6c1.6,0,2.3-1.3,3-2.8
	c1-1.9,1.8-4.1,1.8-4.1s-1.1,5.9,1.8,5.9c1.1,0,2.1-1.4,2.6-2.1v0c0,0,0,0,0.1-0.1c0.1-0.1,0.1-0.2,0.2-0.3v0
	c0.4-0.7,1.4-2.4,2.8-5.2c1.8-3.6,3.6-8.1,3.6-8.1s0.2,1.1,0.7,2.9c0.3,1.1,1,2.2,1.5,3.4c-0.4,0.6-0.7,0.9-0.7,0.9l0,0
	c-0.3,0.5-0.7,0.9-1.1,1.4c-1.4,1.7-3.2,3.7-3.4,4.2c-0.3,0.7-0.2,1.2,0.3,1.6c0.4,0.3,1.1,0.3,1.8,0.3c1.3-0.1,2.2-0.4,2.7-0.6
	c0.7-0.3,1.5-0.6,2.3-1.2c1.4-1,2.3-2.5,2.2-4.5c0-1.1-0.4-2.2-0.8-3.2c0.1-0.2,0.3-0.4,0.4-0.6c2.2-3.3,4-6.8,4-6.8
	s0.2,1.1,0.7,2.9c0.3,0.9,0.8,1.9,1.3,2.9c-2.1,1.7-3.4,3.7-3.9,5c-0.8,2.4-0.2,3.5,1,3.7c0.6,0.1,1.3-0.1,1.9-0.4
	c0.7-0.2,1.6-0.6,2.4-1.3c1.4-1,2.8-2.5,2.7-4.5c0-0.9-0.3-1.8-0.6-2.6c1.8-0.7,4.1-1.2,7-0.8c6.3,0.7,7.5,4.7,7.3,6.3
	c-0.2,1.6-1.6,2.5-2,2.8c-0.4,0.3-0.6,0.4-0.5,0.6c0.1,0.3,0.3,0.3,0.6,0.2c0.5-0.1,3.3-1.3,3.4-4.4
	C160.4,29.9,156.7,25.7,150.2,25.7L150.2,25.7z M101.8,42.1c-2.1,2.3-5,3.1-6.2,2.4c-1.3-0.8-0.8-4.1,1.7-6.5
	c1.6-1.5,3.6-2.8,4.9-3.7c0.3-0.2,0.7-0.5,1.3-0.8c0.1-0.1,0.1-0.1,0.1-0.1c0.1-0.1,0.2-0.1,0.3-0.2C104.9,36.7,104,39.7,101.8,42.1
	L101.8,42.1z M116.9,31.7c-0.7,1.8-2.2,6.3-3.2,6c-0.8-0.2-1.3-3.6-0.2-7c0.6-1.7,1.8-3.7,2.5-4.5c1.1-1.3,2.4-1.7,2.7-1.2
	C119.2,25.7,117.4,30.6,116.9,31.7z M129.5,37.7c-0.3,0.2-0.6,0.3-0.7,0.2c-0.1-0.1,0.1-0.3,0.1-0.3s1.6-1.7,2.2-2.5
	c0.4-0.5,0.8-1,1.2-1.6v0.2C132.3,35.8,130.3,37.2,129.5,37.7L129.5,37.7z M139.1,35.5c-0.2-0.2-0.2-0.7,0.6-2.3
	c0.3-0.6,1-1.7,2.1-2.8c0.1,0.4,0.2,0.8,0.2,1.2C142,34.2,140.2,35.1,139.1,35.5z"/>
</svg>
