<?xml version="1.0" encoding="utf-8"?>
<!-- Generator: Adobe Illustrator 19.1.1, SVG Export Plug-In . SVG Version: 6.00 Build 0)  -->
<svg version="1.1" id="Слой_1" xmlns="http://www.w3.org/2000/svg" xmlns:xlink="http://www.w3.org/1999/xlink" x="0px" y="0px"
	 viewBox="0 0 40 39.3" style="enable-background:new 0 0 40 39.3;" xml:space="preserve">
<style type="text/css">
	.st0{opacity:0.7;}
</style>
<path class="st0" d="M36.2,18.1h-3.9h-0.5c-1.2,0-2.1,0.9-2.1,2.1v0.2c0,1.2,0.9,2.1,2.1,2.1h3.9h0.5c1.2,0,2.1-0.9,2.1-2.1l0-0.2
	C38.3,19,37.4,18.1,36.2,18.1z M36.2,12.8h-0.9V2.7c0-1.5-1.2-2.7-2.7-2.7H15.1c-1.5,0-2.7,1.2-2.7,2.7V10c-3.5,2-7.2,4.1-7.2,4.1
	c-2,0.8-4.9,3.4-4.9,9.7c0,0.6,0,1.1,0.1,1.6c0,0.1,0,0.3,0.1,0.4c0.1,0.4,0.1,0.7,0.2,1c0,0.1,0,0.2,0.1,0.4
	c0.1,0.4,0.2,0.7,0.4,1.1c0.1,0.2,0.1,0.3,0.2,0.5c0.1,0.2,0.2,0.3,0.2,0.5c0.1,0.2,0.2,0.4,0.3,0.5c0,0,0.1,0.1,0.1,0.1
	c2.6,3.9,7.3,3.9,7.3,3.9h3.2v3c0,1.5,1.2,2.7,2.7,2.7h17.5c1.5,0,2.7-1.2,2.7-2.7V33h0.4v0h0.5c1.2,0,2.1-0.9,2.1-2.1l0-0.2
	c0-1.2-0.9-2.1-2.1-2.1h-0.5h-3.4h-0.5c-1.2,0-2.1,0.9-2.1,2.1v0.2c0,1.2,0.9,2.1,2.1,2.1h1.7v1.4H14.3V15.3c1-0.6,1.9-1.2,2.4-1.6
	c2.6-2,5-3.6,5.3-5c0.4-1.9-1-3.4-3.5-2.1c-0.8,0.4-2.4,1.3-4.2,2.3V4.2l19.1,0v8.6h-1.1v0h-0.5c-1.2,0-2.1,0.9-2.1,2.1v0.2
	c0,1.2,0.9,2.1,2.1,2.1h0.5h3.4h0.5c1.2,0,2.1-0.9,2.1-2.1v-0.2C38.3,13.8,37.4,12.8,36.2,12.8z M23.9,35.3c0.7,0,1.3,0.6,1.3,1.3
	c0,0.7-0.6,1.3-1.3,1.3c-0.7,0-1.3-0.6-1.3-1.3C22.6,35.9,23.2,35.3,23.9,35.3z M26.7,2.6h-5.6c-0.2,0-0.3-0.1-0.3-0.3
	c0-0.2,0.1-0.3,0.3-0.3h5.6c0.2,0,0.3,0.1,0.3,0.3C27,2.4,26.9,2.6,26.7,2.6z M36.2,23.3h-0.5h-3.9c-1.2,0-2.1,0.9-2.1,2.1v0.2
	c0,1.2,0.9,2.1,2.1,2.1h0.5h3.4h0.5c1.2,0,2.1-0.9,2.1-2.1v-0.2C38.3,24.3,37.4,23.3,36.2,23.3z"/>
</svg>
