<?xml version="1.0" encoding="utf-8"?>
<!-- Generator: Adobe Illustrator 19.1.1, SVG Export Plug-In . SVG Version: 6.00 Build 0)  -->
<svg version="1.1" id="Слой_1" xmlns="http://www.w3.org/2000/svg" xmlns:xlink="http://www.w3.org/1999/xlink" x="0px" y="0px"
	 viewBox="0 0 14.8 15.1" style="enable-background:new 0 0 14.8 15.1;" xml:space="preserve">
<style type="text/css">
	.st0{fill:none;stroke:#000000;stroke-miterlimit:10;}
</style>
<path class="st0" d="M7.4,1C3.8,1,0.9,3.9,0.9,7.5s2.9,6.5,6.5,6.5s6.5-2.9,6.5-6.5S11,1,7.4,1z M7.4,13.6c-3.4,0-6.1-2.7-6.1-6.1
	s2.7-6.1,6.1-6.1s6.1,2.7,6.1,6.1S10.8,13.6,7.4,13.6z M7.9,4.1v3.7c0,0.1-0.1,0.2-0.2,0.2H5.3c-0.1,0-0.2-0.1-0.2-0.2
	c0-0.1,0.1-0.2,0.2-0.2h2.3V4.1C7.6,4,7.6,4,7.7,4C7.8,4,7.9,4,7.9,4.1z"/>
</svg>
