<?xml version="1.0" encoding="utf-8"?>
<!-- Generator: Adobe Illustrator 19.1.1, SVG Export Plug-In . SVG Version: 6.00 Build 0)  -->
<svg version="1.1" id="webpak" xmlns="http://www.w3.org/2000/svg" xmlns:xlink="http://www.w3.org/1999/xlink" x="0px" y="0px"
	 viewBox="113 -16.57125 240.66667 67.57125" style="enable-background:new 113 -16.57125 240.66667 67.57125;"
	 xml:space="preserve">
<style type="text/css">
	.st0{fill:url(#SVGID_1_);}
	.st1{fill:#6F95DB;}
	.st2{fill:#FFFFFF;fill-opacity:0.1;}
</style>
<g id="Webpack_1_">
	
		<radialGradient id="SVGID_1_" cx="-236.82582" cy="297.31827" r="0.01247" gradientTransform="matrix(2157.51538 0 0 -2491.28271 511096.6875 740720.375)" gradientUnits="userSpaceOnUse">
		<stop  offset="0" style="stop-color:#93B4E7"/>
		<stop  offset="0.59273" style="stop-color:#B9D1F8"/>
		<stop  offset="1" style="stop-color:#9CB6E0"/>
	</radialGradient>
	<path class="st0" d="M141.29791-14.55818L114.3961,0.97353v31.06363l26.90182,15.53192l26.90201-15.53192V0.97353
		L141.29791-14.55818z"/>
	<path class="st1" d="M141.29832,1.19678l-13.34075,7.70215v15.40472l13.34075,7.70236l13.34076-7.70236V8.89892L141.29832,1.19678z
		"/>
	<path class="st2" d="M141.29117-14.65422L114.33334,0.98343l26.95783,14.67791l26.95782-14.58208L141.29117-14.65422z
		 M141.29117,17.67602L114.33334,31.9702l26.95783,15.5414l26.8618-15.63744l-26.8618-14.19794V17.67602z"/>
	<g>
		<path d="M190.77441,4.00834l4.31104-1.19141l5.02979,17.84814l0.43457,2.62793h0.15137l0.45361-2.62793l4.72656-15.88184h4.25391
			l4.72656,15.88184l0.47266,2.62793h0.15137l0.43506-2.62793l5.0293-17.84814l4.29199,1.19141l-7.62988,27.07471h-4.06055
			l-5.04248-17.07324l-0.41553-2.62793h-0.15137l-0.43408,2.62793l-5.02393,17.07324h-4.06055L190.77441,4.00834z"/>
		<path d="M227.75732,27.39652V13.72611l3.70557-3.66797h9.68066l3.72363,3.66797v5.93701l-3.32666,3.29004h-9.34033v2.85449
			l1.20996,1.20996h6.03174l4.34912-1.36133l1.19141,3.87598l-4.95459,1.55078h-8.56494L227.75732,27.39652z M232.2002,18.88773
			h7.20361l1.00195-1.00195v-2.57129l-1.19092-1.19092h-5.80469l-1.20996,1.19092V18.88773z"/>
		<path d="M248.0625,4.59428l4.17871-1.39941l1.58789,4.80273v3.57324l2.09863-1.5127h6.84473l3.72461,3.66797v13.67041
			l-3.72461,3.68652h-9.68066l-3.70605-3.68652V8.54594L248.0625,4.59428z M253.8291,25.80766l1.20996,1.20996h5.80469
			l1.19141-1.20996V15.31449l-1.19141-1.19092h-4.53711l-2.47754,1.77686V25.80766z"/>
		<path d="M270.35449,10.56889l3.61133-0.90771l0.7373,2.9873l2.23145-2.59033h8.0166l3.72461,3.66797v13.67041l-3.72461,3.68652
			h-6.84473l-2.09863-1.5127v8.0166h-4.44336V15.4849L270.35449,10.56889z M276.00781,25.24027l2.47656,1.77734h4.53809
			l1.19141-1.20996V15.31449l-1.19141-1.19092h-4.87793l-2.13672,2.43896V25.24027z"/>
		<path d="M292.53223,27.39652v-5.18066l3.72461-3.6875h8.98145v-3.21387l-1.20996-1.19092H298.375l-4.33008,1.36133
			l-1.19141-3.87598l4.9541-1.55078h8.16797l3.70508,3.66797v11.93018l1.21094,4.91602l-3.61133,0.88867l-0.71875-2.96777
			l-2.25,2.58984h-8.05469L292.53223,27.39652z M296.99414,25.80766l1.19141,1.20996h4.91602l2.13672-2.43848v-1.98535h-7.05273
			l-1.19141,1.20996V25.80766z"/>
		<path d="M314.76758,27.39652V13.72611l3.70605-3.66797h9.67969l3.72461,3.66797v4.57568h-4.46191v-2.9873l-1.19141-1.19092
			h-5.80371l-1.20996,1.19092v10.49316l1.20996,1.20996h6.21973l4.27344-1.36133l1.22852,3.87598l-4.95313,1.55078h-8.71582
			L314.76758,27.39652z"/>
		<path d="M335.24414,4.59428l4.17871-1.39941l1.58789,4.80273v10.15283l9.13184-8.67822l2.94922,3.10059l-6.93848,6.57959
			l6.93848,10.07813l-3.53516,2.43848l-6.61719-9.60449l-1.92871,1.81543v7.20313h-4.46191V8.54594L335.24414,4.59428z"/>
	</g>
</g>
</svg>
