<?xml version="1.0" encoding="utf-8"?>
<!-- Generator: Adobe Illustrator 19.1.1, SVG Export Plug-In . SVG Version: 6.00 Build 0)  -->
<svg version="1.1" id="wordpress_1_" xmlns="http://www.w3.org/2000/svg" xmlns:xlink="http://www.w3.org/1999/xlink" x="0px"
	 y="0px" viewBox="49 -6 206.8 55.5" style="enable-background:new 49 -6 206.8 55.5;" xml:space="preserve">
<style type="text/css">
	.st0{fill:#00749A;}
	.st1{fill:#464342;}
</style>
<g id="wordpress">
	<path class="st0" d="M169.2,17.5h-8.1v0.9c2.5,0,2.9,0.5,2.9,3.8V28c0,3.2-0.4,3.8-2.9,3.8c-1.9-0.3-3.3-1.3-5.1-3.3l-2.1-2.3
		c2.8-0.5,4.3-2.3,4.3-4.3c0-2.5-2.1-4.4-6.1-4.4h-8v0.9c2.5,0,2.9,0.5,2.9,3.8V28c0,3.2-0.4,3.8-2.9,3.8v0.9h9v-0.9
		c-2.5,0-2.9-0.6-2.9-3.8v-1.6h0.8l5,6.3h13.2c6.5,0,9.3-3.4,9.3-7.6C178.5,20.9,175.7,17.5,169.2,17.5L169.2,17.5z M150.2,24.9v-6
		h1.9c2,0,2.9,1.4,2.9,3c0,1.6-0.9,3-2.9,3L150.2,24.9z M169.4,31.2H169c-1.6,0-1.9-0.4-1.9-2.5v-9.8h2.2c4.7,0,5.6,3.4,5.6,6.1
		C174.9,27.8,174.1,31.2,169.4,31.2z M118.9,26.6l3.1-9.2c0.9-2.7,0.5-3.4-2.4-3.4V13h8.5v0.9c-2.9,0-3.5,0.7-4.7,4l-5.2,15.5h-0.6
		l-4.6-14.2l-4.7,14.2h-0.6l-5-15.5c-1.1-3.3-1.8-4-4.4-4V13h10.1v0.9c-2.7,0-3.4,0.6-2.4,3.4l3,9.2l4.6-13.6h0.9L118.9,26.6
		L118.9,26.6z M134.3,33.2c-5,0-9.1-3.7-9.1-8.2c0-4.4,4.1-8.1,9.1-8.1c5,0,9.1,3.7,9.1,8.1C143.4,29.5,139.3,33.2,134.3,33.2z
		 M134.3,18.4c-4.2,0-5.6,3.8-5.6,6.7c0,3,1.5,6.7,5.6,6.7c4.2,0,5.7-3.7,5.7-6.7C140,22.1,138.6,18.4,134.3,18.4L134.3,18.4z"/>
	<path class="st1" d="M189.7,31.7v0.9h-10.4v-0.9c3,0,3.6-0.8,3.6-5.3v-7.2c0-4.5-0.5-5.3-3.6-5.3V13h9.4c4.7,0,7.2,2.4,7.2,5.6
		c0,3.1-2.6,5.6-7.2,5.6h-2.6v2.2C186.1,30.9,186.7,31.7,189.7,31.7L189.7,31.7z M188.7,14.6h-2.6v7.9h2.6c2.5,0,3.7-1.8,3.7-3.9
		C192.4,16.5,191.2,14.6,188.7,14.6z M227.1,28.4l-0.2,0.8c-0.4,1.5-0.9,2-4.1,2h-0.6c-2.4,0-2.8-0.5-2.8-3.8v-2.1
		c3.5,0,3.8,0.3,3.8,2.7h0.9v-6.8h-0.9c0,2.4-0.3,2.7-3.8,2.7v-5.1h2.5c3.2,0,3.7,0.5,4.1,2l0.2,0.9h0.7l-0.3-4.3h-13.3v0.9
		c2.5,0,2.9,0.5,2.9,3.8V28c0,2.9-0.3,3.7-2.3,3.8c-1.9-0.3-3.2-1.3-5-3.3l-2.1-2.3c2.8-0.5,4.3-2.3,4.3-4.3c0-2.5-2.1-4.4-6.1-4.4
		h-8v0.9c2.5,0,2.9,0.5,2.9,3.8V28c0,3.2-0.4,3.8-2.9,3.8v0.9h9v-0.9c-2.5,0-2.9-0.6-2.9-3.8v-1.6h0.8l5,6.3h18.6l0.3-4.3
		L227.1,28.4L227.1,28.4z M203.1,24.9v-6h1.9c2,0,2.9,1.4,2.9,3c0,1.6-0.9,3-2.9,3L203.1,24.9z M236.3,33.2c-1.8,0-3.4-1-4.1-1.5
		c-0.2,0.2-0.6,0.9-0.7,1.5h-0.9V27h0.9c0.4,3,2.4,4.8,5.1,4.8c1.4,0,2.6-0.8,2.6-2.2c0-1.2-1-2.1-2.9-2.9l-2.6-1.2
		c-1.8-0.9-3.2-2.4-3.2-4.3c0-2.2,2-4,4.8-4c1.5,0,2.8,0.5,3.5,1.2c0.2-0.2,0.5-0.7,0.6-1.2h0.9v5.3h-1c-0.3-2.1-1.5-3.9-3.9-3.9
		c-1.3,0-2.4,0.7-2.4,1.9c0,1.2,1,1.8,3.1,2.8l2.5,1.2c2.2,1,3,2.7,3,4.1C241.8,31.2,239.3,33.2,236.3,33.2L236.3,33.2z M250.2,33.2
		c-1.8,0-3.4-1-4.1-1.5c-0.2,0.2-0.6,0.9-0.7,1.5h-0.9V27h0.9c0.4,3,2.4,4.8,5.1,4.8c1.4,0,2.6-0.8,2.6-2.2c0-1.2-1-2.1-2.9-2.9
		l-2.6-1.2c-1.8-0.9-3.2-2.4-3.2-4.3c0-2.2,2-4,4.8-4c1.5,0,2.8,0.5,3.5,1.2c0.2-0.2,0.5-0.7,0.6-1.2h0.9v5.3h-1
		c-0.3-2.1-1.5-3.9-3.9-3.9c-1.3,0-2.4,0.7-2.4,1.9c0,1.2,1,1.8,3.1,2.8l2.5,1.2c2.2,1,3,2.7,3,4.1
		C255.7,31.2,253.3,33.2,250.2,33.2L250.2,33.2z"/>
	<path class="st1" d="M53.1,22.5c0,7.9,4.6,14.8,11.3,18l-9.6-26.2C53.7,16.9,53.1,19.7,53.1,22.5z M86.7,21.5
		c0-2.5-0.9-4.2-1.7-5.5c-1-1.7-2-3-2-4.7c0-1.8,1.4-3.6,3.4-3.6c0.1,0,0.2,0,0.3,0c-3.6-3.3-8.3-5.3-13.5-5.3c-7,0-13.2,3.6-16.8,9
		c0.5,0,0.9,0,1.3,0c2.1,0,5.3-0.3,5.3-0.3c1.1-0.1,1.2,1.5,0.1,1.7c0,0-1.1,0.1-2.3,0.2l7.3,21.7l4.4-13.2l-3.1-8.6
		c-1.1-0.1-2.1-0.2-2.1-0.2c-1.1-0.1-1-1.7,0.1-1.7c0,0,3.3,0.3,5.3,0.3c2.1,0,5.3-0.3,5.3-0.3c1.1-0.1,1.2,1.5,0.1,1.7
		c0,0-1.1,0.1-2.3,0.2l7.2,21.6l2-6.7C86,25.2,86.7,23.2,86.7,21.5z"/>
	<path class="st1" d="M73.5,24.3l-6,17.5c1.8,0.5,3.7,0.8,5.7,0.8c2.3,0,4.5-0.4,6.7-1.1c-0.1-0.1-0.1-0.2-0.1-0.3L73.5,24.3z
		 M90.7,12.9c0.1,0.6,0.1,1.3,0.1,2.1c0,2-0.4,4.3-1.5,7.2l-6.1,17.7c6-3.5,10-9.9,10-17.3C93.2,19.1,92.3,15.8,90.7,12.9L90.7,12.9
		z"/>
	<path class="st1" d="M73.1-0.9c-12.9,0-23.4,10.5-23.4,23.4c0,12.9,10.5,23.4,23.4,23.4c12.9,0,23.4-10.5,23.4-23.4
		C96.5,9.6,86-0.9,73.1-0.9z M73.1,44.8c-12.3,0-22.3-10-22.3-22.3c0-12.3,10-22.3,22.3-22.3c12.3,0,22.3,10,22.3,22.3
		C95.4,34.8,85.4,44.8,73.1,44.8L73.1,44.8z"/>
</g>
</svg>
