<?xml version="1.0" encoding="utf-8"?>
<!-- Generator: Adobe Illustrator 19.1.1, SVG Export Plug-In . SVG Version: 6.00 Build 0)  -->
<svg version="1.1" id="Слой_1" xmlns="http://www.w3.org/2000/svg" xmlns:xlink="http://www.w3.org/1999/xlink" x="0px" y="0px"
	 viewBox="0 0 374 374" style="enable-background:new 0 0 374 374;" xml:space="preserve">
<path d="M188.6,3C87.3,3,5.2,85.1,5.2,186.4s82.1,183.4,183.4,183.4S372,287.6,372,186.4S289.9,3,188.6,3z M187.9,367.4
	c-99.8,0-181.1-81.2-181.1-181.1S88.1,5.3,187.9,5.3C287.8,5.3,369,86.5,369,186.3S287.8,367.4,187.9,367.4z M187.9,24.9
	c-89,0-161.4,72.4-161.4,161.4s72.4,161.4,161.4,161.4c89,0,161.4-72.4,161.4-161.4S276.9,24.9,187.9,24.9z M127.1,81H146v121h20v21
	h-63v-21h20v-81l0.9-6.6l-0.8-0.4l-4.8,7l-7.2,7.1l-15.6-15.5L127.1,81z M143,276c0,12.7-10.3,23-23,23c-4.9,0-9.5-1.5-13.2-4.2
	l-8.1,8.1l-8.1-8.1l8.8-8.8c-1.5-3-2.3-6.4-2.3-10c0-12.7,10.3-23,23-23c3.6,0,7,0.8,10,2.3l8.2-8.2l8.1,8.1l-7.6,7.6
	C141.5,266.5,143,271.1,143,276z M182,299c-12.7,0-23-10.3-23-23s10.3-23,23-23s23,10.3,23,23S194.7,299,182,299z M248,299
	c-12.7,0-23-10.3-23-23s10.3-23,23-23s23,10.3,23,23S260.7,299,248,299z M272,141.2l-18,20.2l-58,36.2v4.4h76v21h-99v-36.4
	l65.6-40.8l10.4-11.5v-21.9L239,102h-38.4l-22.5,7L172,89l25.8-8h51.4l22.8,23.1V141.2z"/>
</svg>
