<?xml version="1.0" encoding="utf-8"?>
<!-- Generator: Adobe Illustrator 19.1.1, SVG Export Plug-In . SVG Version: 6.00 Build 0)  -->
<svg version="1.1" id="Слой_1" xmlns="http://www.w3.org/2000/svg" xmlns:xlink="http://www.w3.org/1999/xlink" x="0px" y="0px"
	 viewBox="-292 94 374 374" style="enable-background:new -292 94 374 374;" xml:space="preserve">
<style type="text/css">
	.st0{fill:#FFFFFF;}
	.st1{enable-background:new    ;}
</style>
<g id="Слой_1_1_">
	<g>
		<circle class="st0" cx="-104.1" cy="281.3" r="174.1"/>
		<path d="M-104.1,465.4c-101.5,0-184.1-82.6-184.1-184.1c0-101.5,82.6-184.1,184.1-184.1S80,179.8,80,281.3
			C80,382.8-2.6,465.4-104.1,465.4z M-104.1,117.2c-90.5,0-164.1,73.6-164.1,164.1c0,90.5,73.6,164.1,164.1,164.1
			c90.5,0,164.1-73.6,164.1-164.1C60,190.8-13.6,117.2-104.1,117.2z"/>
	</g>
	<g class="st1">
		<path d="M-196.5,206.6l31.6-31.6h18.8v121h20.1v21h-63.4v-21h20.2v-81l1-6.6l-0.8-0.4l-4.8,7l-7.2,7.1L-196.5,206.6z"/>
		<path d="M-120,183l25.8-8h51.4l23,23.1v37l-18,20.2l-58,36.2v4.4h76v21h-99v-36.4l65.6-40.8l10.4-11.5v-21.9L-53,196h-38.4
			l-22.5,7L-120,183z"/>
	</g>
	<circle cx="-172" cy="370" r="23"/>
	<rect x="-179.3" y="335.3" transform="matrix(-0.7071 -0.7071 0.7071 -0.7071 -557.2723 507.2355)" width="11.5" height="67.5"/>
	<circle cx="-110" cy="370" r="23"/>
	<rect x="-117.3" y="335.3" transform="matrix(-0.7071 -0.7071 0.7071 -0.7071 -451.4321 551.0752)" width="11.5" height="67.5"/>
	<circle cx="-44" cy="370" r="23"/>
	<rect x="-51.3" y="335.3" transform="matrix(-0.7071 -0.7071 0.7071 -0.7071 -338.7635 597.743)" width="11.5" height="67.5"/>
</g>
</svg>
