<?xml version="1.0" encoding="utf-8"?>
<!-- Generator: Adobe Illustrator 19.1.1, SVG Export Plug-In . SVG Version: 6.00 Build 0)  -->
<svg version="1.1" id="Слой_3" xmlns="http://www.w3.org/2000/svg" xmlns:xlink="http://www.w3.org/1999/xlink" x="0px" y="0px"
	 viewBox="0 0 400 600" style="enable-background:new 0 0 400 600;" xml:space="preserve">
<style type="text/css">
	.st0{opacity:0.4;fill:#FFFFFF;}
</style>
<path id="fon" class="st0" d="M0,0.4v11h1v44H0v544h400V0.4H0z M385.9,232.4l-8.3,13.9l-19.5,32l-7.4,12.1h-16l7.5-11.5l19.5-31.5
	h-96.7l26.9,43h0l8.4,14.1l0,0.2l6.2,10.4l-0.4,0.2l6.1,10.8v0.2l0.6,0.2l0.3,0.1l6.9,11.2l0.1,0.1l1.2,1.9l-1.8,2.1l-7.3,11.2v-0.3
	l-6.1-10.9l0.1-0.1l-1-1.9l-21-34.8v0l-8.3-13.8l0,0l-27-44.5l0-0.3l-8.3-13.8H385.9z M161.3,294l8.3-13.7l0,0l21.1-34.8l1.1-1.8
	l0.1-0.1l6.8-11.2l6.8,11.2l1.2,2l-1.2,1.9l-0.1,0.1l-6.8,11.2l-6.8,11.2l-0.1,0.1l-6.2,10.3l0,0l-8.3,13.8l0-0.6l-26.9,43.8h96.8
	l-21.4-34.7l-5.5-9.2l-1.9-3.1h16l1.9,3.4l5.5,8.8l21.4,34.8h0l8.4,14H125.9l8.3-14h0l0,0.6l26.9-44.1L161.3,294z M135,246.5l9-13.7
	v-0.4h16.8l-8.3,15h0l-56.4,92.7l-7.8,12.7l-0.7,0.1l-0.6-0.2v-0.3l-7.9-13.1l7.9-13v0.1L135,246.5L135,246.5z M30,232.4v0.3
	l9.2,13.6l0.5,0l36.5,59.8l1-1.7l8.5-14h15.6l-8.9,14.1l-5.2,8v-0.1l-2.9,6h0.1L76.1,332l-7.8-12.8l-44.2-73v-0.1l-8.2-13.8H30z"/>
</svg>
