<?xml version="1.0" encoding="utf-8"?>
<!-- Generator: Adobe Illustrator 19.1.1, SVG Export Plug-In . SVG Version: 6.00 Build 0)  -->
<svg version="1.1" id="fon_x5F_podkladki" xmlns="http://www.w3.org/2000/svg" xmlns:xlink="http://www.w3.org/1999/xlink" x="0px"
	 y="0px" viewBox="0 0 622 940" style="enable-background:new 0 0 622 940;" xml:space="preserve">
<style type="text/css">
	.st0{opacity:0.4;fill:#FFFFFF;}
</style>
<path class="st0" d="M488.4,319l0.1,0.2L563,442.5l0.1,0.1l23.1,38.2l0.1,0.1l17.2,28.5l0.3,0.4L622,540V319H488.4z M622,0H0v441
	h36.2L13,480.1L0,502.3v38.9l0.1-0.4l133.8-221.5l0-0.1L157,281l0,0h44.3l-0.1-0.1L178.2,319h-0.1l-156,258.3L0.1,614L0,613.6V940
	h622V613.2L603.7,583l-0.3-0.4l-3.1-5.2l-58.3-96.5l-0.1-0.1l-23.1-38.2l-0.1-0.1l-74.5-123.3l-0.1-0.1L421.1,281l-0.1,0H622V0z
	 M424.9,476.6l59.1,97.8l0.1,0.3l23.1,38.3H104.6l23-38.1l0.1-0.2l0.1-0.3l74.4-123.1l0.1-0.1l23.1-38.2l0.1-0.1l58.3-96.5l3.1-5.2
	l0.2-0.4l18.8-31.1l18.7,31l3.4,5.6l-3.2,5.3l-0.2,0.4l-18.7,31l-18.8,31.1l-0.2,0.4L269.7,413l-0.1,0.1l-23.1,38.2l-0.1-0.1
	L172.1,574h267.7l-59.2-97.6l-15.3-26l-5.2-9.3h44.3l5.2,9.4L424.9,476.6z"/>
</svg>
