<?xml version="1.0" encoding="utf-8"?>
<!-- Generator: Adobe Illustrator 19.1.1, SVG Export Plug-In . SVG Version: 6.00 Build 0)  -->
<svg version="1.1" xmlns="http://www.w3.org/2000/svg" xmlns:xlink="http://www.w3.org/1999/xlink" x="0px" y="0px"
	 viewBox="0 0 880 341" style="enable-background:new 0 0 880 341;" xml:space="preserve">
<style type="text/css">
	.st0{display:none;}
	.st1{fill:none;stroke:#000000;stroke-width:30;stroke-miterlimit:10;}
	.st2{display:inline;}
	.st3{display:inline;fill:#603813;}
</style>
<g id="Слой_2" class="st0">
	<polygon class="st1" points="-2833.1,283 -2703.1,58 -2573.1,283 	"/>
	<polygon class="st1" points="-2352.1,43 -2482.1,268 -2612.1,43 	"/>
	<polygon class="st1" points="-2795.1,43 -2925.1,268 -3055.1,43 	"/>
	<polygon points="-3014.3,190.4 -3123.5,41.3 -3170.1,41.3 -3014.3,254 -2858.4,41 -2905,41.1 	"/>
</g>
<g id="var1">
	<polygon points="-3025.3,222.5 -3039.6,245.9 -3039.6,245.9 -3039.7,245.9 -3040.2,245.9 -3055,222.5 -3055,222.5 -3132.8,94.1 
		-3147.7,69.2 -3119.3,69 -3104.6,93.9 -3041,199.1 -3041,199.1 -3040.3,199.4 -3025.8,222.5 -3025.5,222.5 	"/>
	<polygon class="st0" points="-2732.9,-16.3 -2732.9,-16.2 -2733,-16.2 -2733,-16.3 	"/>
	<polygon points="-2940,67.8 -2953.7,92.6 -3024.4,220.1 -3024.4,220.1 -3038.6,245.9 -3038.7,245.9 -3038.7,245.9 -3052.9,220.1 
		-3038.8,194.7 -3038.6,194.3 -2982.6,93.2 -2968.8,68.4 -2945,67.9 	"/>
	<polygon points="-2864.4,37.2 -2866.6,41.2 -2878.3,62.3 -2995.8,274.4 -3010.1,300.2 -3024.4,274.4 -3010.1,248.6 -2906.9,62.5 
		-2895.3,41.4 -2893,37.4 -2881.4,37.3 	"/>
	<polygon points="-3075.9,-144.3 -3075.9,-144.2 -3076,-144.2 -3076,-144.3 	"/>
	<polygon class="st0" points="-3017.2,65 -3003.6,90 -3032,90 -3045.8,65 -3019.2,65 	"/>
	<polygon class="st0" points="-2744.8,178.2 -2744.8,178.2 -2744.9,178.3 -2774.4,178.9 -2774.4,178.9 -2789,179.2 -2812.7,179.6 
		-2817.8,179.8 -2841.6,180.2 -2979.6,183 -3007.7,183.6 -3022.3,184 -3022.4,184 -3050.9,184.5 -3038.6,160.9 -3037.6,159.3 
		-3021.2,159.1 -3009.1,159 -3009.1,159 -2993,158.7 -2827.8,155.4 -2804,154.9 -2799,154.8 -2790.7,154.6 -2790.7,154.5 
		-2790.3,154.5 -2775.1,154.1 -2761.1,153.7 -2761,153.6 -2761,153.5 	"/>
</g>
<g id="Слой_4">
	<polygon points="-2657.1,299.7 -2685.7,299.8 -2699.4,275 -2699.5,274.8 -2749.7,184 -2749.8,183.9 -2749.8,184.3 -2763.6,160 
		-2735,160 -2721.3,184.3 -2721.2,184.2 -2671,274.9 -2671,274.9 	"/>
	<polygon points="-2773.8,38 -2788.1,63.4 -2802.4,88.9 -2905.6,274.9 -2905.7,275.1 -2919.5,299.8 -2919.5,300.4 -2947.9,301 
		-2948.1,301 -2948,300.3 -2934.3,275.3 -2934.2,274.9 -2816.7,62.9 -2802.4,37.6 -2802.4,38 	"/>
	<polygon points="-2657.1,299.7 -2685.7,300.3 -2919.5,301 -2948.1,301 -2948,300.8 -2934.3,276 -2671,276 -2671,275.4 	"/>
	
		<rect x="-2284.1" y="9.6" transform="matrix(0.8751 -0.4839 0.4839 0.8751 -414.4779 -1065.3433)" class="st0" width="25" height="521.7"/>
	
		<rect x="-2158.6" y="16.9" transform="matrix(0.8746 0.4848 -0.4848 0.8746 -160.9042 1068.3301)" class="st0" width="25" height="412.3"/>
	<rect x="-2436.3" y="123.2" class="st0" width="422.2" height="25"/>
	<polygon points="-2721.3,184.9 -2749.6,185 -2749.8,185 -2802,183.9 -2802,158.9 -2763.6,160 -2735,160 	"/>
	<polygon points="-2439.2,37.3 -2467.7,37.3 -2481.4,62 -2481.5,62.3 -2531.7,153 -2531.8,153.1 -2531.8,153.7 -2545.6,179 
		-2517,179 -2503.3,153.7 -2503.2,153.3 -2453,62.4 -2453,62.3 	"/>
	<polygon points="-2555.8,301 -2570.1,274.6 -2584.4,248.6 -2687.6,62.3 -2687.7,62.1 -2701.5,37.2 -2701.5,37.6 -2729.9,38 
		-2730.2,38 -2730,37.7 -2716.3,62.3 -2716.2,62.3 -2598.7,274.2 -2584.4,300.5 -2584.4,301 	"/>
	<polygon points="-2439.2,37.3 -2467.7,37.7 -2701.5,38 -2730.2,38 -2730,38.2 -2716.3,63 -2453,63 -2453,62.6 	"/>
	<polygon points="-2503.3,154.1 -2531.6,154 -2531.8,154 -2584,153.1 -2584,178.1 -2545.6,179 -2517,179 	"/>
</g>
<g id="Слой_5" class="st0">
	<polygon class="st2" points="-2030.4,83.8 -2044.2,108.6 -2114.8,236.1 -2114.8,236.1 -2129.1,261.9 -2129.1,261.9 -2129.1,261.9 
		-2143.3,236.1 -2129.2,210.7 -2129,210.3 -2073,109.2 -2059.2,84.4 -2035.5,83.9 	"/>
	<polygon class="st2" points="-1954.8,53.2 -1957,57.2 -1968.7,78.3 -2086.3,290.4 -2100.6,316.2 -2114.8,290.4 -2100.5,264.6 
		-1997.4,78.5 -1985.7,57.4 -1983.5,53.4 -1971.8,53.3 	"/>
	<polygon class="st2" points="-1747.6,315.7 -1776.1,315.8 -1789.8,291 -1790,290.8 -1840.2,200 -1840.2,199.9 -1840.2,200.3 
		-1854,176 -1825.5,176 -1811.7,200.3 -1811.6,200.2 -1761.4,290.9 -1761.4,290.9 	"/>
	<polygon class="st2" points="-1864.2,54 -1878.5,79.4 -1892.8,104.9 -1996,290.9 -1996.1,291.1 -2009.9,315.8 -2009.9,316.4 
		-2038.3,317 -2038.6,317 -2038.5,316.3 -2024.7,291.3 -2024.6,290.9 -1907.1,78.9 -1892.8,53.6 -1892.8,54 	"/>
	<polygon class="st2" points="-1747.6,315.7 -1776.1,316.3 -2009.9,317 -2038.6,317 -2038.5,316.8 -2024.7,292 -1761.4,292 
		-1761.4,291.4 	"/>
	<polygon class="st2" points="-1811.7,200.9 -1840,201 -1840.2,201 -1892,199.9 -1892,174.9 -1854,176 -1825.5,176 	"/>
	<polygon class="st2" points="-1529.6,53.3 -1558.1,53.3 -1571.8,78 -1572,78.3 -1622.2,169 -1622.2,169.1 -1622.2,169.7 -1636,195 
		-1607.5,195 -1593.7,169.7 -1593.6,169.3 -1543.4,78.4 -1543.4,78.3 	"/>
	<polygon class="st2" points="-1646.2,317 -1660.5,290.6 -1674.8,264.6 -1778,78.3 -1778.1,78.1 -1791.9,53.2 -1791.9,53.6 
		-1820.3,54 -1820.6,54 -1820.5,53.7 -1806.7,78.3 -1806.6,78.3 -1689.1,290.2 -1674.8,316.5 -1674.8,317 	"/>
	<polygon class="st2" points="-1529.6,53.3 -1558.1,53.7 -1791.9,54 -1820.6,54 -1820.5,54.2 -1806.7,79 -1543.4,79 -1543.4,78.6 	
		"/>
	<polygon class="st2" points="-1593.7,170.1 -1622,170 -1622.2,170 -1674,169.1 -1674,194.1 -1636,195 -1607.5,195 	"/>
	<polygon class="st2" points="-2114.9,235.6 -2115.1,235.6 -2129.7,212.8 -2130,212.5 -2130,212.5 -2134,206 -2133.8,205.6 
		-2133.9,205.6 -2134.1,205.6 -2144.9,188.7 -2195.5,108.1 -2210.9,83.5 -2211.1,83.5 -2214.5,78.1 -2229.9,53.5 -2258.3,54.1 
		-2242.9,78.7 -2163,206 -2163,206.1 -2155.3,218 -2144,236 -2144,236.1 -2129.1,259.2 -2128.8,259.2 -2128.8,259.2 -2128.8,259.3 
		-2114.8,235.6 	"/>
</g>
<g id="Слой_6">
	<polygon points="-2031.5,153 -2045.3,177.4 -2064.8,212.4 -2064.8,212.2 -2079.1,238 -2079.1,238 -2079.1,237.9 -2093.3,212.1 
		-2079.2,186.7 -2079,186.3 -2073.9,177.5 -2060,153 	"/>
	<polygon points="-1904.8,29.2 -1907,33.2 -1918.7,54.3 -2036.3,266.4 -2050.6,292.2 -2064.8,266.4 -2050.5,240.6 -1947.4,54.5 
		-1935.7,33.4 -1933.5,29.4 -1921.8,29.3 	"/>
	<polygon points="-1697.6,291.7 -1726.1,291.8 -1739.8,267 -1740,266.8 -1790.2,176 -1790.2,175.9 -1790.2,176.8 -1804,153 
		-1775.5,153 -1761.7,176.8 -1761.6,176.4 -1711.4,267 -1711.4,266.9 	"/>
	<polygon points="-1814.2,31 -1828.5,55.9 -1842.8,81.1 -1946,267 -1946.1,267.1 -1959.9,291.9 -1959.9,292.9 -1988.3,294 
		-1988.6,294 -1988.5,292.8 -1974.7,267.5 -1974.6,267 -1857.1,55 -1842.8,30.1 -1842.8,31 	"/>
	<polygon points="-1697.6,291.7 -1726.1,292.8 -1959.9,294 -1988.6,294 -1988.5,293.8 -1974.7,269 -1711.4,269 -1711.4,267.9 	"/>
	<polygon points="-1761.7,177.9 -1790,178 -1790.2,178 -1843,175.9 -1843,150.9 -1804,153 -1775.5,153 	"/>
	<polygon points="-1479.6,29.3 -1508.1,29.3 -1521.8,54 -1522,54.3 -1572.2,145 -1572.2,145.1 -1572.2,146.2 -1586,172 -1557.5,172 
		-1543.7,146.2 -1543.6,145.6 -1493.4,54.5 -1493.4,54.3 	"/>
	<polygon points="-1596.2,294 -1610.5,267.1 -1624.8,240.9 -1728,54.5 -1728.1,54.1 -1741.9,29.3 -1741.9,30.1 -1770.3,31 
		-1770.6,31 -1770.5,30.2 -1756.7,54.5 -1756.6,54.5 -1639.1,266.3 -1624.8,293 -1624.8,294 	"/>
	<polygon points="-1479.6,29.3 -1508.1,30.2 -1741.9,31 -1770.6,31 -1770.5,31.2 -1756.7,56 -1493.4,56 -1493.4,55.1 	"/>
	<polygon points="-1543.7,147.1 -1572,147 -1572.2,147 -1625,145.1 -1625,170.1 -1586,172 -1557.5,172 	"/>
	<polygon points="-2064.9,211.6 -2065.1,211.6 -2080.2,188.8 -2081,188.5 -2081,188.5 -2084.5,182 -2084.1,181.6 -2084,181.6 
		-2084.1,181.6 -2094.9,164.7 -2145.5,84.1 -2161,59.5 -2161.1,59.5 -2164.5,54.1 -2179.9,29.5 -2208.3,30.1 -2193.4,54.7 
		-2114,182 -2114,182.1 -2106.3,194 -2095,212 -2095,212.1 -2079.6,235.2 -2079.1,235.2 -2078.9,235.2 -2078.9,235.3 -2064.9,211.6 
			"/>
</g>
<g id="_x31__x5F_bykva">
	<polygon points="-1160.6,36 -1202.8,36 -1224.8,0.1 -1224.9,0 -1182.6,0 -1182.6,0.1 	"/>
	<polygon points="-840.6,0 -840.7,0.1 -862.7,36 -904.9,36 -882.9,0.1 -882.9,0 	"/>
	<polygon points="-1043.8,226.4 -1064.9,260.8 -1086,226.4 -1202.8,36.1 -1202.8,36 -1224.8,0.1 -1224.9,0 -1182.6,0 -1182.6,0.1 
		-1160.6,36 -1160.5,36.1 -1064.9,192 -1043.8,226.4 	"/>
	<polygon points="-1011.6,278.8 -1032.8,313.3 -1053.9,278.8 -1032.8,244.4 	"/>
	<polygon points="-840.6,0 -840.7,0.1 -862.7,36 -862.8,36.1 -1011.6,278.8 -1032.8,313.3 -1053.9,278.8 -1032.8,244.4 -905,36.1 
		-904.9,36 -882.9,0.1 -882.9,0 	"/>
	<polygon points="-998.2,152 -1020.3,188 -1043.8,226.4 -1043.8,226.4 -1064.9,260.8 -1086,226.4 -1064.9,192 -1062.5,188 
		-1040.4,152 	"/>
</g>
<g id="_x32__x5F_bykva" class="st0">
	<polygon class="st3" points="-42.7,-11 -42.8,-10.9 -64.8,25 -404.9,25 -426.9,-10.9 -427,-11 	"/>
	<polygon class="st3" points="-213.7,267.8 -216.8,272.8 -217,273.2 -234.9,302.3 -252.8,273 -253,272.7 -256,267.8 -328.2,150.1 
		-328.2,150 -350.3,114 -404.9,25.1 -404.9,25 -426.9,-10.9 -427,-11 -384.7,-11 -384.7,-10.9 -362.7,25 -362.6,25.1 -308.1,114 
		-308,114.1 -286,150 -286,150.1 -253,203.8 -252.8,204.2 -234.9,233.4 -217,262.5 -216.8,262.9 	"/>
	<polygon class="st3" points="-213.7,267.8 -216.8,272.8 -217,273.2 -234.9,302.3 -252.8,273 -253,272.7 -256,267.8 -253,263 
		-252.8,262.7 -234.9,233.4 -217,262.5 -216.8,262.9 	"/>
	<polygon class="st3" points="-42.7,-11 -42.8,-10.9 -64.8,25 -64.9,25.1 -119.4,114 -119.4,114.1 -141.5,150 -183.7,150 
		-161.7,114.1 -161.6,114 -107.1,25.1 -107.1,25 -85,-10.9 -85,-11 	"/>
	<polygon class="st3" points="-350.3,114 -308.1,114 -308,114 -286,150 -286,150 -328.2,150 	"/>
	<polygon class="st3" points="-119.4,114 -119.4,114.1 -141.5,150 -253,150 -253,114 	"/>
	<rect x="-253" y="-11" class="st3" width="36" height="36"/>
	<polygon class="st3" points="-217,273.2 -234.9,302.3 -252.8,273 -253,272.7 -253,203.8 -252.8,204.2 -234.9,233.4 -217,262.5 	"/>
	<rect x="-253" y="114" class="st3" width="36" height="36"/>
</g>
<g id="Слой_10" class="st0">
	<polygon class="st2" points="-587.7,302 -587.8,301.9 -609.8,266 -949.9,266 -971.9,301.9 -972,302 	"/>
	<polygon class="st2" points="-758.7,23.4 -761.8,18.5 -762,18.1 -779.9,-11 -797.8,18.2 -798,18.6 -801,23.4 -873.2,141.2 
		-873.2,141.3 -895.3,177.3 -949.9,266.2 -949.9,266.3 -971.9,302.1 -972,302 -929.7,302 -929.7,302.1 -907.7,266.2 -907.6,266.2 
		-853.1,177.3 -853,177.2 -831,141.3 -831,141.2 -798,87.4 -797.8,87.1 -779.9,57.9 -762,28.7 -761.8,28.4 	"/>
	<polygon class="st2" points="-758.7,23.4 -761.8,18.5 -762,18.1 -779.9,-11 -797.8,18.2 -798,18.6 -801,23.4 -798,28.3 
		-797.8,28.6 -779.9,57.9 -762,28.7 -761.8,28.4 	"/>
	<polygon class="st2" points="-587.7,302 -587.8,302.1 -609.8,266.2 -609.9,266.2 -664.4,177.3 -664.4,177.1 -686.5,141 -728.7,141 
		-706.7,177.1 -706.6,177.2 -652.1,266.2 -652.1,266.3 -630,302.1 -630,302 	"/>
	<polygon class="st2" points="-873.2,141 -831,141 -831,141 -853,177 -853.1,177 -895.3,177 	"/>
	<rect x="-798" y="266" class="st2" width="36" height="36"/>
	<polygon class="st2" points="-762,18.1 -779.9,-11 -797.8,18.2 -798,18.6 -798,87.4 -797.8,87.1 -779.9,57.9 -762,28.7 	"/>
</g>
<g id="Слой_9">
	<polygon points="-336.8,0 -358.8,36 -698.9,36 -720.9,0.1 -721,0 	"/>
	<polygon points="-507.7,278.8 -511,284.2 -528.9,313.3 -546.8,284 -547,283.7 -550,278.8 -605.6,188.1 -605.7,188 -627.7,152.1 
		-627.8,152 -698.9,36.1 -698.9,36 -720.9,0.1 -721,0 -678.7,0 -678.7,0.1 -656.7,36 -656.6,36.1 -585.5,152 -585.5,152.1 
		-563.5,188 -563.4,188.1 -547,214.8 -546.8,215.2 -528.9,244.4 -511,273.5 -510.8,273.9 	"/>
	<polygon points="-507.7,278.8 -511,284.2 -528.9,313.3 -546.8,284 -547,283.7 -550,278.8 -547,274 -528.9,244.4 -511,273.5 
		-510.8,273.9 	"/>
	<polygon points="-336.8,0 -358.8,36 -410.3,120 -430,152 -472.2,152 -452.6,120 -401.1,36 -379,0 	"/>
	<polygon points="-563.4,188 -605.7,188 -627.7,152.1 -627.8,152 -585.5,152 	"/>
	<rect x="-547" width="36" height="36"/>
	<polygon points="-511,273.5 -511,284.2 -528.9,313.3 -546.8,284 -547,283.7 -547,214.8 -546.8,215.2 -528.9,244.4 	"/>
</g>
<g id="Слой_12" class="st0">
	<polygon class="st3" points="-1003,302 -980.9,266 -640.8,266 -618.8,301.9 -618.8,302 	"/>
	<polygon class="st3" points="-832,23.4 -828.7,18.1 -810.9,-11 -792.9,18.2 -792.7,18.6 -789.8,23.4 -734.1,114.2 -734,114.3 
		-712,150.2 -712,150.3 -640.9,266.2 -640.8,266.3 -618.8,302.1 -618.8,302 -661,302 -661,302.1 -683.1,266.2 -683.1,266.2 
		-754.2,150.3 -754.2,150.2 -776.3,114.3 -776.3,114.2 -792.7,87.4 -792.9,87.1 -810.9,57.9 -828.7,28.7 -828.9,28.4 	"/>
	<polygon class="st3" points="-832,23.4 -828.7,18.1 -810.9,-11 -792.9,18.2 -792.7,18.6 -789.8,23.4 -792.7,28.3 -810.9,57.9 
		-828.7,28.7 -828.9,28.4 	"/>
	<polygon class="st3" points="-1003,302 -980.9,266.1 -909.8,150.1 -887.7,114 -845.5,114 -867.5,150.1 -938.7,266.1 -960.7,302 	
		"/>
	<polygon class="st3" points="-776.3,114 -734,114 -712,149.9 -712,150 -754.2,150 	"/>
	<polygon class="st3" points="-909.8,150 -887.7,114 -793,114 -793,150 	"/>
	<rect x="-829" y="266" class="st3" width="36" height="36"/>
	<polygon class="st3" points="-829,28.7 -829,18.1 -811,-11 -793.1,18.2 -793,18.6 -793,87.4 -793.1,87.1 -811.1,57.9 	"/>
	<rect x="-829" y="114" class="st3" width="36" height="36"/>
</g>
<g id="Слой_11" class="st0">
	<rect x="194" y="-3" class="st3" width="450" height="36"/>
	
		<rect x="126.2" y="132.3" transform="matrix(-0.5228 -0.8525 0.8525 -0.5228 406.6059 528.2662)" class="st3" width="450" height="36"/>
	
		<rect x="282.9" y="127.6" transform="matrix(0.5228 -0.8525 0.8525 0.5228 118.2629 502.4706)" class="st3" width="450" height="36"/>
	<rect x="216.2" y="122" class="st3" width="450" height="36"/>
	<rect x="410.2" y="-73" class="st3" width="36" height="450"/>
</g>
<g id="Слой_13">
	<polygon points="-588.8,312 -610.8,276 -950.9,276 -972.9,311.9 -973,312 	"/>
	<polygon points="-759.7,33.4 -763,28.1 -780.9,-1 -798.8,28.2 -799,28.6 -802,33.4 -857.6,124.2 -857.7,124.3 -879.7,160.2 
		-879.8,160.3 -950.9,276.2 -950.9,276.3 -972.9,312.1 -973,312 -930.7,312 -930.7,312.1 -908.7,276.2 -908.6,276.2 -837.5,160.3 
		-837.5,160.2 -815.5,124.3 -815.4,124.2 -799,97.4 -798.8,97.1 -780.9,67.9 -763,38.7 -762.8,38.4 	"/>
	<polygon points="-759.7,33.4 -763,28.1 -780.9,-1 -798.8,28.2 -799,28.6 -802,33.4 -799,38.3 -780.9,67.9 -763,38.7 -762.8,38.4 	
		"/>
	<polygon points="-588.8,312 -631,312 -653.1,276.1 -709.6,184 -724.2,160.1 -729.2,152 -686.9,152 -682,160.1 -667.3,184 
		-610.8,276.1 	"/>
	<polygon points="-815.4,124 -857.7,124 -879.7,159.9 -879.8,160 -837.5,160 	"/>
	<rect x="-799" y="276" width="36" height="36"/>
	<polygon points="-763,38.7 -763,28.1 -780.9,-1 -798.8,28.2 -799,28.6 -799,97.4 -798.8,97.1 -780.9,67.9 	"/>
</g>
<g id="Слой_14">
</g>
<g id="Слой_15">
	<g id="Слой_16">
	</g>
	<polygon points="166,240.4 144.9,274.8 123.8,240.4 27.3,83 7.1,50.1 7.1,50 6.1,48.5 27.3,14.1 48.4,48.5 49.3,50 49.3,50.1 
		144.9,206 166,240.4 	"/>
	<polygon points="347.9,48.7 347.1,50 347.1,50.1 326.8,83.1 198.2,292.8 177.1,327.3 156,292.8 177.1,258.4 304.9,50.1 304.9,50 
		305.7,48.7 326.8,14.3 	"/>
	<polygon points="190,201.3 189.6,202 168.9,235.7 166,240.4 166,240.4 144.9,274.8 123.8,240.4 144.9,206 147.4,202 147.8,201.3 
		168.9,166.8 	"/>
	<polygon points="873.1,14 851,50 511,50 488.9,14.1 488.9,14 	"/>
	<polygon points="702.1,292.8 698.9,298.2 681,327.3 663.1,298 662.9,297.7 659.9,292.8 604.2,202.1 604.2,202 582.1,166.1 
		582.1,166 511,50.1 511,50 488.9,14.1 488.9,14 531.1,14 531.2,14.1 553.2,50 553.2,50.1 624.3,166 624.4,166.1 646.4,202 
		646.4,202.1 662.9,228.8 663.1,229.2 681,258.4 698.9,287.5 699.1,287.9 	"/>
	<polygon points="873.1,14 851,50 801.3,131.1 799.5,134 780.2,165.5 778.8,163.3 773.8,155.1 759.1,131.1 780.2,96.7 808.8,50 
		830.9,14 	"/>
	<polygon points="621.1,326 599,290 259,290 236.9,325.9 236.9,326 	"/>
	<polygon points="450.1,47.4 446.9,42.1 429,13 411.1,42.2 410.9,42.6 407.9,47.4 352.2,138.2 352.2,138.3 330.1,174.2 330.1,174.3 
		259,290.2 259,290.3 236.9,326.1 236.9,326 279.1,326 279.2,326.1 301.2,290.2 301.2,290.2 372.3,174.3 372.4,174.2 394.4,138.3 
		394.4,138.2 410.9,111.4 411.1,111.1 429,81.9 446.9,52.7 447.1,52.4 	"/>
	<polygon points="621.1,326 578.9,326 556.8,290.1 523.2,235.4 502.1,200.9 522.3,168.1 523.2,166.5 527.9,174.1 542.6,198 
		544.4,200.9 599,290.1 	"/>
</g>
</svg>
