<?xml version="1.0" encoding="utf-8"?>
<!-- Generator: Adobe Illustrator 19.1.1, SVG Export Plug-In . SVG Version: 6.00 Build 0)  -->
<svg version="1.1" id="fon" xmlns="http://www.w3.org/2000/svg" xmlns:xlink="http://www.w3.org/1999/xlink" x="0px" y="0px"
	 viewBox="0 0 450 550" style="enable-background:new 0 0 450 550;" xml:space="preserve">
<style type="text/css">
	.st0{opacity:0.4;fill:#FFFFFF;}
</style>
<path id="osn" class="st0" d="M-1,0v550h451V0H-1z M76,297.2L26,215v-0.1L17.2,199H33v0.8l10.4,15.4l0.5,0L85,282.4l1.1-2.3
	l9.6-16.1h17.6l-10.3,16.3l-6.1,9.4v-0.1l-2.9,6.4h0.1L85,311.5L76,297.2z M98.8,335.1l-1,0.1L97,335v-0.4l-8.9-14.7l8.9-14.7v0.1
	l54-89.9v0l11-15.4V199h18.6l-9.4,17h0l-63.5,104.6L98.8,335.1z M141.2,333l9.4-16h0l0,1l30.3-49.5l0,0.2l9.4-15.4l0,0l23.8-39.2
	l1.3-2.1l0.1-0.2l7.7-12.6l7.6,12.6l1.4,2.3l-1.3,2.2l-0.1,0.2l-7.6,12.6l-7.7,12.6l-0.1,0.2l-7,11.6l0,0L199,269l0-1l-30.3,49h109
	l-24.1-38.8l-6.2-10.5l-2.1-3.7h18l2.1,4.2l6.2,9.7l24.1,39h0l9.4,16H141.2z M424.7,214.9l-22,35.8l-8.3,13.3h-18l8.4-12.8
	l21.9-35.2h-109l30.3,48h0l9.4,16.3l0,0.4l7,11.8l-0.8,0.3l6.4,12.3v0.2l1.1,0.2l0.6,0.1l7.9,12.6l0.2,0.1l1.3,2.2l-2.4,2.3
	l-8.7,12.6v-0.4l-6.5-12.3l0.4-0.2l-1-2.1L319.3,281l0,0l-9.4-15.5l0,0l-30.3-50.1l0-0.5l-9.3-15.8h164L424.7,214.9z"/>
</svg>
