<?xml version="1.0" encoding="utf-8"?>
<!-- Generator: Adobe Illustrator 19.1.1, SVG Export Plug-In . SVG Version: 6.00 Build 0)  -->
<svg version="1.1" id="fon" xmlns="http://www.w3.org/2000/svg" xmlns:xlink="http://www.w3.org/1999/xlink" x="0px" y="0px"
	 viewBox="0 0 1920 1080" style="enable-background:new 0 0 1920 1080;" xml:space="preserve">
<style type="text/css">
	.st0{opacity:0.4;fill:#FFFFFF;enable-background:new    ;}
</style>
<path id="osn" class="st0" d="M669.8,622.8l0.2,0.5v-0.8L669.8,622.8z M669.8,622.8l0.2,0.5v-0.8L669.8,622.8z M0,0v1082h1920V0H0z
	 M606.5,599.8L466,366.8v-0.1L438.8,325H490v-1.2l26.2,43.5l0-0.1l115.5,190.7l2.8-4.8l26.7-44h49.8l-26.4,44.4l-14.7,25v-0.3
	L656.7,600h0.2l-25.4,42L606.5,599.8z M670,707.1l-0.2,0.3l0.2-0.8v-1L644.7,664l25.3-41.6v0.2l154-254.7v-0.1l27-43.6v0.9h50.5
	l-26.6,44h-0.1l-180,296.6L670,707.1z M790.1,706l26.5-44h0.1l0.1-0.3l85.8-141.7l0.1-0.1l26.6-44l0.1-0.1l67.3-111.1l3.6-5.9
	l0.2-0.5l21.7-35.8l21.6,35.6l3.9,6.5l-3.7,6.1l-0.2,0.5l-21.6,35.6l-21.7,35.8l-0.2,0.5l-19.8,32.8l-0.1,0.1l-26.6,44l-0.1-0.2
	L867.9,661h308.8l-68.3-112.3l-17.6-29.5l-6-10.2h51.1l6,10.3l17.7,29.8l68.2,112.9h0.1l26.6,44H790.1z M1592.9,368.3l-62.3,102.2
	L1507,509h-51.1l23.8-38.2l62.2-101.8h-308.7l85.8,141h0.1l26.6,43.9l0.1,0.1l19.8,32.7l0.4,0.4l20.9,34.5v0.4l0.3,0.6l0.2,0.3
	l21.6,35.7l0.2,0.3l3.6,6.1l-4,6.6l-21.8,35.6v-1.1l-21.2-34.8l-0.4-0.5l-3.6-5.9l-67.3-111.1l-0.1-0.1l-26.7-44l-0.1-0.1
	l-85.9-141.9l-0.1,0.2l-26.4-43h464.4L1592.9,368.3z M670,623.3v-0.8l-0.2,0.3L670,623.3z"/>
</svg>
