<?xml version="1.0" encoding="utf-8"?>
<!-- Generator: Adobe Illustrator 19.1.1, SVG Export Plug-In . SVG Version: 6.00 Build 0)  -->
<svg version="1.1" id="fon_x5F_podkladki" xmlns="http://www.w3.org/2000/svg" xmlns:xlink="http://www.w3.org/1999/xlink" x="0px"
	 y="0px" viewBox="-168 -190 1866.6 940" style="enable-background:new -168 -190 1866.6 940;" xml:space="preserve">
<style type="text/css">
	.st0{display:none;opacity:0.4;enable-background:new    ;}
	.st1{display:none;opacity:0.4;fill:#FFFFFF;enable-background:new    ;}
	.st2{opacity:0.4;enable-background:new    ;}
</style>
<path id="w" class="st0" d="M298,91.1l23.1,37.7l0.1-0.2l100.2,165.6l2.5-4.1L447,252h7v-442h-622v940h622V422.6l-21.9-36.2
	l21.9-36.2v-38.3l-11,18.7h0.2l-22,36.6l-22.1-36.6L276.8,128.3v-0.1L253.7,91v0.9H298L298,91.1z"/>
<path id="g" class="st1" d="M943,130l0.1,0.2l74.5,123.3l0.1,0.1l23.1,38.2l0.1,0.1l17.2,28.5l0.3,0.4l18.2,30.2V130H943z
	 M1076.6-189h-622v441h36.2l-23.2,39.1l-13,22.2v38.9l0.1-0.4l133.8-221.5v-0.1L611.6,92l0,0h44.3l-0.1-0.1l-23,38.1h-0.1
	l-156,258.3l-22,36.7l-0.1-0.4V751h622V424.2l-18.3-30.2l-0.3-0.4l-3.1-5.2l-58.3-96.5l-0.1-0.1l-23.1-38.2l-0.1-0.1l-74.5-123.3
	l-0.1-0.1l-23-38.1h-0.1h201V-189z M879.5,287.6l59.1,97.8l0.1,0.3l23.1,38.3H559.2l23-38.1l0.1-0.2l0.1-0.3l74.4-123.1l0.1-0.1
	L680,224l0.1-0.1l58.3-96.5l3.1-5.2l0.2-0.4l18.8-31.1l18.7,31l3.4,5.6l-3.2,5.3l-0.2,0.4l-18.7,31l-18.8,31.1l-0.2,0.4L724.3,224
	l-0.1,0.1l-23.1,38.2l-0.1-0.1L626.7,385h267.7l-59.2-97.6l-15.3-26l-5.2-9.3H859l5.2,9.4L879.5,287.6z"/>
<polygon id="p" class="st2" points="1698.6,-190 1698.6,750 1076.6,750 1076.6,423.2 1076.9,423.8 1076.9,424.1 1095.7,393.1 
	1099.1,387.4 1096,382.2 1095.8,381.8 1077.1,350.8 1076.9,350.6 1076.6,350 1076.6,130 1210.9,130 1157,218.6 1136.4,252 
	1180.7,252 1201.2,218.3 1255.2,129.6 1278.3,92 1076.6,92 1076.6,-190 "/>
</svg>
