<?xml version="1.0" encoding="utf-8"?>
<!-- Generator: Adobe Illustrator 19.1.1, SVG Export Plug-In . SVG Version: 6.00 Build 0)  -->
<svg version="1.1" id="Слой_1" xmlns="http://www.w3.org/2000/svg" xmlns:xlink="http://www.w3.org/1999/xlink" x="0px" y="0px"
	 viewBox="-508 330 902 365" style="enable-background:new -508 330 902 365;" xml:space="preserve">
<path d="M-508,330v365h902V330H-508z M-370.2,580.4L-466.7,423l-20.2-32.9V390l-0.9-1.5l21.1-34.4l21.1,34.4l0.9,1.5l0.1,0.1
	l95.5,155.9l2.4-4l0.4-0.7l21.1-34.4l21.1,34.4l-0.5,0.7l-20.7,33.7l-2.9,4.7l0,0l-21.1,34.4L-370.2,580.4z M-316.9,667.3
	l-21.1-34.5l21.1-34.4l127.8-208.3V390l0.8-1.3l21.1-34.4l21.1,34.4l-0.8,1.3l-0.1,0.1l-20.3,33.1l-128.5,209.6L-316.9,667.3z
	 M-257,666l22-35.7l0.1-0.1l0.1-0.2l71-115.7l0.1-0.1l22-35.9l0.1-0.1l55.7-90.8l3-4.9l0.2-0.3L-65,353l17.9,29.1l3.3,5.3l-3,5
	l-0.2,0.3l-18,29.2l-17.9,29.2l-0.2,0.3l-16.4,26.8v0.1l-22,35.9l-0.1,0.1l-71,115.7H62.8l-33.5-54.6L8.2,541l20.2-32.9l1-1.6
	l4.7,7.6L48.8,538l1.8,2.9l54.6,89.1l0.1,0.1l22.1,35.9H-257z M357,390l-49.7,81.1l-1.8,2.9l-19.3,31.5l-1.4-2.3l-5-8.1L265.1,471
	l21.1-34.4l28.6-46.6H59.2l0.1,0.1l71,115.9l0.1,0.1l22,35.9v0.1l16.4,26.8l0.2,0.3l17.9,29.2l17.9,29.1l0.2,0.3l3,5l-3.3,5.3
	L187,667.3L169.1,638l-0.2-0.3l-3-4.9L110.2,542l-0.1-0.1l-22-35.9l-0.1-0.1L17,390.1l-0.1-0.1l-22-35.9l-0.1-0.1H379L357,390z"/>
</svg>
