<?xml version="1.0" encoding="UTF-8" standalone="no"?>
<svg
   xmlns:dc="http://purl.org/dc/elements/1.1/"
   xmlns:cc="http://creativecommons.org/ns#"
   xmlns:rdf="http://www.w3.org/1999/02/22-rdf-syntax-ns#"
   xmlns:svg="http://www.w3.org/2000/svg"
   xmlns="http://www.w3.org/2000/svg"
   height="511.99899"
   width="452.39001"
   xml:space="preserve"
   viewBox="0 0 452.39001 511.99899"
   y="0px"
   x="0px"
   id="Layer_1"
   version="1.1"><metadata
     id="metadata43"><rdf:RDF><cc:Work
         rdf:about=""><dc:format>image/svg+xml</dc:format><dc:type
           rdf:resource="http://purl.org/dc/dcmitype/StillImage" /><dc:title></dc:title></cc:Work></rdf:RDF></metadata><defs
     id="defs41" /><g
     transform="translate(-29.805)"
     style="fill:#ffffff"
     id="g6"><g
       style="fill:#ffffff"
       id="g4"><path
         style="fill:#ffffff"
         id="path2"
         d="M 482.195,226.196 C 482.195,101.471 380.725,0 256.001,0 131.277,0 29.805,101.471 29.805,226.196 c 0,7.409 6.007,13.416 13.416,13.416 7.409,0 13.416,-6.008 13.416,-13.416 0,-109.93 89.434,-199.363 199.363,-199.363 109.929,0 199.363,89.434 199.363,199.363 0,109.928 -89.434,199.362 -199.363,199.362 h -23.276 l 33.282,-37.255 c 4.937,-5.525 4.458,-14.007 -1.067,-18.944 -5.525,-4.937 -14.008,-4.457 -18.944,1.068 l -47.576,53.255 c -7.788,8.718 -7.788,21.866 0,30.584 l 47.576,53.255 c 2.651,2.968 6.322,4.478 10.01,4.478 3.181,0 6.375,-1.126 8.934,-3.41 5.526,-4.937 6.004,-13.419 1.067,-18.944 L 232.724,452.39 H 256 c 124.725,0 226.195,-101.471 226.195,-226.194 z" /></g></g><g
     transform="translate(-29.805)"
     id="g8" /><g
     transform="translate(-29.805)"
     id="g10" /><g
     transform="translate(-29.805)"
     id="g12" /><g
     transform="translate(-29.805)"
     id="g14" /><g
     transform="translate(-29.805)"
     id="g16" /><g
     transform="translate(-29.805)"
     id="g18" /><g
     transform="translate(-29.805)"
     id="g20" /><g
     transform="translate(-29.805)"
     id="g22" /><g
     transform="translate(-29.805)"
     id="g24" /><g
     transform="translate(-29.805)"
     id="g26" /><g
     transform="translate(-29.805)"
     id="g28" /><g
     transform="translate(-29.805)"
     id="g30" /><g
     transform="translate(-29.805)"
     id="g32" /><g
     transform="translate(-29.805)"
     id="g34" /><g
     transform="translate(-29.805)"
     id="g36" /></svg>