<?xml version="1.0" encoding="utf-8"?>
<!-- Generator: Adobe Illustrator 19.1.1, SVG Export Plug-In . SVG Version: 6.00 Build 0)  -->
<svg version="1.1" id="yslygi" xmlns="http://www.w3.org/2000/svg" xmlns:xlink="http://www.w3.org/1999/xlink" x="0px" y="0px"
	 viewBox="-546 127.8 826.2 826.2" style="enable-background:new -546 127.8 826.2 826.2;" xml:space="preserve">
<style type="text/css">
	.st0{fill:none;stroke:#FFE900;stroke-width:28;stroke-miterlimit:10;}
</style>
<path class="st0" d="M-379.9,397.9h26c35.2,0,69.1,12.9,95.4,36.4c5.3,4.8,13.6,4.3,18.4-1c4.8-5.3,4.3-13.6-1-18.4
	c-31-27.7-71.1-43-112.7-43h-26c-7.2-0.2-13.2,5.5-13.3,12.6c-0.2,7.2,5.5,13.2,12.6,13.3C-380.4,397.9-380.1,397.9-379.9,397.9z"/>
<path class="st0" d="M-52.4,273.2c-4.2,5.8-3,13.9,2.8,18.1c0,0,0,0,0,0l110.7,80.5h-103c-93.2,0-169,75.8-169,169
	c0,78.8-64.2,143-143,143h-26c-7.2,0-13,5.8-13,13c0,7.2,5.8,13,13,13c0,0,0,0,0,0h26c93.2,0,169-75.8,169-169
	c0-78.8,64.2-143,143-143h103l-110.7,80.5c-5.7,4.4-6.8,12.5-2.5,18.2c4.2,5.5,12,6.8,17.7,2.8l157.5-114.5L-34.2,270.4
	C-40,266.1-48.1,267.4-52.4,273.2C-52.4,273.2-52.4,273.2-52.4,273.2z"/>
<path class="st0" d="M-52.4,585.3c-4.2,5.8-3,13.9,2.8,18.1c0,0,0,0,0,0l110.7,80.5H-41.8c-34.8,0-68.5-12.7-94.6-35.7
	c-5.3-4.9-13.5-4.5-18.4,0.8c-4.9,5.3-4.5,13.5,0.8,18.4c0.1,0.1,0.3,0.3,0.4,0.4c30.9,27.2,70.6,42.2,111.8,42.2h103l-110.7,80.5
	c-5.7,4.4-6.8,12.5-2.5,18.2c4.2,5.5,12,6.8,17.7,2.8l157.5-114.5L-34.2,582.4C-40,578.1-48.1,579.4-52.4,585.3
	C-52.4,585.2-52.4,585.2-52.4,585.3z"/>
<path class="st0" d="M-132.9,150.9c-215,0-390,175-390,390s175,390,390,390s390-175,390-390S82.2,150.9-132.9,150.9z M-132.9,904.9
	c-200.7,0-364-163.3-364-364s163.3-364,364-364s364,163.3,364,364S67.8,904.9-132.9,904.9z"/>
</svg>
