<?xml version="1.0" encoding="utf-8"?>
<!-- Generator: Adobe Illustrator 18.0.0, SVG Export Plug-In . SVG Version: 6.00 Build 0)  -->
<!DOCTYPE svg PUBLIC "-//W3C//DTD SVG 1.1//EN" "http://www.w3.org/Graphics/SVG/1.1/DTD/svg11.dtd">
<svg version="1.1" xmlns="http://www.w3.org/2000/svg" xmlns:xlink="http://www.w3.org/1999/xlink" x="0px" y="0px"
	 viewBox="0 0 107 38.2" enable-background="new 0 0 107 38.2" xml:space="preserve">
<g id="fon_x5F_podkladki">
	<rect x="-2829.9" y="-493.6" display="none" fill="#FFFFFF" width="1920" height="1026.6"/>
	<g id="Слой_7">
	</g>
	<path opacity="0.4" d="M-2354.2-148.7l23.1,37.7l0.1-0.1l100.2,165.3l2.5-4.1l23.1-38.1h7v-441h-622v938h622V182.4l-21.9-36.1
		l21.9-36.1V71.9l-11,18.7l0.2,0l-22,36.5l-22.1-36.5l-122.3-201.9l0-0.1l-23.1-37.3l0,0.7h44.3L-2354.2-148.7z"/>
	<path opacity="0.4" fill="#FFFFFF" d="M-1708.7-111.9l0.1-0.2l74.5,122.9l0.1,0l23.1,38.1l0.1,0.1l17.2,28.4l0.3,0.4l18.3,30.2
		v-219.9H-1708.7z M-1575.1-430.9h-622v441h36.2l-23.2,38.5l-13,21.7v38.8l0.1-0.4l133.8-221.1l0-0.1l23.1-37.8l0,0.3h44.3l-0.1-0.1
		l-23.1,38.1h-0.1l-156,257.4l-22,36.4l-0.1-0.5v325.7h622V181l-18.3-30.2l-0.3-0.4l-3.1-5.1l-58.3-96.3l-0.1-0.1l-23.1-38.1
		l-0.1-0.1l-74.5-123l-0.1-0.1l-23.1-37.8l-0.1,0.3h200.9V-430.9z M-1772.2,44.6l59.1,97.6l0.1,0l23.1,37.9h-402.6l23-37.7l0.1,0
		l0.1-0.2l74.4-122.8l0.1-0.1l23.1-38.1l0.1-0.1l58.3-96.3l3.1-5.1l0.2-0.4l18.8-31l18.7,30.9l3.4,5.6l-3.2,5.3l-0.2,0.4l-18.7,30.9
		l-18.8,31l-0.2,0.4l-17.2,28.4l-0.1,0.1l-23.1,38.1l-0.1-0.5l-74.4,122.2h267.7l-59.2-97l-15.3-25.3l-5.2-8.6h44.3l5.2,8.9
		L-1772.2,44.6z"/>
	<polygon opacity="0.4" points="-953.1,-429.9 -953.1,508.1 -1575.1,508.1 -1575.1,182 -1574.8,182.6 -1574.8,182.8 -1556,151.9 
		-1552.6,146.3 -1555.8,141 -1556,140.7 -1574.6,109.8 -1574.8,109.5 -1575.1,108.9 -1575.1,-110.9 -1440.8,-110.9 -1494.8,-22.3 
		-1515.3,11.1 -1471.1,11.1 -1450.5,-22.6 -1396.5,-111.2 -1373.4,-148.9 -1575.1,-148.9 -1575.1,-429.9 	"/>
	<rect x="-985.6" y="-471.3" width="32.5" height="3.5"/>
	<rect x="-985.6" y="-451.9" width="32.5" height="3.5"/>
	<rect x="-985.6" y="-461.9" width="32.5" height="3.5"/>
	<rect x="-1266.6" y="-342.4" fill="#FFFFFF" width="10.8" height="24.5"/>
	<text transform="matrix(1 0 0 1 -1431.63 -360.9251)"><tspan x="0" y="0" fill="#FFFFFF" font-family="'MyriadPro-Regular'" font-size="36">ПРОГРЕ</tspan><tspan x="119.4" y="0" fill="#FFFFFF" font-family="'Bender'" font-size="36">СС</tspan><tspan x="161.1" y="0" fill="#FFFFFF" font-family="'MyriadPro-Regular'" font-size="36">ИВАНАЯ</tspan><tspan x="291.4" y="0" fill="#FFFFFF" font-family="'Bender'" font-size="36"> </tspan><tspan x="302.1" y="0" fill="#FFFFFF" font-family="'MyriadPro-Regular'" font-size="36">ВЕБ</tspan><tspan x="359" y="0" fill="#FFFFFF" font-family="'Bender'" font-size="36"> </tspan><tspan x="0" y="43.2" fill="#FFFFFF" font-family="'Bender'" font-size="36">С</tspan><tspan x="20.8" y="43.2" fill="#FFFFFF" font-family="'MyriadPro-Regular'" font-size="36">ТУДИЯ</tspan><tspan x="123.4" y="43.2" fill="#FFFFFF" font-family="'Bender'" font-size="36"> ... </tspan></text>
	<polygon fill="#FFFFFF" points="-1446,-375.2 -1456.4,-385.6 -1458.5,-383.6 -1448.1,-373.2 -1458.5,-362.7 -1456.4,-360.7 
		-1446,-371.1 -1444,-373.2 	"/>
	<circle fill="#FFFFFF" cx="-1393.4" cy="419.9" r="35.3"/>
	<circle fill="#FFFFFF" cx="-1288.4" cy="419.9" r="35.3"/>
	<circle fill="#FFFFFF" cx="-1183.4" cy="419.9" r="35.3"/>
</g>
<g id="fon" display="none">
	<path display="inline" fill="#FFFF00" d="M-2232.5-422.9h-53.4c-4.6,0-8.3-3.7-8.3-8.3v-53.4c0-4.6,3.7-8.3,8.3-8.3h53.4
		c4.6,0,8.3,3.7,8.3,8.3v53.4C-2224.2-426.6-2227.9-422.9-2232.5-422.9z"/>
</g>
<g id="small_x5F_logo">
	<polygon points="-2812.3,-474.9 -2817.3,-474.9 -2820,-479.1 -2820,-478.9 -2814.9,-478.9 -2814.9,-479.1 	"/>
	<polygon points="-2773.7,-478.9 -2773.7,-479.1 -2776.4,-474.9 -2781.4,-474.9 -2778.8,-479.1 -2778.8,-478.9 	"/>
	<polygon points="-2798.2,-451.6 -2800.7,-447.4 -2803.3,-451.6 -2817.3,-474.5 -2817.3,-474.5 -2820,-478.9 -2820,-478.9 
		-2814.9,-478.9 -2814.9,-478.9 -2812.3,-474.6 -2812.2,-474.5 -2800.7,-455.7 -2798.2,-451.6 	"/>
	<polygon points="-2794.3,-445.3 -2796.8,-441.1 -2799.4,-445.3 -2796.8,-449.4 	"/>
	<polygon points="-2773.7,-478.9 -2773.7,-478.9 -2776.4,-474.6 -2776.4,-474.5 -2794.3,-445.3 -2796.8,-441.1 -2799.4,-445.3 
		-2796.8,-449.4 -2781.4,-474.5 -2781.4,-474.5 -2778.8,-478.9 -2778.8,-478.9 	"/>
	<polygon points="-2792.7,-460.9 -2795.3,-456.4 -2798.2,-451.7 -2798.2,-451.6 -2800.7,-447.5 -2803.3,-451.6 -2800.7,-455.8 
		-2800.4,-456.4 -2797.8,-460.9 	"/>
	<polygon points="-2713,-478.9 -2715.6,-474.9 -2756.6,-474.9 -2759.3,-479.1 -2759.3,-478.9 	"/>
	<polygon points="-2733.6,-445.3 -2734,-444.6 -2736.1,-441.1 -2738.3,-444.6 -2738.3,-444.7 -2738.7,-445.3 -2745.4,-456.2 
		-2745.4,-456.2 -2748,-460.6 -2748,-460.6 -2756.6,-474.5 -2756.6,-474.5 -2759.3,-478.9 -2759.3,-478.9 -2754.2,-478.9 
		-2754.2,-478.9 -2751.5,-474.6 -2751.5,-474.5 -2742.9,-460.6 -2742.9,-460.6 -2740.3,-456.2 -2740.3,-456.2 -2738.3,-453 
		-2738.3,-452.9 -2736.1,-449.4 -2734,-445.9 -2733.9,-445.9 	"/>
	<polygon points="-2733.6,-445.3 -2734,-444.6 -2736.1,-441.1 -2738.3,-444.6 -2738.3,-444.7 -2738.7,-445.3 -2738.3,-445.9 
		-2736.1,-449.4 -2734,-445.9 -2733.9,-445.9 	"/>
	<polygon points="-2713,-478.9 -2715.6,-474.6 -2721.8,-464.6 -2724.2,-460.9 -2729.3,-460.9 -2726.9,-464.6 -2720.7,-474.7 
		-2718.1,-478.9 	"/>
	<polygon points="-2740.3,-455.9 -2745.4,-455.9 -2748,-460.6 -2748,-460.9 -2742.9,-460.9 	"/>
	<rect x="-2738.1" y="-478.9" width="4" height="4"/>
	<polygon points="-2734.1,-445.9 -2734.1,-444.6 -2736.2,-441.1 -2738.2,-444.6 -2738.1,-444.7 -2738.1,-453 -2738.2,-452.9 
		-2736.2,-449.4 	"/>
	<polygon points="-2743.3,-440.9 -2746,-445.9 -2787,-445.9 -2789.6,-441.3 -2789.6,-440.9 	"/>
	<polygon points="-2763.9,-474.9 -2764.3,-475.5 -2766.5,-479 -2768.6,-475.5 -2768.7,-475.4 -2769,-474.9 -2775.7,-463.9 
		-2775.7,-463.9 -2778.4,-459.6 -2778.4,-459.6 -2787,-445.6 -2787,-445.6 -2789.6,-441.1 -2789.6,-440.9 -2784.6,-440.9 
		-2784.5,-440.8 -2781.9,-444.9 -2781.9,-444.9 -2773.3,-459.2 -2773.3,-459.4 -2770.7,-463.8 -2770.7,-463.9 -2768.7,-467.1 
		-2768.6,-467.2 -2766.5,-470.7 -2764.3,-474.2 -2764.3,-474.3 	"/>
	<polygon points="-2763.9,-474.9 -2764.3,-475.5 -2766.5,-479 -2768.6,-475.5 -2768.7,-475.4 -2769,-474.9 -2768.7,-474.3 
		-2766.5,-470.7 -2764.3,-474.2 -2764.3,-474.3 	"/>
	<polygon points="-2743.3,-440.9 -2748.4,-440.9 -2751.1,-445.4 -2757.9,-456.6 -2759.7,-459.7 -2760.3,-460.9 -2755.2,-460.9 
		-2754.6,-459.8 -2752.8,-456.8 -2746,-445.5 	"/>
	<polygon points="-2770.7,-464.9 -2775.7,-464.9 -2778.4,-459.8 -2778.4,-458.9 -2773.3,-458.9 	"/>
	<rect x="-2769.1" y="-445.9" width="4" height="5"/>
	<polygon points="-2765.1,-474.2 -2765.1,-475.5 -2766.9,-479 -2769.1,-475.5 -2769.1,-475.4 -2769.1,-467.1 -2768.9,-467.2 
		-2767,-470.7 	"/>
	<polygon points="21.8,27.4 19.3,31.6 16.7,27.4 2.7,4.5 2.7,4.5 0,0.1 0,0.1 5.1,0.1 5.1,0.1 7.7,4.4 7.8,4.5 19.3,23.3 21.8,27.4 
			"/>
	<polygon points="46.3,0.1 46.3,0.1 43.6,4.4 43.6,4.5 25.7,33.7 23.2,37.9 20.6,33.7 23.2,29.6 38.6,4.5 38.6,4.5 41.2,0.1 
		41.2,0.1 	"/>
	<polygon points="27.3,18.1 24.7,22.6 21.8,27.3 21.8,27.4 19.3,31.5 16.7,27.4 19.3,23.2 19.6,22.6 22.2,18.1 	"/>
	<polygon points="107,0.1 104.4,4.1 63.4,4.1 60.7,-0.1 60.7,0.1 	"/>
	<polygon points="86.4,33.7 86,34.4 83.9,37.9 81.7,34.4 81.7,34.3 81.3,33.7 74.6,22.8 74.6,22.8 72,18.4 72,18.4 63.4,4.5 
		63.4,4.5 60.7,0.1 60.7,0.1 65.8,0.1 65.8,0.1 68.5,4.4 68.5,4.5 77.1,18.4 77.1,18.4 79.7,22.8 79.7,22.8 81.7,26 81.7,26.1 
		83.9,29.6 86,33.1 86.1,33.1 	"/>
	<polygon points="107,0.1 104.4,4.4 98.2,14.4 95.8,18.1 90.7,18.1 93.1,14.4 99.3,4.3 101.9,0.1 	"/>
	<rect x="81.9" y="0.1" width="4" height="4"/>
	<polygon points="76.7,38.1 74,33.1 33,33.1 30.4,37.7 30.4,38.1 	"/>
	<polygon points="56.1,4.1 55.7,3.5 53.5,0 51.4,3.5 51.3,3.6 51,4.1 44.3,15.1 44.3,15.1 41.6,19.4 41.6,19.4 33,33.4 33,33.4 
		30.4,37.9 30.4,38.1 35.4,38.1 35.5,38.2 38.1,34.1 38.1,34.1 46.7,19.8 46.7,19.6 49.3,15.2 49.3,15.1 51.3,11.9 51.4,11.8 
		53.5,8.3 55.7,4.8 55.7,4.7 	"/>
	<polygon points="76.7,38.1 71.6,38.1 68.9,33.6 62.1,22.4 60.3,19.3 59.7,18.1 64.8,18.1 65.4,19.2 67.2,22.2 74,33.5 	"/>
</g>
<g id="cop_x5F_logo" display="none">
	<polygon display="inline" fill="#FFFFFF" points="-2193.9,67.5 -2215.1,101.9 -2193.9,67.5 	"/>
	<polygon display="inline" fill="#FFFFFF" points="-2183.1,-6.9 -2183.1,49.3 -2183.1,49.8 -2183.1,-6.9 	"/>
	<polygon display="inline" fill="#FFFFFF" points="-2061,117.1 -2060.9,117.1 -2061,117.3 -2061,117.4 -2083,153.1 -2083.1,153.1 
		-2083.1,153 	"/>
	<polygon display="inline" fill="#FFFFFF" points="-1698.9,153.1 -1721,117.2 -1721,117.1 -1721,117.1 	"/>
	<polygon display="inline" fill="#FFFFFF" points="-2083.1,153.1 -2083,153.1 -2083.1,153.1 	"/>
	<polygon display="inline" fill="#FFFFFF" points="-2040.8,153.1 -2040.8,153.1 -2040.9,153.1 	"/>
</g>
<g id="copiya_x5F_logo" display="none">
	<polygon display="inline" fill="#FFFFFF" points="-1889.9,230.5 -1911.1,264.9 -1932.2,230.5 -2048.9,40.2 -2048.9,40.1 
		-2070.9,4.2 -2071,4.1 -2028.8,4.1 -2028.7,4.2 -2006.7,40.1 -2006.7,40.2 -1911.1,196 -1890,230.5 	"/>
	<polygon display="inline" fill="#FFFFFF" points="-1686.8,4.1 -1686.8,4.2 -1708.8,40.1 -1708.9,40.2 -1857.8,282.9 -1878.9,317.4 
		-1900,282.9 -1878.9,248.5 -1751.1,40.2 -1751.1,40.1 -1729.1,4.2 -1729,4.1 	"/>
	<polygon display="inline" fill="#FFFFFF" points="-1844.3,156.1 -1866.4,192.1 -1889.9,230.5 -1890,230.5 -1911.1,264.9 
		-1932.2,230.5 -1911.1,196 -1908.6,192.1 -1886.6,156.1 	"/>
	<polygon display="inline" fill="#FFFFFF" points="-1182.9,4.1 -1205,40.1 -1545,40.1 -1567,4.2 -1567.1,4.1 	"/>
	<polygon display="inline" fill="#FFFFFF" points="-1353.9,282.9 -1357.1,288.2 -1375,317.4 -1392.9,288.1 -1393.1,287.8 
		-1396.1,282.9 -1451.8,192.2 -1451.8,192.1 -1473.8,156.2 -1473.9,156.1 -1545,40.2 -1545,40.1 -1567,4.2 -1567.1,4.1 -1524.9,4.1 
		-1524.8,4.2 -1502.8,40.1 -1502.8,40.2 -1431.7,156.1 -1431.6,156.2 -1409.6,192.1 -1409.5,192.2 -1393.1,218.9 -1392.9,219.3 
		-1375,248.5 -1357.1,277.6 -1356.9,278 	"/>
	<polygon display="inline" fill="#FFFFFF" points="-1182.9,4.1 -1205,40.1 -1256.5,124.1 -1276.1,156.1 -1318.3,156.1 
		-1298.7,124.1 -1247.2,40.1 -1225.1,4.1 	"/>
	<polygon display="inline" fill="#FFFFFF" points="-1434.9,316.1 -1457,280.1 -1797,280.1 -1819,316 -1819.1,316.1 	"/>
	<polygon display="inline" fill="#FFFFFF" points="-1605.9,37.5 -1609.1,32.2 -1627,3.1 -1644.9,32.3 -1645.1,32.7 -1648.1,37.5 
		-1703.8,128.3 -1703.8,128.4 -1725.8,164.3 -1725.9,164.4 -1797,280.3 -1797,280.4 -1819,316.1 -1819.1,316.1 -1776.9,316.1 
		-1776.8,316.1 -1754.8,280.3 -1754.8,280.2 -1683.7,164.3 -1683.6,164.3 -1661.6,128.4 -1661.5,128.3 -1645.1,101.5 -1644.9,101.2 
		-1627,71.9 -1609.1,42.8 -1608.9,42.5 	"/>
	<polygon display="inline" fill="#FFFFFF" points="-1434.9,316.1 -1477.1,316.1 -1499.2,280.1 -1555.7,188.1 -1570.3,164.2 
		-1575.3,156.1 -1533,156.1 -1528.1,164.1 -1513.4,188.1 -1457,280.2 	"/>
</g>
<g id="menu" display="none">
</g>
<g id="logo" display="none">
	<polygon display="inline" fill="#FF0000" points="-2279.9,-264.5 -2301.1,-230.1 -2279.9,-264.5 	"/>
	<polygon display="inline" fill="#FF0000" points="-1799.5,-302.9 -1799.6,-302.9 -1821.6,-338.8 -1821.7,-338.9 -1821.6,-338.9 	
		"/>
	<polygon display="inline" fill="#FF0000" points="-2186.9,-214.9 -2187,-214.7 -2187,-214.6 -2209,-178.9 -2209.1,-178.9 
		-2209.1,-179 -2187,-214.9 	"/>
	<polygon display="inline" fill="#FF0000" points="-1824.9,-178.9 -1847,-214.8 -1847,-214.9 -1847,-214.9 	"/>
	<polygon display="inline" fill="#FF0000" points="-2209.1,-178.9 -2209,-178.9 -2209.1,-178.9 	"/>
	<polygon display="inline" fill="#FF0000" points="-2166.8,-178.9 -2166.8,-178.9 -2166.9,-178.9 	"/>
	<polygon display="inline" fill="#FF0000" points="-2093.6,-366.9 -2093.8,-366.7 -2093.8,-366.6 -2115.7,-330.9 -2115.9,-330.9 
		-2115.8,-331 -2093.8,-366.9 	"/>
</g>
<g id="Слой_9">
	<rect x="-1364.5" y="-478.9" display="none" fill="#FFE900" width="86.7" height="38"/>
	<text transform="matrix(1 0 0 1 -1575.1299 -452.9251)"><tspan x="0" y="0" font-family="'Bender'" font-size="24">С</tspan><tspan x="13.9" y="0" font-family="'MyriadPro-Regular'" font-size="24">дела</tspan><tspan x="62.4" y="0" font-family="'Bender'" font-size="24">т</tspan><tspan x="72.5" y="0" font-family="'MyriadPro-Regular'" font-size="24">ь</tspan><tspan x="84.4" y="0" font-family="'Bender'" font-size="24"> </tspan><tspan x="91.6" y="0" font-family="'MyriadPro-Regular'" font-size="24">заказ</tspan></text>
	<text transform="matrix(1 0 0 1 -1351.1304 -452.925)" font-family="'MyriadPro-Regular'" font-size="24">Цены</text>
	<polyline fill="none" stroke="#000000" stroke-miterlimit="10" points="-1385.6,-454 -1390.7,-457 -1395.7,-459.9 -1390.7,-462.9 
		-1385.6,-465.9 	"/>
	<text transform="matrix(1 0 0 1 -1211.1304 -451.925)" font-family="'MyriadPro-Regular'" font-size="24">Акции</text>
	<path display="none" d="M-1254.1-466.3c-0.1,0-0.3,0-0.4,0c-0.2,0-0.4,0-0.6,0v1c0.2,0,0.4,0,0.6,0c0.1,0,0.3,0,0.4,0
		c2.8,0.2,5,2.6,5,5.4c0,2.8-2.2,5.2-5,5.4c-0.1,0-0.3,0-0.4,0c-0.2,0-0.4,0-0.6,0v1c0.2,0,0.4,0,0.6,0c0.1,0,0.3,0,0.4,0
		c3.3-0.2,6-3,6-6.4C-1248.1-463.3-1250.8-466.1-1254.1-466.3z"/>
	<rect x="-1575.1" y="-443.6" fill="#FFE900" width="145.7" height="2.7"/>
	<rect x="-1351.1" y="-443.6" display="none" fill="#FFE900" width="55.8" height="2.7"/>
	<rect x="-1211.1" y="-443.6" display="none" fill="#FFE900" width="65" height="2.7"/>
	<line fill="none" stroke="#000000" stroke-miterlimit="10" x1="-1260.1" y1="-466.4" x2="-1265.2" y2="-454.4"/>
	<polyline fill="none" stroke="#000000" stroke-miterlimit="10" points="-1255.7,-465.9 -1250.7,-462.9 -1245.6,-459.9 
		-1250.7,-457 -1255.7,-454 	"/>
</g>
<g id="nav">
	<circle cx="-1159.7" cy="-136.4" r="13.8"/>
	<circle fill="#FFE900" cx="-1159.7" cy="-136.4" r="12.1"/>
	
		<rect x="-1161" y="-161.1" transform="matrix(-0.6417 -0.7669 0.7669 -0.6417 -1799.2634 -1113.3589)" fill="#FFE900" width="2.6" height="49.4"/>
	<circle cx="-1159.7" cy="-68.4" r="13.8"/>
	<circle fill="#FFFFFF" cx="-1159.7" cy="-68.4" r="12.1"/>
	
		<rect x="-1161" y="-93.1" transform="matrix(-0.6417 -0.7669 0.7669 -0.6417 -1851.4147 -1001.7213)" fill="#FFFFFF" width="2.6" height="49.4"/>
	<circle cx="-1159.7" cy="0.6" r="13.8"/>
	<circle fill="#FFFFFF" cx="-1159.7" cy="0.6" r="12.1"/>
	
		<rect x="-1161" y="-24.1" transform="matrix(-0.6417 -0.7669 0.7669 -0.6417 -1904.333 -888.442)" fill="#FFFFFF" width="2.6" height="49.4"/>
	<circle cx="-1159.7" cy="68.6" r="13.8"/>
	<circle fill="#FFFFFF" cx="-1159.7" cy="68.6" r="12.1"/>
	
		<rect x="-1161" y="43.9" transform="matrix(-0.6417 -0.7669 0.7669 -0.6417 -1956.4843 -776.8044)" fill="#FFFFFF" width="2.6" height="49.4"/>
</g>
<g id="Слой_11" display="none">
	<rect x="-1169.7" y="14.4" display="inline" fill="#FFE900" width="23.5" height="40"/>
</g>
</svg>
